<svg width="16" height="16" viewBox="0 0 16 16" fill="none" xmlns="http://www.w3.org/2000/svg">
<path d="M1.66669 11.3744V6.80078H14.3334V11.3744C14.3334 11.9507 14.1939 12.3821 13.915 12.6684C13.6362 12.9584 13.2476 13.1034 12.7493 13.1034H3.41804C2.83426 13.1034 2.39549 12.9584 2.10174 12.6684C1.8117 12.3821 1.66669 11.9507 1.66669 11.3744ZM1.66669 6.07012V4.57533C1.66669 4.01386 1.80055 3.59368 2.06827 3.3148C2.336 3.03592 2.71527 2.89648 3.2061 2.89648H4.79571C4.97791 2.89648 5.13594 2.9095 5.2698 2.93553C5.40738 2.96156 5.53194 3.00432 5.6435 3.06381C5.75877 3.12331 5.87775 3.20511 6.00046 3.30922L6.34069 3.5881C6.48199 3.70709 6.61771 3.79261 6.74786 3.84467C6.878 3.89301 7.03789 3.91718 7.22753 3.91718H12.582C13.1621 3.91718 13.599 4.0622 13.8927 4.35223C14.1865 4.64226 14.3334 5.0736 14.3334 5.64623V6.07012H1.66669Z" fill="#626A80"/>
</svg>
