<svg width="16" height="16" viewBox="0 0 16 16" fill="none" xmlns="http://www.w3.org/2000/svg">
<rect width="16" height="16" rx="4" fill="#6A6A6A"/>
<rect width="16" height="16" rx="4" fill="white" fill-opacity="0.1"/>
<path d="M3.1276 6.79055C3.1276 6.90788 3.16454 7.00782 3.23841 7.09038C3.31662 7.17294 3.41657 7.24681 3.53823 7.31199C3.6599 7.37282 3.79461 7.43366 3.94235 7.49449C4.09443 7.55533 4.24435 7.62485 4.39209 7.70307C4.53983 7.77694 4.67453 7.87036 4.7962 7.98334C4.91787 8.09197 5.01564 8.2245 5.08951 8.38093C5.16772 8.53302 5.20683 8.72204 5.20683 8.94799C5.20248 9.23478 5.13079 9.48029 4.99174 9.68452C4.85703 9.88875 4.67453 10.0474 4.44423 10.1603C4.21827 10.269 3.96625 10.3233 3.68815 10.3233C3.30576 10.3233 2.97986 10.2581 2.71046 10.1277C2.4915 10.0183 2.29407 9.87291 2.11817 9.69168C2.04938 9.62081 2.05711 9.508 2.12971 9.44104L2.52375 9.07761C2.60323 9.0043 2.72767 9.0154 2.80291 9.09304C2.90707 9.20052 3.01964 9.28905 3.14064 9.35862C3.31445 9.45857 3.49261 9.50854 3.67511 9.50854C3.80547 9.50854 3.9141 9.48681 4.00101 9.44336C4.08791 9.3999 4.15309 9.33907 4.19655 9.26085C4.24435 9.18264 4.26824 9.08921 4.26824 8.98058C4.26824 8.85891 4.23131 8.7568 4.15744 8.67424C4.08357 8.59168 3.98363 8.51781 3.85761 8.45263C3.73595 8.38745 3.60124 8.32444 3.4535 8.26361C3.30576 8.19843 3.15802 8.1289 3.01028 8.05503C2.86254 7.97682 2.72566 7.88557 2.59965 7.78128C2.47798 7.67265 2.38021 7.54012 2.30634 7.38369C2.23247 7.22726 2.19554 7.04041 2.19554 6.82314C2.19554 6.64064 2.2303 6.47117 2.29983 6.31474C2.3737 6.15397 2.47581 6.01274 2.60617 5.89108C2.73653 5.76941 2.89079 5.67381 3.06894 5.60429C3.25145 5.53476 3.45133 5.5 3.66859 5.5C4.01187 5.5 4.31387 5.56952 4.57459 5.70857C4.78684 5.81992 4.97681 5.96052 5.14448 6.13038C5.21466 6.20148 5.2066 6.31582 5.1325 6.38281L4.73378 6.74318C4.6546 6.81475 4.53206 6.80393 4.45898 6.72615C4.36258 6.62356 4.26207 6.5364 4.15744 6.46466C4.00535 6.36037 3.84458 6.30823 3.67511 6.30823C3.56648 6.30823 3.47088 6.32995 3.38832 6.3734C3.31011 6.41251 3.2471 6.469 3.1993 6.54287C3.1515 6.6124 3.1276 6.69496 3.1276 6.79055Z" fill="white"/>
<path d="M10.0176 10.0756C10.1957 10.2364 10.363 10.3494 10.5195 10.4145C10.6759 10.4797 10.828 10.5123 10.9757 10.5123C11.0279 10.5123 11.0822 10.508 11.1387 10.4993V10.4993C11.2194 10.4877 11.3016 10.5464 11.3016 10.628V11.1115C11.3016 11.1899 11.2525 11.261 11.1765 11.2802C11.1443 11.2884 11.1122 11.2953 11.08 11.301C11.0061 11.3184 10.9192 11.327 10.8193 11.327C10.5673 11.327 10.3218 11.2749 10.0828 11.1706C9.84811 11.0707 9.61781 10.9208 9.39186 10.7209L8.71779 10.1279C8.62297 10.0445 8.6378 9.89267 8.74698 9.8292L9.24729 9.53832C9.31767 9.4974 9.40654 9.50733 9.46616 9.56277L10.0176 10.0756ZM9.69168 7.91164C9.69168 7.69437 9.65475 7.49232 9.58088 7.30547C9.51135 7.11862 9.40924 6.95567 9.27454 6.81662C9.14418 6.67323 8.98992 6.56243 8.81176 6.48421C8.6336 6.40599 8.43807 6.36689 8.22515 6.36689C8.00788 6.36689 7.81017 6.40599 7.63201 6.48421C7.45386 6.56243 7.29743 6.67323 7.16272 6.81662C7.03236 6.95567 6.93025 7.11862 6.85638 7.30547C6.78685 7.49232 6.75209 7.69437 6.75209 7.91164C6.75209 8.1289 6.78685 8.33096 6.85638 8.51781C6.93025 8.70466 7.03236 8.86978 7.16272 9.01317C7.29743 9.15222 7.45386 9.26085 7.63201 9.33907C7.81017 9.41728 8.00788 9.45639 8.22515 9.45639C8.43807 9.45639 8.6336 9.41728 8.81176 9.33907C8.98992 9.26085 9.14418 9.15222 9.27454 9.01317C9.40924 8.86978 9.51135 8.70466 9.58088 8.51781C9.65475 8.33096 9.69168 8.1289 9.69168 7.91164ZM5.80047 7.91164C5.80047 7.58574 5.85913 7.27723 5.97646 6.98609C6.09378 6.69496 6.2589 6.43858 6.47182 6.21697C6.68908 5.99536 6.94546 5.82155 7.24094 5.69554C7.53642 5.56518 7.86449 5.5 8.22515 5.5C8.58581 5.5 8.91388 5.56518 9.20936 5.69554C9.50484 5.82155 9.75904 5.99536 9.97196 6.21697C10.1892 6.43858 10.3543 6.69496 10.4673 6.98609C10.5846 7.27723 10.6433 7.58574 10.6433 7.91164C10.6433 8.23754 10.5846 8.54605 10.4673 8.83719C10.3543 9.12832 10.1892 9.3847 9.97196 9.60631C9.75904 9.82792 9.50484 10.0039 9.20936 10.1343C8.91388 10.2603 8.58581 10.3233 8.22515 10.3233C7.86449 10.3233 7.53642 10.2603 7.24094 10.1343C6.94546 10.0039 6.68908 9.82792 6.47182 9.60631C6.2589 9.3847 6.09378 9.12832 5.97646 8.83719C5.85913 8.54605 5.80047 8.23754 5.80047 7.91164Z" fill="white"/>
<path d="M11.7805 10.1929C11.6784 10.1929 11.5956 10.1101 11.5956 10.008V5.81527C11.5956 5.71315 11.6784 5.63036 11.7805 5.63036H12.3362C12.4383 5.63036 12.5211 5.71315 12.5211 5.81527V9.16719C12.5211 9.26932 12.6039 9.35211 12.706 9.35211H14.07C14.1721 9.35211 14.2549 9.43489 14.2549 9.53702V10.008C14.2549 10.1101 14.1721 10.1929 14.07 10.1929H11.7805Z" fill="white"/>
</svg>
