<svg width="36" height="40" viewBox="0 0 36 40" fill="none" xmlns="http://www.w3.org/2000/svg">
<g filter="url(#filter0_d_2928_1265)">
<g clip-path="url(#clip0_2928_1265)">
<mask id="mask0_2928_1265" style="mask-type:alpha" maskUnits="userSpaceOnUse" x="8" y="2" width="24" height="32">
<path d="M8.38802 3.94379C8 4.70532 8 5.70221 8 7.696V28.304C8 30.2978 8 31.2947 8.38802 32.0562C8.72933 32.7261 9.27394 33.2707 9.94379 33.612C10.7053 34 11.7022 34 13.696 34H26.304C28.2978 34 29.2947 34 30.0562 33.612C30.7261 33.2707 31.2707 32.7261 31.612 32.0562C32 31.2947 32 30.2978 32 28.304V10.9882C32 10.2545 32 9.88757 31.9171 9.5423C31.8436 9.2362 31.7224 8.94356 31.5579 8.67515C31.3724 8.3724 31.113 8.11297 30.5941 7.59411L26.4059 3.40589C25.887 2.88703 25.6276 2.6276 25.3249 2.44208C25.0564 2.27759 24.7638 2.15638 24.4577 2.08289C24.1124 2 23.7455 2 23.0118 2H13.696C11.7022 2 10.7053 2 9.94379 2.38802C9.27394 2.72933 8.72933 3.27394 8.38802 3.94379Z" fill="#D9D9D9"/>
</mask>
<g mask="url(#mask0_2928_1265)">
<path d="M8.38802 3.94379C8 4.70532 8 5.70221 8 7.696V28.304C8 30.2978 8 31.2947 8.38802 32.0562C8.72933 32.7261 9.27394 33.2707 9.94379 33.612C10.7053 34 11.7022 34 13.696 34H26.304C28.2978 34 29.2947 34 30.0562 33.612C30.7261 33.2707 31.2707 32.7261 31.612 32.0562C32 31.2947 32 30.2978 32 28.304V10.9882C32 10.2545 32 9.88757 31.9171 9.5423C31.8436 9.2362 31.7224 8.94356 31.5579 8.67515C31.3724 8.3724 31.113 8.11297 30.5941 7.59411L26.4059 3.40589C25.887 2.88703 25.6276 2.6276 25.3249 2.44208C25.0564 2.27759 24.7638 2.15638 24.4577 2.08289C24.1124 2 23.7455 2 23.0118 2H13.696C11.7022 2 10.7053 2 9.94379 2.38802C9.27394 2.72933 8.72933 3.27394 8.38802 3.94379Z" fill="white"/>
<g filter="url(#filter1_d_2928_1265)">
<mask id="path-4-inside-1_2928_1265" fill="white">
<path d="M24.0964 6.44V2H32.0964V10H27.6564C25.6903 10 24.0964 8.40613 24.0964 6.44Z"/>
</mask>
<path d="M24.0964 6.44V2H32.0964V10H27.6564C25.6903 10 24.0964 8.40613 24.0964 6.44Z" fill="#6D778C"/>
<path d="M24.0964 6.44V2H32.0964V10H27.6564C25.6903 10 24.0964 8.40613 24.0964 6.44Z" fill="#F6F8F9" fill-opacity="0.9"/>
<path d="M24.0964 2V1.3H23.3964V2H24.0964ZM32.0964 10V10.7H32.7964V10H32.0964ZM32.0964 2H32.7964V1.3H32.0964V2ZM23.3964 2V6.44H24.7964V2H23.3964ZM27.6564 10.7H32.0964V9.3H27.6564V10.7ZM24.0964 2.7H32.0964V1.3H24.0964V2.7ZM31.3964 2V10H32.7964V2H31.3964ZM23.3964 6.44C23.3964 8.79273 25.3037 10.7 27.6564 10.7V9.3C26.0769 9.3 24.7964 8.01953 24.7964 6.44H23.3964Z" fill="#6D778C" mask="url(#path-4-inside-1_2928_1265)"/>
<path d="M24.0964 2V1.3H23.3964V2H24.0964ZM32.0964 10V10.7H32.7964V10H32.0964ZM32.0964 2H32.7964V1.3H32.0964V2ZM23.3964 2V6.44H24.7964V2H23.3964ZM27.6564 10.7H32.0964V9.3H27.6564V10.7ZM24.0964 2.7H32.0964V1.3H24.0964V2.7ZM31.3964 2V10H32.7964V2H31.3964ZM23.3964 6.44C23.3964 8.79273 25.3037 10.7 27.6564 10.7V9.3C26.0769 9.3 24.7964 8.01953 24.7964 6.44H23.3964Z" fill="#F6F8F9" fill-opacity="0.8" mask="url(#path-4-inside-1_2928_1265)"/>
</g>
<path d="M13.6963 2.34961H23.0117C23.7621 2.34961 24.0804 2.3519 24.376 2.42285C24.6462 2.48773 24.9046 2.59506 25.1416 2.74023C25.4008 2.89907 25.6277 3.12278 26.1582 3.65332L30.3467 7.8418C30.8772 8.37234 31.1009 8.5992 31.2598 8.8584C31.4049 9.09539 31.5123 9.35378 31.5771 9.62402C31.6481 9.91961 31.6504 10.2379 31.6504 10.9883V28.3037C31.6504 29.3061 31.6496 30.0373 31.6025 30.6133C31.5558 31.1853 31.4645 31.5743 31.2998 31.8975C30.9921 32.5013 30.5013 32.9921 29.8975 33.2998C29.5743 33.4645 29.1853 33.5558 28.6133 33.6025C28.0373 33.6496 27.3061 33.6504 26.3037 33.6504H13.6963C12.6939 33.6504 11.9627 33.6496 11.3867 33.6025C10.8147 33.5558 10.4257 33.4645 10.1025 33.2998C9.49874 32.9921 9.00791 32.5013 8.7002 31.8975C8.53552 31.5743 8.44419 31.1853 8.39746 30.6133C8.35043 30.0373 8.34961 29.3061 8.34961 28.3037V7.69629C8.34961 6.69386 8.35043 5.96274 8.39746 5.38672C8.44419 4.81473 8.53552 4.42574 8.7002 4.10254C9.00791 3.49874 9.49874 3.00791 10.1025 2.7002C10.4257 2.53552 10.8147 2.44419 11.3867 2.39746C11.9627 2.35043 12.6939 2.34961 13.6963 2.34961Z" stroke="#6D778C" stroke-width="0.7"/>
<path d="M13.6963 2.34961H23.0117C23.7621 2.34961 24.0804 2.3519 24.376 2.42285C24.6462 2.48773 24.9046 2.59506 25.1416 2.74023C25.4008 2.89907 25.6277 3.12278 26.1582 3.65332L30.3467 7.8418C30.8772 8.37234 31.1009 8.5992 31.2598 8.8584C31.4049 9.09539 31.5123 9.35378 31.5771 9.62402C31.6481 9.91961 31.6504 10.2379 31.6504 10.9883V28.3037C31.6504 29.3061 31.6496 30.0373 31.6025 30.6133C31.5558 31.1853 31.4645 31.5743 31.2998 31.8975C30.9921 32.5013 30.5013 32.9921 29.8975 33.2998C29.5743 33.4645 29.1853 33.5558 28.6133 33.6025C28.0373 33.6496 27.3061 33.6504 26.3037 33.6504H13.6963C12.6939 33.6504 11.9627 33.6496 11.3867 33.6025C10.8147 33.5558 10.4257 33.4645 10.1025 33.2998C9.49874 32.9921 9.00791 32.5013 8.7002 31.8975C8.53552 31.5743 8.44419 31.1853 8.39746 30.6133C8.35043 30.0373 8.34961 29.3061 8.34961 28.3037V7.69629C8.34961 6.69386 8.35043 5.96274 8.39746 5.38672C8.44419 4.81473 8.53552 4.42574 8.7002 4.10254C9.00791 3.49874 9.49874 3.00791 10.1025 2.7002C10.4257 2.53552 10.8147 2.44419 11.3867 2.39746C11.9627 2.35043 12.6939 2.34961 13.6963 2.34961Z" stroke="#F6F8F9" stroke-opacity="0.8" stroke-width="0.7"/>
</g>
</g>
<rect x="4" y="18" width="16" height="16" rx="4" fill="#6D778C"/>
<path d="M7.1276 24.7906C7.1276 24.9079 7.16454 25.0078 7.23841 25.0904C7.31662 25.1729 7.41657 25.2468 7.53823 25.312C7.6599 25.3728 7.79461 25.4337 7.94235 25.4945C8.09443 25.5553 8.24435 25.6249 8.39209 25.7031C8.53983 25.7769 8.67453 25.8704 8.7962 25.9833C8.91787 26.092 9.01564 26.2245 9.08951 26.3809C9.16772 26.533 9.20683 26.722 9.20683 26.948C9.20248 27.2348 9.13079 27.4803 8.99174 27.6845C8.85703 27.8887 8.67453 28.0474 8.44423 28.1603C8.21827 28.269 7.96625 28.3233 7.68815 28.3233C7.30576 28.3233 6.97986 28.2581 6.71046 28.1277C6.4915 28.0183 6.29407 27.8729 6.11817 27.6917C6.04938 27.6208 6.05711 27.508 6.12971 27.441L6.52375 27.0776C6.60323 27.0043 6.72767 27.0154 6.80291 27.093C6.90707 27.2005 7.01964 27.289 7.14064 27.3586C7.31445 27.4586 7.49261 27.5085 7.67511 27.5085C7.80547 27.5085 7.9141 27.4868 8.00101 27.4434C8.08791 27.3999 8.15309 27.3391 8.19655 27.2609C8.24435 27.1826 8.26824 27.0892 8.26824 26.9806C8.26824 26.8589 8.23131 26.7568 8.15744 26.6742C8.08357 26.5917 7.98363 26.5178 7.85761 26.4526C7.73595 26.3874 7.60124 26.3244 7.4535 26.2636C7.30576 26.1984 7.15802 26.1289 7.01028 26.055C6.86254 25.9768 6.72566 25.8856 6.59965 25.7813C6.47798 25.6726 6.38021 25.5401 6.30634 25.3837C6.23247 25.2273 6.19554 25.0404 6.19554 24.8231C6.19554 24.6406 6.2303 24.4712 6.29983 24.3147C6.3737 24.154 6.47581 24.0127 6.60617 23.8911C6.73653 23.7694 6.89079 23.6738 7.06894 23.6043C7.25145 23.5348 7.45133 23.5 7.66859 23.5C8.01187 23.5 8.31387 23.5695 8.57459 23.7086C8.78684 23.8199 8.97681 23.9605 9.14448 24.1304C9.21466 24.2015 9.2066 24.3158 9.1325 24.3828L8.73378 24.7432C8.6546 24.8147 8.53206 24.8039 8.45898 24.7262C8.36258 24.6236 8.26206 24.5364 8.15744 24.4647C8.00535 24.3604 7.84458 24.3082 7.67511 24.3082C7.56648 24.3082 7.47088 24.33 7.38832 24.3734C7.31011 24.4125 7.2471 24.469 7.1993 24.5429C7.1515 24.6124 7.1276 24.695 7.1276 24.7906Z" fill="#F6F8F9" fill-opacity="0.95"/>
<path d="M14.0176 28.0756C14.1957 28.2364 14.363 28.3494 14.5195 28.4145C14.6759 28.4797 14.828 28.5123 14.9757 28.5123C15.0279 28.5123 15.0822 28.508 15.1387 28.4993C15.2194 28.4877 15.3016 28.5464 15.3016 28.628V29.1115C15.3016 29.1899 15.2525 29.261 15.1765 29.2802C15.1443 29.2884 15.1122 29.2953 15.08 29.301C15.0061 29.3184 14.9192 29.327 14.8193 29.327C14.5673 29.327 14.3218 29.2749 14.0828 29.1706C13.8481 29.0707 13.6178 28.9208 13.3919 28.7209L12.7178 28.1279C12.623 28.0445 12.6378 27.8927 12.747 27.8292L13.2473 27.5383C13.3177 27.4974 13.4065 27.5073 13.4662 27.5628L14.0176 28.0756ZM13.6917 25.9116C13.6917 25.6944 13.6547 25.4923 13.5809 25.3055C13.5114 25.1186 13.4092 24.9557 13.2745 24.8166C13.1442 24.6732 12.9899 24.5624 12.8118 24.4842C12.6336 24.406 12.4381 24.3669 12.2251 24.3669C12.0079 24.3669 11.8102 24.406 11.632 24.4842C11.4539 24.5624 11.2974 24.6732 11.1627 24.8166C11.0324 24.9557 10.9302 25.1186 10.8564 25.3055C10.7869 25.4923 10.7521 25.6944 10.7521 25.9116C10.7521 26.1289 10.7869 26.331 10.8564 26.5178C10.9302 26.7047 11.0324 26.8698 11.1627 27.0132C11.2974 27.1522 11.4539 27.2609 11.632 27.3391C11.8102 27.4173 12.0079 27.4564 12.2251 27.4564C12.4381 27.4564 12.6336 27.4173 12.8118 27.3391C12.9899 27.2609 13.1442 27.1522 13.2745 27.0132C13.4092 26.8698 13.5114 26.7047 13.5809 26.5178C13.6547 26.331 13.6917 26.1289 13.6917 25.9116ZM9.80047 25.9116C9.80047 25.5857 9.85913 25.2772 9.97646 24.9861C10.0938 24.695 10.2589 24.4386 10.4718 24.217C10.6891 23.9954 10.9455 23.8216 11.2409 23.6955C11.5364 23.5652 11.8645 23.5 12.2251 23.5C12.5858 23.5 12.9139 23.5652 13.2094 23.6955C13.5048 23.8216 13.759 23.9954 13.972 24.217C14.1892 24.4386 14.3543 24.695 14.4673 24.9861C14.5846 25.2772 14.6433 25.5857 14.6433 25.9116C14.6433 26.2375 14.5846 26.5461 14.4673 26.8372C14.3543 27.1283 14.1892 27.3847 13.972 27.6063C13.759 27.8279 13.5048 28.0039 13.2094 28.1343C12.9139 28.2603 12.5858 28.3233 12.2251 28.3233C11.8645 28.3233 11.5364 28.2603 11.2409 28.1343C10.9455 28.0039 10.6891 27.8279 10.4718 27.6063C10.2589 27.3847 10.0938 27.1283 9.97646 26.8372C9.85913 26.5461 9.80047 26.2375 9.80047 25.9116Z" fill="#F6F8F9" fill-opacity="0.95"/>
<path d="M15.7805 28.1929C15.6784 28.1929 15.5956 28.1101 15.5956 28.008V23.8153C15.5956 23.7131 15.6784 23.6304 15.7805 23.6304H16.3362C16.4383 23.6304 16.5211 23.7131 16.5211 23.8153V27.1672C16.5211 27.2693 16.6039 27.3521 16.706 27.3521H18.07C18.1721 27.3521 18.2549 27.4349 18.2549 27.537V28.008C18.2549 28.1101 18.1721 28.1929 18.07 28.1929H15.7805Z" fill="#F6F8F9" fill-opacity="0.95"/>
</g>
<defs>
<filter id="filter0_d_2928_1265" x="0" y="0" width="40" height="40" filterUnits="userSpaceOnUse" color-interpolation-filters="sRGB">
<feFlood flood-opacity="0" result="BackgroundImageFix"/>
<feColorMatrix in="SourceAlpha" type="matrix" values="0 0 0 0 0 0 0 0 0 0 0 0 0 0 0 0 0 0 127 0" result="hardAlpha"/>
<feOffset dy="2"/>
<feGaussianBlur stdDeviation="2"/>
<feComposite in2="hardAlpha" operator="out"/>
<feColorMatrix type="matrix" values="0 0 0 0 0.0941176 0 0 0 0 0.105882 0 0 0 0 0.141176 0 0 0 0.05 0"/>
<feBlend mode="normal" in2="BackgroundImageFix" result="effect1_dropShadow_2928_1265"/>
<feBlend mode="normal" in="SourceGraphic" in2="effect1_dropShadow_2928_1265" result="shape"/>
</filter>
<filter id="filter1_d_2928_1265" x="22.0964" y="0" width="12" height="12" filterUnits="userSpaceOnUse" color-interpolation-filters="sRGB">
<feFlood flood-opacity="0" result="BackgroundImageFix"/>
<feColorMatrix in="SourceAlpha" type="matrix" values="0 0 0 0 0 0 0 0 0 0 0 0 0 0 0 0 0 0 127 0" result="hardAlpha"/>
<feOffset/>
<feGaussianBlur stdDeviation="1"/>
<feComposite in2="hardAlpha" operator="out"/>
<feColorMatrix type="matrix" values="0 0 0 0 0 0 0 0 0 0 0 0 0 0 0 0 0 0 0.1 0"/>
<feBlend mode="normal" in2="BackgroundImageFix" result="effect1_dropShadow_2928_1265"/>
<feBlend mode="normal" in="SourceGraphic" in2="effect1_dropShadow_2928_1265" result="shape"/>
</filter>
<clipPath id="clip0_2928_1265">
<rect x="8" y="2" width="24" height="32" rx="3.55556" fill="white"/>
</clipPath>
</defs>
</svg>
