<svg width="36" height="40" viewBox="0 0 36 40" fill="none" xmlns="http://www.w3.org/2000/svg">
<g filter="url(#filter0_d_2456_1539)">
<rect x="8.35" y="2.35" width="23.3" height="31.3" rx="3.20556" fill="white"/>
<rect x="8.35" y="2.35" width="23.3" height="31.3" rx="3.20556" stroke="#6D778C" stroke-width="0.7"/>
<rect x="8.35" y="2.35" width="23.3" height="31.3" rx="3.20556" stroke="#F6F8F9" stroke-opacity="0.8" stroke-width="0.7"/>
<path fill-rule="evenodd" clip-rule="evenodd" d="M11.1111 6C11.1111 5.50908 11.5091 5.11111 12 5.11111H28C28.4909 5.11111 28.8889 5.50908 28.8889 6C28.8889 6.49092 28.4909 6.88889 28 6.88889H12C11.5091 6.88889 11.1111 6.49092 11.1111 6Z" fill="#6D778C"/>
<path fill-rule="evenodd" clip-rule="evenodd" d="M11.1111 6C11.1111 5.50908 11.5091 5.11111 12 5.11111H28C28.4909 5.11111 28.8889 5.50908 28.8889 6C28.8889 6.49092 28.4909 6.88889 28 6.88889H12C11.5091 6.88889 11.1111 6.49092 11.1111 6Z" fill="#F6F8F9" fill-opacity="0.8"/>
<path fill-rule="evenodd" clip-rule="evenodd" d="M11.1111 9C11.1111 8.50908 11.5091 8.11111 12 8.11111H28C28.4909 8.11111 28.8889 8.50908 28.8889 9C28.8889 9.49092 28.4909 9.88889 28 9.88889H12C11.5091 9.88889 11.1111 9.49092 11.1111 9Z" fill="#6D778C"/>
<path fill-rule="evenodd" clip-rule="evenodd" d="M11.1111 9C11.1111 8.50908 11.5091 8.11111 12 8.11111H28C28.4909 8.11111 28.8889 8.50908 28.8889 9C28.8889 9.49092 28.4909 9.88889 28 9.88889H12C11.5091 9.88889 11.1111 9.49092 11.1111 9Z" fill="#F6F8F9" fill-opacity="0.8"/>
<path fill-rule="evenodd" clip-rule="evenodd" d="M11.1111 12C11.1111 11.5091 11.5091 11.1111 12 11.1111H28C28.4909 11.1111 28.8889 11.5091 28.8889 12C28.8889 12.4909 28.4909 12.8889 28 12.8889H12C11.5091 12.8889 11.1111 12.4909 11.1111 12Z" fill="#6D778C"/>
<path fill-rule="evenodd" clip-rule="evenodd" d="M11.1111 12C11.1111 11.5091 11.5091 11.1111 12 11.1111H28C28.4909 11.1111 28.8889 11.5091 28.8889 12C28.8889 12.4909 28.4909 12.8889 28 12.8889H12C11.5091 12.8889 11.1111 12.4909 11.1111 12Z" fill="#F6F8F9" fill-opacity="0.8"/>
<path fill-rule="evenodd" clip-rule="evenodd" d="M11.1111 15C11.1111 14.5091 11.5091 14.1111 12 14.1111H28C28.4909 14.1111 28.8889 14.5091 28.8889 15C28.8889 15.4909 28.4909 15.8889 28 15.8889H12C11.5091 15.8889 11.1111 15.4909 11.1111 15Z" fill="#6D778C"/>
<path fill-rule="evenodd" clip-rule="evenodd" d="M11.1111 15C11.1111 14.5091 11.5091 14.1111 12 14.1111H28C28.4909 14.1111 28.8889 14.5091 28.8889 15C28.8889 15.4909 28.4909 15.8889 28 15.8889H12C11.5091 15.8889 11.1111 15.4909 11.1111 15Z" fill="#F6F8F9" fill-opacity="0.8"/>
<path fill-rule="evenodd" clip-rule="evenodd" d="M11.1111 18C11.1111 17.5091 11.5091 17.1111 12 17.1111H28C28.4909 17.1111 28.8889 17.5091 28.8889 18C28.8889 18.4909 28.4909 18.8889 28 18.8889H12C11.5091 18.8889 11.1111 18.4909 11.1111 18Z" fill="#6D778C"/>
<path fill-rule="evenodd" clip-rule="evenodd" d="M11.1111 18C11.1111 17.5091 11.5091 17.1111 12 17.1111H28C28.4909 17.1111 28.8889 17.5091 28.8889 18C28.8889 18.4909 28.4909 18.8889 28 18.8889H12C11.5091 18.8889 11.1111 18.4909 11.1111 18Z" fill="#F6F8F9" fill-opacity="0.8"/>
<path fill-rule="evenodd" clip-rule="evenodd" d="M11.1111 21C11.1111 20.5091 11.5091 20.1111 12 20.1111H28C28.4909 20.1111 28.8889 20.5091 28.8889 21C28.8889 21.4909 28.4909 21.8889 28 21.8889H12C11.5091 21.8889 11.1111 21.4909 11.1111 21Z" fill="#6D778C"/>
<path fill-rule="evenodd" clip-rule="evenodd" d="M11.1111 21C11.1111 20.5091 11.5091 20.1111 12 20.1111H28C28.4909 20.1111 28.8889 20.5091 28.8889 21C28.8889 21.4909 28.4909 21.8889 28 21.8889H12C11.5091 21.8889 11.1111 21.4909 11.1111 21Z" fill="#F6F8F9" fill-opacity="0.8"/>
<path fill-rule="evenodd" clip-rule="evenodd" d="M11.1111 24C11.1111 23.5091 11.5091 23.1111 12 23.1111H28C28.4909 23.1111 28.8889 23.5091 28.8889 24C28.8889 24.4909 28.4909 24.8889 28 24.8889H12C11.5091 24.8889 11.1111 24.4909 11.1111 24Z" fill="#6D778C"/>
<path fill-rule="evenodd" clip-rule="evenodd" d="M11.1111 24C11.1111 23.5091 11.5091 23.1111 12 23.1111H28C28.4909 23.1111 28.8889 23.5091 28.8889 24C28.8889 24.4909 28.4909 24.8889 28 24.8889H12C11.5091 24.8889 11.1111 24.4909 11.1111 24Z" fill="#F6F8F9" fill-opacity="0.8"/>
<path fill-rule="evenodd" clip-rule="evenodd" d="M11.1111 27C11.1111 26.5091 11.5091 26.1111 12 26.1111H28C28.4909 26.1111 28.8889 26.5091 28.8889 27C28.8889 27.4909 28.4909 27.8889 28 27.8889H12C11.5091 27.8889 11.1111 27.4909 11.1111 27Z" fill="#6D778C"/>
<path fill-rule="evenodd" clip-rule="evenodd" d="M11.1111 27C11.1111 26.5091 11.5091 26.1111 12 26.1111H28C28.4909 26.1111 28.8889 26.5091 28.8889 27C28.8889 27.4909 28.4909 27.8889 28 27.8889H12C11.5091 27.8889 11.1111 27.4909 11.1111 27Z" fill="#F6F8F9" fill-opacity="0.8"/>
<path fill-rule="evenodd" clip-rule="evenodd" d="M11.1111 30C11.1111 29.5091 11.5091 29.1111 12 29.1111H28C28.4909 29.1111 28.8889 29.5091 28.8889 30C28.8889 30.4909 28.4909 30.8889 28 30.8889H12C11.5091 30.8889 11.1111 30.4909 11.1111 30Z" fill="#6D778C"/>
<path fill-rule="evenodd" clip-rule="evenodd" d="M11.1111 30C11.1111 29.5091 11.5091 29.1111 12 29.1111H28C28.4909 29.1111 28.8889 29.5091 28.8889 30C28.8889 30.4909 28.4909 30.8889 28 30.8889H12C11.5091 30.8889 11.1111 30.4909 11.1111 30Z" fill="#F6F8F9" fill-opacity="0.8"/>
<rect x="4" y="18" width="16" height="16" rx="4" fill="#6D778C"/>
<path d="M5.9561 28.5C5.84565 28.5 5.7561 28.4105 5.7561 28.3V23.5609C5.7561 23.4504 5.84565 23.3609 5.9561 23.3609H7.45201C8.58261 23.3609 9.27272 23.9409 9.27272 24.8953C9.27272 25.8423 8.58261 26.4223 7.45201 26.4223H6.89861C6.84338 26.4223 6.79861 26.4671 6.79861 26.5223V28.3C6.79861 28.4105 6.70907 28.5 6.59861 28.5H5.9561ZM7.49606 24.2272H6.89861C6.84338 24.2272 6.79861 24.272 6.79861 24.3272V25.456C6.79861 25.5113 6.84338 25.556 6.89861 25.556H7.49606C7.93655 25.556 8.20085 25.2991 8.20085 24.8806C8.20085 24.4915 7.93655 24.2272 7.49606 24.2272Z" fill="#F6F8F9" fill-opacity="0.95"/>
<path d="M10.1881 28.5C10.0777 28.5 9.98812 28.4105 9.98812 28.3V23.5609C9.98812 23.4504 10.0777 23.3609 10.1881 23.3609H12.0071C13.6369 23.3609 14.7381 24.5429 14.7381 25.9304C14.7381 27.318 13.6369 28.5 12.0071 28.5H10.1881ZM12.0217 24.308H11.1306C11.0754 24.308 11.0306 24.3527 11.0306 24.408V27.4529C11.0306 27.5082 11.0754 27.5529 11.1306 27.5529H12.0217C12.9761 27.5529 13.6663 26.8408 13.6663 25.9304C13.6663 25.0127 12.9761 24.308 12.0217 24.308Z" fill="#F6F8F9" fill-opacity="0.95"/>
<path d="M15.7967 28.5C15.6862 28.5 15.5967 28.4105 15.5967 28.3V23.5609C15.5967 23.4504 15.6862 23.3609 15.7967 23.3609H18.3921C18.5025 23.3609 18.5921 23.4504 18.5921 23.5609V24.0272C18.5921 24.1377 18.5025 24.2272 18.3921 24.2272H16.7392C16.684 24.2272 16.6392 24.272 16.6392 24.3272V25.3459C16.6392 25.4011 16.684 25.4459 16.7392 25.4459H18.0984C18.2088 25.4459 18.2984 25.5354 18.2984 25.6459V26.1122C18.2984 26.2227 18.2088 26.3122 18.0984 26.3122H16.7392C16.684 26.3122 16.6392 26.357 16.6392 26.4122V28.3C16.6392 28.4105 16.5497 28.5 16.4392 28.5H15.7967Z" fill="#F6F8F9" fill-opacity="0.95"/>
</g>
<defs>
<filter id="filter0_d_2456_1539" x="0" y="0" width="40" height="40" filterUnits="userSpaceOnUse" color-interpolation-filters="sRGB">
<feFlood flood-opacity="0" result="BackgroundImageFix"/>
<feColorMatrix in="SourceAlpha" type="matrix" values="0 0 0 0 0 0 0 0 0 0 0 0 0 0 0 0 0 0 127 0" result="hardAlpha"/>
<feOffset dy="2"/>
<feGaussianBlur stdDeviation="2"/>
<feComposite in2="hardAlpha" operator="out"/>
<feColorMatrix type="matrix" values="0 0 0 0 0.0941176 0 0 0 0 0.105882 0 0 0 0 0.141176 0 0 0 0.05 0"/>
<feBlend mode="normal" in2="BackgroundImageFix" result="effect1_dropShadow_2456_1539"/>
<feBlend mode="normal" in="SourceGraphic" in2="effect1_dropShadow_2456_1539" result="shape"/>
</filter>
</defs>
</svg>
