<svg width="16" height="16" viewBox="0 0 16 16" fill="none" xmlns="http://www.w3.org/2000/svg">
<rect width="16" height="16" rx="4" fill="#00894D"/>
<rect width="16" height="16" rx="4" fill="white" fill-opacity="0.1"/>
<path fill-rule="evenodd" clip-rule="evenodd" d="M2.69873 6.66644C2.69873 6.54887 2.79403 6.45357 2.9116 6.45357H4.35906C5.12515 6.45357 5.74715 7.13778 5.74715 7.98047V9.28912C5.74715 9.40669 5.65184 9.50199 5.53428 9.50199H4.07379C3.31481 9.50199 2.69873 8.82425 2.69873 7.98939V6.66644Z" fill="white" fill-opacity="0.95"/>
<path fill-rule="evenodd" clip-rule="evenodd" d="M2.69873 10.3922C2.69873 10.2747 2.79403 10.1794 2.9116 10.1794H4.35906C5.12515 10.1794 5.74715 10.8636 5.74715 11.7063V13.0149C5.74715 13.1325 5.65184 13.2278 5.53428 13.2278H4.07379C3.31481 13.2278 2.69873 12.55 2.69873 11.7153V10.3922Z" fill="white" fill-opacity="0.95"/>
<path fill-rule="evenodd" clip-rule="evenodd" d="M13.5376 2.94065C13.5376 2.82309 13.4423 2.72778 13.3248 2.72778H11.8773C11.1112 2.72778 10.4892 3.4119 10.4892 4.25468V5.56333C10.4892 5.6809 10.5845 5.7762 10.7021 5.7762H12.1627C12.9216 5.7762 13.5376 5.09837 13.5376 4.2636V2.94065Z" fill="white" fill-opacity="0.95"/>
<path fill-rule="evenodd" clip-rule="evenodd" d="M6.76334 2.94065C6.76334 2.82309 6.85865 2.72778 6.97621 2.72778H8.42368C9.18976 2.72778 9.81176 3.4119 9.81176 4.25468V5.56333C9.81176 5.6809 9.71646 5.7762 9.5989 5.7762H8.13841C7.37942 5.7762 6.76334 5.09837 6.76334 4.2636V2.94065Z" fill="white" fill-opacity="0.95"/>
<path fill-rule="evenodd" clip-rule="evenodd" d="M6.76334 6.66644C6.76334 6.54887 6.85865 6.45357 6.97621 6.45357H8.42368C9.18976 6.45357 9.81176 7.13778 9.81176 7.98047V9.28912C9.81176 9.40669 9.71646 9.50199 9.5989 9.50199H8.13841C7.37942 9.50199 6.76334 8.82425 6.76334 7.98939V6.66644Z" fill="white" fill-opacity="0.95"/>
<path fill-rule="evenodd" clip-rule="evenodd" d="M13.5376 6.66644C13.5376 6.54887 13.4423 6.45357 13.3248 6.45357H11.8773C11.1112 6.45357 10.4892 7.13778 10.4892 7.98047V9.28912C10.4892 9.40669 10.5845 9.50199 10.7021 9.50199H12.1627C12.9216 9.50199 13.5376 8.82425 13.5376 7.98939V6.66644Z" fill="white" fill-opacity="0.95"/>
<path fill-rule="evenodd" clip-rule="evenodd" d="M6.76334 10.3922C6.76334 10.2747 6.85865 10.1794 6.97621 10.1794H8.42368C9.18976 10.1794 9.81176 10.8636 9.81176 11.7063V13.0149C9.81176 13.1325 9.71646 13.2278 9.5989 13.2278H8.13841C7.37942 13.2278 6.76334 12.55 6.76334 11.7153V10.3922Z" fill="white" fill-opacity="0.95"/>
<path fill-rule="evenodd" clip-rule="evenodd" d="M13.5376 10.3922C13.5376 10.2747 13.4423 10.1794 13.3248 10.1794H11.8773C11.1112 10.1794 10.4892 10.8636 10.4892 11.7063V13.0149C10.4892 13.1325 10.5845 13.2278 10.7021 13.2278H12.1627C12.9216 13.2278 13.5376 12.55 13.5376 11.7153V10.3922Z" fill="white" fill-opacity="0.95"/>
</svg>
