<svg width="36" height="33" viewBox="0 0 36 33" fill="none" xmlns="http://www.w3.org/2000/svg">
<g filter="url(#filter0_d_3239_3314)">
<rect x="4.85" y="4.85" width="26.3" height="21.3" rx="3.42778" fill="#6D778C"/>
<rect x="4.85" y="4.85" width="26.3" height="21.3" rx="3.42778" fill="#F6F8F9" fill-opacity="0.975"/>
<rect x="4.85" y="4.85" width="26.3" height="21.3" rx="3.42778" stroke="#6D778C" stroke-width="0.7"/>
<rect x="4.85" y="4.85" width="26.3" height="21.3" rx="3.42778" stroke="#F6F8F9" stroke-opacity="0.8" stroke-width="0.7"/>
<path d="M14.8394 8.48884C15.3043 8.48884 15.681 8.86569 15.6812 9.33064V21.647C15.681 22.112 15.3043 22.4888 14.8394 22.4888C14.3744 22.4888 13.9977 22.1119 13.9976 21.647V9.33064C13.9977 8.86575 14.3744 8.48892 14.8394 8.48884ZM21.0503 10.3834C21.5153 10.3835 21.8921 10.7611 21.8921 11.2261V19.7515C21.8921 20.2166 21.5153 20.5942 21.0503 20.5943C20.5852 20.5943 20.2085 20.2166 20.2085 19.7515V11.2261C20.2085 10.7611 20.5852 10.3834 21.0503 10.3834ZM17.9448 12.2779C18.4099 12.2779 18.7866 12.6556 18.7866 13.1207V17.857C18.7866 18.3221 18.4099 18.6998 17.9448 18.6998C17.4797 18.6998 17.103 18.3221 17.103 17.857V13.1207C17.103 12.6556 17.4797 12.2779 17.9448 12.2779ZM11.7339 13.2261C12.199 13.2261 12.5767 13.6029 12.5767 14.0679V16.9097C12.5767 17.3748 12.199 17.7515 11.7339 17.7515C11.2689 17.7514 10.8921 17.3747 10.8921 16.9097V14.0679C10.8921 13.603 11.2689 13.2263 11.7339 13.2261ZM24.1558 14.1734C24.6207 14.1736 24.9976 14.5502 24.9976 15.0152V15.9625C24.9976 16.4274 24.6207 16.8041 24.1558 16.8043C23.6907 16.8043 23.313 16.4276 23.313 15.9625V15.0152C23.313 14.5501 23.6907 14.1734 24.1558 14.1734Z" fill="#E32C39"/>
<path d="M14.8394 8.48884C15.3043 8.48884 15.681 8.86569 15.6812 9.33064V21.647C15.681 22.112 15.3043 22.4888 14.8394 22.4888C14.3744 22.4888 13.9977 22.1119 13.9976 21.647V9.33064C13.9977 8.86575 14.3744 8.48892 14.8394 8.48884ZM21.0503 10.3834C21.5153 10.3835 21.8921 10.7611 21.8921 11.2261V19.7515C21.8921 20.2166 21.5153 20.5942 21.0503 20.5943C20.5852 20.5943 20.2085 20.2166 20.2085 19.7515V11.2261C20.2085 10.7611 20.5852 10.3834 21.0503 10.3834ZM17.9448 12.2779C18.4099 12.2779 18.7866 12.6556 18.7866 13.1207V17.857C18.7866 18.3221 18.4099 18.6998 17.9448 18.6998C17.4797 18.6998 17.103 18.3221 17.103 17.857V13.1207C17.103 12.6556 17.4797 12.2779 17.9448 12.2779ZM11.7339 13.2261C12.199 13.2261 12.5767 13.6029 12.5767 14.0679V16.9097C12.5767 17.3748 12.199 17.7515 11.7339 17.7515C11.2689 17.7514 10.8921 17.3747 10.8921 16.9097V14.0679C10.8921 13.603 11.2689 13.2263 11.7339 13.2261ZM24.1558 14.1734C24.6207 14.1736 24.9976 14.5502 24.9976 15.0152V15.9625C24.9976 16.4274 24.6207 16.8041 24.1558 16.8043C23.6907 16.8043 23.313 16.4276 23.313 15.9625V15.0152C23.313 14.5501 23.6907 14.1734 24.1558 14.1734Z" fill="#F6F8F9" fill-opacity="0.45"/>
</g>
<defs>
<filter id="filter0_d_3239_3314" x="-2" y="-2" width="40" height="40" filterUnits="userSpaceOnUse" color-interpolation-filters="sRGB">
<feFlood flood-opacity="0" result="BackgroundImageFix"/>
<feColorMatrix in="SourceAlpha" type="matrix" values="0 0 0 0 0 0 0 0 0 0 0 0 0 0 0 0 0 0 127 0" result="hardAlpha"/>
<feOffset dy="2"/>
<feGaussianBlur stdDeviation="2"/>
<feComposite in2="hardAlpha" operator="out"/>
<feColorMatrix type="matrix" values="0 0 0 0 0.0941176 0 0 0 0 0.105882 0 0 0 0 0.141176 0 0 0 0.05 0"/>
<feBlend mode="normal" in2="BackgroundImageFix" result="effect1_dropShadow_3239_3314"/>
<feBlend mode="normal" in="SourceGraphic" in2="effect1_dropShadow_3239_3314" result="shape"/>
</filter>
</defs>
</svg>
