<svg width="36" height="40" viewBox="0 0 36 40" fill="none" xmlns="http://www.w3.org/2000/svg">
<g filter="url(#filter0_d_2456_1496)">
<rect x="8.35" y="2.35" width="23.3" height="31.3" rx="3.20556" fill="white"/>
<rect x="8.35" y="2.35" width="23.3" height="31.3" rx="3.20556" stroke="#3677CC" stroke-width="0.7"/>
<rect x="8.35" y="2.35" width="23.3" height="31.3" rx="3.20556" stroke="#F6F8F9" stroke-opacity="0.8" stroke-width="0.7"/>
<path fill-rule="evenodd" clip-rule="evenodd" d="M11.5837 9.2623C11.5837 8.77138 11.9817 8.37341 12.4726 8.37341H20.4726C20.9635 8.37341 21.3615 8.77138 21.3615 9.2623C21.3615 9.75322 20.9635 10.1512 20.4726 10.1512H12.4726C11.9817 10.1512 11.5837 9.75322 11.5837 9.2623Z" fill="#3677CC"/>
<path fill-rule="evenodd" clip-rule="evenodd" d="M11.5837 9.2623C11.5837 8.77138 11.9817 8.37341 12.4726 8.37341H20.4726C20.9635 8.37341 21.3615 8.77138 21.3615 9.2623C21.3615 9.75322 20.9635 10.1512 20.4726 10.1512H12.4726C11.9817 10.1512 11.5837 9.75322 11.5837 9.2623Z" fill="#F6F8F9" fill-opacity="0.15"/>
<path fill-rule="evenodd" clip-rule="evenodd" d="M11.5837 12.2685C11.5837 11.7776 11.9817 11.3796 12.4726 11.3796H27.5273C28.0182 11.3796 28.4162 11.7776 28.4162 12.2685C28.4162 12.7594 28.0182 13.1574 27.5273 13.1574H12.4726C11.9817 13.1574 11.5837 12.7594 11.5837 12.2685ZM11.5837 14.9352C11.5837 14.4443 11.9817 14.0463 12.4726 14.0463H27.5273C28.0182 14.0463 28.4162 14.4443 28.4162 14.9352C28.4162 15.4261 28.0182 15.8241 27.5273 15.8241H12.4726C11.9817 15.8241 11.5837 15.4261 11.5837 14.9352ZM11.5837 17.6019C11.5837 17.1109 11.9817 16.713 12.4726 16.713H27.5273C28.0182 16.713 28.4162 17.1109 28.4162 17.6019C28.4162 18.0928 28.0182 18.4907 27.5273 18.4907H12.4726C11.9817 18.4907 11.5837 18.0928 11.5837 17.6019ZM11.5837 20.2685C11.5837 19.7776 11.9817 19.3796 12.4726 19.3796H27.5273C28.0182 19.3796 28.4162 19.7776 28.4162 20.2685C28.4162 20.7594 28.0182 21.1574 27.5273 21.1574H12.4726C11.9817 21.1574 11.5837 20.7594 11.5837 20.2685Z" fill="#3677CC"/>
<path fill-rule="evenodd" clip-rule="evenodd" d="M11.5837 12.2685C11.5837 11.7776 11.9817 11.3796 12.4726 11.3796H27.5273C28.0182 11.3796 28.4162 11.7776 28.4162 12.2685C28.4162 12.7594 28.0182 13.1574 27.5273 13.1574H12.4726C11.9817 13.1574 11.5837 12.7594 11.5837 12.2685ZM11.5837 14.9352C11.5837 14.4443 11.9817 14.0463 12.4726 14.0463H27.5273C28.0182 14.0463 28.4162 14.4443 28.4162 14.9352C28.4162 15.4261 28.0182 15.8241 27.5273 15.8241H12.4726C11.9817 15.8241 11.5837 15.4261 11.5837 14.9352ZM11.5837 17.6019C11.5837 17.1109 11.9817 16.713 12.4726 16.713H27.5273C28.0182 16.713 28.4162 17.1109 28.4162 17.6019C28.4162 18.0928 28.0182 18.4907 27.5273 18.4907H12.4726C11.9817 18.4907 11.5837 18.0928 11.5837 17.6019ZM11.5837 20.2685C11.5837 19.7776 11.9817 19.3796 12.4726 19.3796H27.5273C28.0182 19.3796 28.4162 19.7776 28.4162 20.2685C28.4162 20.7594 28.0182 21.1574 27.5273 21.1574H12.4726C11.9817 21.1574 11.5837 20.7594 11.5837 20.2685Z" fill="#F6F8F9" fill-opacity="0.8"/>
<path fill-rule="evenodd" clip-rule="evenodd" d="M11.5837 22.9666C11.5837 22.4757 11.9817 22.0777 12.4726 22.0777H27.5273C28.0182 22.0777 28.4162 22.4757 28.4162 22.9666C28.4162 23.4575 28.0182 23.8555 27.5273 23.8555H12.4726C11.9817 23.8555 11.5837 23.4575 11.5837 22.9666ZM11.5837 25.6333C11.5837 25.1424 11.9817 24.7444 12.4726 24.7444H27.5273C28.0182 24.7444 28.4162 25.1424 28.4162 25.6333C28.4162 26.1242 28.0182 26.5222 27.5273 26.5222H12.4726C11.9817 26.5222 11.5837 26.1242 11.5837 25.6333ZM11.5837 28.3C11.5837 27.809 11.9817 27.4111 12.4726 27.4111H27.5273C28.0182 27.4111 28.4162 27.809 28.4162 28.3C28.4162 28.7909 28.0182 29.1888 27.5273 29.1888H12.4726C11.9817 29.1888 11.5837 28.7909 11.5837 28.3ZM11.5837 30.9666C11.5837 30.4757 11.9817 30.0777 12.4726 30.0777H27.5273C28.0182 30.0777 28.4162 30.4757 28.4162 30.9666C28.4162 31.4575 28.0182 31.8555 27.5273 31.8555H12.4726C11.9817 31.8555 11.5837 31.4575 11.5837 30.9666Z" fill="#3677CC"/>
<path fill-rule="evenodd" clip-rule="evenodd" d="M11.5837 22.9666C11.5837 22.4757 11.9817 22.0777 12.4726 22.0777H27.5273C28.0182 22.0777 28.4162 22.4757 28.4162 22.9666C28.4162 23.4575 28.0182 23.8555 27.5273 23.8555H12.4726C11.9817 23.8555 11.5837 23.4575 11.5837 22.9666ZM11.5837 25.6333C11.5837 25.1424 11.9817 24.7444 12.4726 24.7444H27.5273C28.0182 24.7444 28.4162 25.1424 28.4162 25.6333C28.4162 26.1242 28.0182 26.5222 27.5273 26.5222H12.4726C11.9817 26.5222 11.5837 26.1242 11.5837 25.6333ZM11.5837 28.3C11.5837 27.809 11.9817 27.4111 12.4726 27.4111H27.5273C28.0182 27.4111 28.4162 27.809 28.4162 28.3C28.4162 28.7909 28.0182 29.1888 27.5273 29.1888H12.4726C11.9817 29.1888 11.5837 28.7909 11.5837 28.3ZM11.5837 30.9666C11.5837 30.4757 11.9817 30.0777 12.4726 30.0777H27.5273C28.0182 30.0777 28.4162 30.4757 28.4162 30.9666C28.4162 31.4575 28.0182 31.8555 27.5273 31.8555H12.4726C11.9817 31.8555 11.5837 31.4575 11.5837 30.9666Z" fill="#F6F8F9" fill-opacity="0.8"/>
<rect x="4" y="18" width="16" height="16" rx="4" fill="#3677CC"/>
<path d="M14.1114 30.8117C14.5494 30.6889 14.9687 30.4648 15.2439 30.0688C15.5156 29.6811 15.5921 29.1892 15.5921 28.7159V21.7816C15.5921 21.6588 15.5854 21.5358 15.5706 21.4143C15.7881 21.4999 15.9557 21.6412 16.0735 21.8384C16.2124 22.0626 16.2819 22.3578 16.2819 22.7241V29.7674C16.2819 30.2632 16.1603 30.6342 15.9172 30.8805C15.674 31.1268 15.3077 31.2499 14.8183 31.2499H12.1578C12.2209 31.2389 12.284 31.2275 12.3473 31.2159C12.9025 31.1167 13.4892 30.982 14.107 30.813L14.1114 30.8117Z" fill="#F6F8F9" fill-opacity="0.95"/>
<path fill-rule="evenodd" clip-rule="evenodd" d="M7.71826 29.6206V22.5679C7.71826 22.1384 7.83352 21.8132 8.06403 21.5922C8.2977 21.3711 8.60716 21.2495 8.9924 21.2274C9.56078 21.1927 10.0992 21.1453 10.6076 21.0853C11.116 21.0222 11.6022 20.9496 12.0664 20.8675C12.5338 20.7854 12.9885 20.6938 13.4306 20.5927C13.8853 20.4854 14.2342 20.5391 14.4773 20.7538C14.7205 20.9685 14.842 21.3111 14.842 21.7816V28.7159C14.842 29.1296 14.771 29.4375 14.6289 29.6396C14.4868 29.8448 14.2468 29.9948 13.9089 30.0895C13.309 30.2537 12.7438 30.3832 12.2133 30.4779C11.6828 30.5758 11.1649 30.65 10.6597 30.7006C10.1544 30.7511 9.63657 30.7906 9.10607 30.819C8.66715 30.8442 8.32612 30.7527 8.08298 30.5443C7.83983 30.339 7.71826 30.0311 7.71826 29.6206ZM9.45324 23.8484C10.1488 23.8041 10.7862 23.7361 11.3653 23.6444C11.5058 23.6215 11.6461 23.5976 11.7859 23.5728C11.9322 23.5469 12.038 23.4195 12.038 23.2713C12.038 23.0793 11.8643 22.9348 11.6756 22.967C11.5673 22.9854 11.4583 23.0034 11.3488 23.0209C10.7755 23.1122 10.1419 23.18 9.44821 23.2241C9.34432 23.2308 9.26166 23.2632 9.20853 23.3277C9.15829 23.3887 9.13367 23.4621 9.13367 23.5458C9.13367 23.6308 9.16236 23.7048 9.21963 23.7657L9.22044 23.7665C9.28251 23.8285 9.36138 23.8554 9.45324 23.8484ZM9.45301 25.421C10.1487 25.3767 10.7861 25.3087 11.3653 25.2169C11.947 25.1221 12.5226 25.0114 13.0917 24.885C13.2072 24.8593 13.2937 24.8189 13.337 24.7561C13.3795 24.6958 13.4005 24.6266 13.4005 24.5499C13.4005 24.4635 13.3676 24.389 13.3035 24.3285C13.2345 24.2633 13.1381 24.2481 13.0239 24.2716L13.0232 24.2718C12.4809 24.3948 11.9228 24.502 11.3488 24.5934C10.7755 24.6848 10.1419 24.7526 9.44821 24.7967C9.34432 24.8034 9.26166 24.8358 9.20853 24.9003C9.15853 24.961 9.13367 25.0327 9.13367 25.1136C9.13367 25.2014 9.16203 25.2771 9.21959 25.3383L9.22125 25.3398C9.28312 25.3981 9.36118 25.4246 9.45207 25.4211L9.45301 25.421ZM9.45317 26.9935C10.1488 26.9461 10.7862 26.8765 11.3653 26.7848C11.9471 26.6931 12.5225 26.584 13.0917 26.4575C13.2075 26.4318 13.294 26.3897 13.3372 26.3235C13.3794 26.2636 13.4005 26.1962 13.4005 26.1225C13.4005 26.036 13.3676 25.9615 13.3035 25.901C13.2345 25.8359 13.1381 25.8207 13.0239 25.8442L13.0234 25.8443C12.481 25.9641 11.9228 26.0698 11.3488 26.1612C10.7754 26.2526 10.1419 26.322 9.44811 26.3693C9.34426 26.376 9.26164 26.4083 9.20853 26.4728C9.15853 26.5335 9.13367 26.6052 9.13367 26.6861C9.13367 26.7739 9.16203 26.8497 9.21959 26.9108L9.22125 26.9124C9.28312 26.9706 9.36118 26.9971 9.45207 26.9936L9.45317 26.9935ZM11.3653 28.3464C10.7862 28.4382 10.1488 28.5062 9.45325 28.5504C9.36139 28.5574 9.28251 28.5306 9.22044 28.4685L9.21964 28.4677C9.16237 28.4068 9.13367 28.3328 9.13367 28.2478C9.13367 28.1641 9.15829 28.0908 9.20853 28.0297C9.26166 27.9652 9.34435 27.9329 9.44824 27.9262C10.142 27.882 10.7755 27.8142 11.3488 27.7229C11.4583 27.7054 11.5673 27.6875 11.6756 27.669C11.8643 27.6368 12.038 27.7813 12.038 27.9733C12.038 28.1215 11.9322 28.249 11.7859 28.2749C11.6461 28.2996 11.5058 28.3235 11.3653 28.3464Z" fill="#F6F8F9" fill-opacity="0.95"/>
</g>
<defs>
<filter id="filter0_d_2456_1496" x="0" y="0" width="40" height="40" filterUnits="userSpaceOnUse" color-interpolation-filters="sRGB">
<feFlood flood-opacity="0" result="BackgroundImageFix"/>
<feColorMatrix in="SourceAlpha" type="matrix" values="0 0 0 0 0 0 0 0 0 0 0 0 0 0 0 0 0 0 127 0" result="hardAlpha"/>
<feOffset dy="2"/>
<feGaussianBlur stdDeviation="2"/>
<feComposite in2="hardAlpha" operator="out"/>
<feColorMatrix type="matrix" values="0 0 0 0 0.0941176 0 0 0 0 0.105882 0 0 0 0 0.141176 0 0 0 0.05 0"/>
<feBlend mode="normal" in2="BackgroundImageFix" result="effect1_dropShadow_2456_1496"/>
<feBlend mode="normal" in="SourceGraphic" in2="effect1_dropShadow_2456_1496" result="shape"/>
</filter>
</defs>
</svg>
