<svg width="36" height="34" viewBox="0 0 36 34" fill="none" xmlns="http://www.w3.org/2000/svg">
<g filter="url(#filter0_d_2456_1520)">
<rect x="4.85" y="5.85" width="26.3" height="21.3" rx="3.42778" fill="#6D778C"/>
<rect x="4.85" y="5.85" width="26.3" height="21.3" rx="3.42778" fill="#F6F8F9" fill-opacity="0.975"/>
<rect x="4.85" y="5.85" width="26.3" height="21.3" rx="3.42778" stroke="#6D778C" stroke-width="0.7"/>
<rect x="4.85" y="5.85" width="26.3" height="21.3" rx="3.42778" stroke="#F6F8F9" stroke-opacity="0.8" stroke-width="0.7"/>
<path d="M13.1501 13.8098C13.548 14.0383 13.9865 14.1525 14.4655 14.1525C14.9446 14.1525 15.3794 14.0383 15.77 13.8098C16.1606 13.574 16.4738 13.2571 16.7096 12.8591C16.9454 12.4612 17.0633 12.0227 17.0633 11.5437C17.0633 11.072 16.9454 10.6372 16.7096 10.2392C16.4738 9.84128 16.1606 9.52439 15.77 9.28856C15.3794 9.05273 14.9446 8.93481 14.4655 8.93481C13.9865 8.93481 13.548 9.05273 13.1501 9.28856C12.7595 9.52439 12.4463 9.84128 12.2104 10.2392C11.9746 10.6372 11.8567 11.072 11.8567 11.5437C11.8567 12.0227 11.9746 12.4612 12.2104 12.8591C12.4463 13.2571 12.7595 13.574 13.1501 13.8098Z" fill="#9B6F02"/>
<path d="M13.1501 13.8098C13.548 14.0383 13.9865 14.1525 14.4655 14.1525C14.9446 14.1525 15.3794 14.0383 15.77 13.8098C16.1606 13.574 16.4738 13.2571 16.7096 12.8591C16.9454 12.4612 17.0633 12.0227 17.0633 11.5437C17.0633 11.072 16.9454 10.6372 16.7096 10.2392C16.4738 9.84128 16.1606 9.52439 15.77 9.28856C15.3794 9.05273 14.9446 8.93481 14.4655 8.93481C13.9865 8.93481 13.548 9.05273 13.1501 9.28856C12.7595 9.52439 12.4463 9.84128 12.2104 10.2392C11.9746 10.6372 11.8567 11.072 11.8567 11.5437C11.8567 12.0227 11.9746 12.4612 12.2104 12.8591C12.4463 13.2571 12.7595 13.574 13.1501 13.8098Z" fill="#F6F8F9" fill-opacity="0.15"/>
<path d="M10.9691 18.1188C11.4882 17.3845 11.7478 17.0174 12.0663 16.8862C12.3452 16.7713 12.6548 16.7713 12.9338 16.8862C13.2522 17.0174 13.5118 17.3845 14.0309 18.1188L15.9066 20.7717C16.6415 21.8111 17.0089 22.3308 16.9998 22.7657C16.9919 23.1441 16.8237 23.4989 16.5416 23.7321C16.2173 24.0001 15.6035 24.0001 14.3757 24.0001H10.6243C9.39655 24.0001 8.78266 24.0001 8.45844 23.7321C8.17628 23.4989 8.00807 23.1441 8.00016 22.7657C7.99108 22.3308 8.35852 21.8111 9.09338 20.7717L10.9691 18.1188Z" fill="#5A8228"/>
<path d="M10.9691 18.1188C11.4882 17.3845 11.7478 17.0174 12.0663 16.8862C12.3452 16.7713 12.6548 16.7713 12.9338 16.8862C13.2522 17.0174 13.5118 17.3845 14.0309 18.1188L15.9066 20.7717C16.6415 21.8111 17.0089 22.3308 16.9998 22.7657C16.9919 23.1441 16.8237 23.4989 16.5416 23.7321C16.2173 24.0001 15.6035 24.0001 14.3757 24.0001H10.6243C9.39655 24.0001 8.78266 24.0001 8.45844 23.7321C8.17628 23.4989 8.00807 23.1441 8.00016 22.7657C7.99108 22.3308 8.35852 21.8111 9.09338 20.7717L10.9691 18.1188Z" fill="#F6F8F9" fill-opacity="0.55"/>
<path d="M19.2241 13.6237C19.7696 12.713 20.0424 12.2577 20.3925 12.102C20.6982 11.966 21.0447 11.966 21.3504 12.102C21.7005 12.2577 21.9733 12.713 22.5188 13.6237L26.9064 20.9476C27.5036 21.9446 27.8022 22.443 27.7689 22.8541C27.7399 23.2124 27.5629 23.5405 27.283 23.7545C26.962 24 26.3943 24 25.259 24H16.4839C15.3486 24 14.7809 24 14.4599 23.7545C14.18 23.5405 14.003 23.2124 13.9739 22.8541C13.9406 22.443 14.2393 21.9446 14.8365 20.9476L19.2241 13.6237Z" fill="#5A8228"/>
</g>
<defs>
<filter id="filter0_d_2456_1520" x="-2" y="-2" width="40" height="40" filterUnits="userSpaceOnUse" color-interpolation-filters="sRGB">
<feFlood flood-opacity="0" result="BackgroundImageFix"/>
<feColorMatrix in="SourceAlpha" type="matrix" values="0 0 0 0 0 0 0 0 0 0 0 0 0 0 0 0 0 0 127 0" result="hardAlpha"/>
<feOffset dy="2"/>
<feGaussianBlur stdDeviation="2"/>
<feComposite in2="hardAlpha" operator="out"/>
<feColorMatrix type="matrix" values="0 0 0 0 0.0941176 0 0 0 0 0.105882 0 0 0 0 0.141176 0 0 0 0.05 0"/>
<feBlend mode="normal" in2="BackgroundImageFix" result="effect1_dropShadow_2456_1520"/>
<feBlend mode="normal" in="SourceGraphic" in2="effect1_dropShadow_2456_1520" result="shape"/>
</filter>
</defs>
</svg>
