<svg width="35" height="33" viewBox="0 0 35 33" fill="none" xmlns="http://www.w3.org/2000/svg">
<g filter="url(#filter0_d_3239_3207)">
<rect x="4.35" y="5.35" width="26.3" height="21.3" rx="3.42778" fill="#6D778C"/>
<rect x="4.35" y="5.35" width="26.3" height="21.3" rx="3.42778" fill="#F6F8F9" fill-opacity="0.975"/>
<rect x="4.35" y="5.35" width="26.3" height="21.3" rx="3.42778" stroke="#6D778C" stroke-width="0.7"/>
<rect x="4.35" y="5.35" width="26.3" height="21.3" rx="3.42778" stroke="#F6F8F9" stroke-opacity="0.8" stroke-width="0.7"/>
<path d="M14.7864 18.7658V13.2304C14.7864 12.987 14.8511 12.8043 14.9804 12.6826C15.1097 12.5609 15.2645 12.5 15.4445 12.5C15.6018 12.5 15.7565 12.5431 15.9087 12.6293L20.5119 15.3152C20.6869 15.4167 20.8175 15.5194 20.9038 15.6234C20.99 15.7248 21.0331 15.8504 21.0331 16C21.0331 16.1446 20.99 16.2701 20.9038 16.3766C20.8175 16.4806 20.6869 16.5821 20.5119 16.681L15.9087 19.3668C15.7565 19.4556 15.6018 19.5 15.4445 19.5C15.2645 19.5 15.1097 19.4379 14.9804 19.3136C14.8511 19.1918 14.7864 19.0092 14.7864 18.7658Z" fill="#3A7EA0"/>
<path d="M14.7864 18.7658V13.2304C14.7864 12.987 14.8511 12.8043 14.9804 12.6826C15.1097 12.5609 15.2645 12.5 15.4445 12.5C15.6018 12.5 15.7565 12.5431 15.9087 12.6293L20.5119 15.3152C20.6869 15.4167 20.8175 15.5194 20.9038 15.6234C20.99 15.7248 21.0331 15.8504 21.0331 16C21.0331 16.1446 20.99 16.2701 20.9038 16.3766C20.8175 16.4806 20.6869 16.5821 20.5119 16.681L15.9087 19.3668C15.7565 19.4556 15.6018 19.5 15.4445 19.5C15.2645 19.5 15.1097 19.4379 14.9804 19.3136C14.8511 19.1918 14.7864 19.0092 14.7864 18.7658Z" fill="#F6F8F9" fill-opacity="0.15"/>
<path fill-rule="evenodd" clip-rule="evenodd" d="M6.5 8.36977C6.5 7.88941 6.88941 7.5 7.36977 7.5H9.21165C9.69201 7.5 10.0814 7.88941 10.0814 8.36977C10.0814 8.85014 9.69201 9.23955 9.21165 9.23955H7.36977C6.88941 9.23955 6.5 8.85014 6.5 8.36977Z" fill="#3A7EA0"/>
<path fill-rule="evenodd" clip-rule="evenodd" d="M6.5 8.36977C6.5 7.88941 6.88941 7.5 7.36977 7.5H9.21165C9.69201 7.5 10.0814 7.88941 10.0814 8.36977C10.0814 8.85014 9.69201 9.23955 9.21165 9.23955H7.36977C6.88941 9.23955 6.5 8.85014 6.5 8.36977Z" fill="#F6F8F9" fill-opacity="0.65"/>
<path fill-rule="evenodd" clip-rule="evenodd" d="M11.1045 8.36977C11.1045 7.88941 11.4939 7.5 11.9743 7.5H13.8161C14.2965 7.5 14.6859 7.88941 14.6859 8.36977C14.6859 8.85014 14.2965 9.23955 13.8161 9.23955H11.9743C11.4939 9.23955 11.1045 8.85014 11.1045 8.36977Z" fill="#3A7EA0"/>
<path fill-rule="evenodd" clip-rule="evenodd" d="M11.1045 8.36977C11.1045 7.88941 11.4939 7.5 11.9743 7.5H13.8161C14.2965 7.5 14.6859 7.88941 14.6859 8.36977C14.6859 8.85014 14.2965 9.23955 13.8161 9.23955H11.9743C11.4939 9.23955 11.1045 8.85014 11.1045 8.36977Z" fill="#F6F8F9" fill-opacity="0.65"/>
<path fill-rule="evenodd" clip-rule="evenodd" d="M15.7095 8.36977C15.7095 7.88941 16.0989 7.5 16.5792 7.5H18.4211C18.9015 7.5 19.2909 7.88941 19.2909 8.36977C19.2909 8.85014 18.9015 9.23955 18.4211 9.23955H16.5792C16.0989 9.23955 15.7095 8.85014 15.7095 8.36977Z" fill="#3A7EA0"/>
<path fill-rule="evenodd" clip-rule="evenodd" d="M15.7095 8.36977C15.7095 7.88941 16.0989 7.5 16.5792 7.5H18.4211C18.9015 7.5 19.2909 7.88941 19.2909 8.36977C19.2909 8.85014 18.9015 9.23955 18.4211 9.23955H16.5792C16.0989 9.23955 15.7095 8.85014 15.7095 8.36977Z" fill="#F6F8F9" fill-opacity="0.65"/>
<path fill-rule="evenodd" clip-rule="evenodd" d="M20.314 8.36977C20.314 7.88941 20.7034 7.5 21.1837 7.5H23.0256C23.506 7.5 23.8954 7.88941 23.8954 8.36977C23.8954 8.85014 23.506 9.23955 23.0256 9.23955H21.1837C20.7034 9.23955 20.314 8.85014 20.314 8.36977Z" fill="#3A7EA0"/>
<path fill-rule="evenodd" clip-rule="evenodd" d="M20.314 8.36977C20.314 7.88941 20.7034 7.5 21.1837 7.5H23.0256C23.506 7.5 23.8954 7.88941 23.8954 8.36977C23.8954 8.85014 23.506 9.23955 23.0256 9.23955H21.1837C20.7034 9.23955 20.314 8.85014 20.314 8.36977Z" fill="#F6F8F9" fill-opacity="0.65"/>
<path fill-rule="evenodd" clip-rule="evenodd" d="M24.9185 8.36977C24.9185 7.88941 25.3079 7.5 25.7882 7.5H27.6301C28.1105 7.5 28.4999 7.88941 28.4999 8.36977C28.4999 8.85014 28.1105 9.23955 27.6301 9.23955H25.7882C25.3079 9.23955 24.9185 8.85014 24.9185 8.36977Z" fill="#3A7EA0"/>
<path fill-rule="evenodd" clip-rule="evenodd" d="M24.9185 8.36977C24.9185 7.88941 25.3079 7.5 25.7882 7.5H27.6301C28.1105 7.5 28.4999 7.88941 28.4999 8.36977C28.4999 8.85014 28.1105 9.23955 27.6301 9.23955H25.7882C25.3079 9.23955 24.9185 8.85014 24.9185 8.36977Z" fill="#F6F8F9" fill-opacity="0.65"/>
<path fill-rule="evenodd" clip-rule="evenodd" d="M6.5 23.6298C6.5 23.1494 6.88941 22.76 7.36977 22.76H9.21165C9.69201 22.76 10.0814 23.1494 10.0814 23.6298C10.0814 24.1101 9.69201 24.4996 9.21165 24.4996H7.36977C6.88941 24.4996 6.5 24.1101 6.5 23.6298Z" fill="#3A7EA0"/>
<path fill-rule="evenodd" clip-rule="evenodd" d="M6.5 23.6298C6.5 23.1494 6.88941 22.76 7.36977 22.76H9.21165C9.69201 22.76 10.0814 23.1494 10.0814 23.6298C10.0814 24.1101 9.69201 24.4996 9.21165 24.4996H7.36977C6.88941 24.4996 6.5 24.1101 6.5 23.6298Z" fill="#F6F8F9" fill-opacity="0.65"/>
<path fill-rule="evenodd" clip-rule="evenodd" d="M11.1045 23.6298C11.1045 23.1494 11.4939 22.76 11.9743 22.76H13.8161C14.2965 22.76 14.6859 23.1494 14.6859 23.6298C14.6859 24.1101 14.2965 24.4996 13.8161 24.4996H11.9743C11.4939 24.4996 11.1045 24.1101 11.1045 23.6298Z" fill="#3A7EA0"/>
<path fill-rule="evenodd" clip-rule="evenodd" d="M11.1045 23.6298C11.1045 23.1494 11.4939 22.76 11.9743 22.76H13.8161C14.2965 22.76 14.6859 23.1494 14.6859 23.6298C14.6859 24.1101 14.2965 24.4996 13.8161 24.4996H11.9743C11.4939 24.4996 11.1045 24.1101 11.1045 23.6298Z" fill="#F6F8F9" fill-opacity="0.65"/>
<path fill-rule="evenodd" clip-rule="evenodd" d="M15.7095 23.6298C15.7095 23.1494 16.0989 22.76 16.5792 22.76H18.4211C18.9015 22.76 19.2909 23.1494 19.2909 23.6298C19.2909 24.1101 18.9015 24.4996 18.4211 24.4996H16.5792C16.0989 24.4996 15.7095 24.1101 15.7095 23.6298Z" fill="#3A7EA0"/>
<path fill-rule="evenodd" clip-rule="evenodd" d="M15.7095 23.6298C15.7095 23.1494 16.0989 22.76 16.5792 22.76H18.4211C18.9015 22.76 19.2909 23.1494 19.2909 23.6298C19.2909 24.1101 18.9015 24.4996 18.4211 24.4996H16.5792C16.0989 24.4996 15.7095 24.1101 15.7095 23.6298Z" fill="#F6F8F9" fill-opacity="0.65"/>
<path fill-rule="evenodd" clip-rule="evenodd" d="M20.314 23.6298C20.314 23.1494 20.7034 22.76 21.1837 22.76H23.0256C23.506 22.76 23.8954 23.1494 23.8954 23.6298C23.8954 24.1101 23.506 24.4996 23.0256 24.4996H21.1837C20.7034 24.4996 20.314 24.1101 20.314 23.6298Z" fill="#3A7EA0"/>
<path fill-rule="evenodd" clip-rule="evenodd" d="M20.314 23.6298C20.314 23.1494 20.7034 22.76 21.1837 22.76H23.0256C23.506 22.76 23.8954 23.1494 23.8954 23.6298C23.8954 24.1101 23.506 24.4996 23.0256 24.4996H21.1837C20.7034 24.4996 20.314 24.1101 20.314 23.6298Z" fill="#F6F8F9" fill-opacity="0.65"/>
<path fill-rule="evenodd" clip-rule="evenodd" d="M24.9185 23.6298C24.9185 23.1494 25.3079 22.76 25.7882 22.76H27.6301C28.1105 22.76 28.4999 23.1494 28.4999 23.6298C28.4999 24.1101 28.1105 24.4996 27.6301 24.4996H25.7882C25.3079 24.4996 24.9185 24.1101 24.9185 23.6298Z" fill="#3A7EA0"/>
<path fill-rule="evenodd" clip-rule="evenodd" d="M24.9185 23.6298C24.9185 23.1494 25.3079 22.76 25.7882 22.76H27.6301C28.1105 22.76 28.4999 23.1494 28.4999 23.6298C28.4999 24.1101 28.1105 24.4996 27.6301 24.4996H25.7882C25.3079 24.4996 24.9185 24.1101 24.9185 23.6298Z" fill="#F6F8F9" fill-opacity="0.65"/>
</g>
<defs>
<filter id="filter0_d_3239_3207" x="-2" y="-2" width="40" height="40" filterUnits="userSpaceOnUse" color-interpolation-filters="sRGB">
<feFlood flood-opacity="0" result="BackgroundImageFix"/>
<feColorMatrix in="SourceAlpha" type="matrix" values="0 0 0 0 0 0 0 0 0 0 0 0 0 0 0 0 0 0 127 0" result="hardAlpha"/>
<feOffset dy="2"/>
<feGaussianBlur stdDeviation="2"/>
<feComposite in2="hardAlpha" operator="out"/>
<feColorMatrix type="matrix" values="0 0 0 0 0.0941176 0 0 0 0 0.105882 0 0 0 0 0.141176 0 0 0 0.05 0"/>
<feBlend mode="normal" in2="BackgroundImageFix" result="effect1_dropShadow_3239_3207"/>
<feBlend mode="normal" in="SourceGraphic" in2="effect1_dropShadow_3239_3207" result="shape"/>
</filter>
</defs>
</svg>
