<svg width="32" height="40" viewBox="0 0 32 40" fill="none" xmlns="http://www.w3.org/2000/svg">
<g filter="url(#filter0_d_6147_6745)">
<g clip-path="url(#clip0_6147_6745)">
<mask id="mask0_6147_6745" style="mask-type:alpha" maskUnits="userSpaceOnUse" x="4" y="2" width="24" height="32">
<path d="M4.38802 3.94379C4 4.70532 4 5.70221 4 7.696V28.304C4 30.2978 4 31.2947 4.38802 32.0562C4.72933 32.7261 5.27394 33.2707 5.94379 33.612C6.70532 34 7.70221 34 9.696 34H22.304C24.2978 34 25.2947 34 26.0562 33.612C26.7261 33.2707 27.2707 32.7261 27.612 32.0562C28 31.2947 28 30.2978 28 28.304V10.9882C28 10.2545 28 9.88757 27.9171 9.5423C27.8436 9.2362 27.7224 8.94356 27.5579 8.67515C27.3724 8.3724 27.113 8.11297 26.5941 7.59411L22.4059 3.40589C21.887 2.88703 21.6276 2.6276 21.3249 2.44208C21.0564 2.27759 20.7638 2.15638 20.4577 2.08289C20.1124 2 19.7455 2 19.0118 2H9.696C7.70221 2 6.70532 2 5.94379 2.38802C5.27394 2.72933 4.72933 3.27394 4.38802 3.94379Z" fill="#D9D9D9"/>
</mask>
<g mask="url(#mask0_6147_6745)">
<path d="M4.38802 3.94379C4 4.70532 4 5.70221 4 7.696V28.304C4 30.2978 4 31.2947 4.38802 32.0562C4.72933 32.7261 5.27394 33.2707 5.94379 33.612C6.70532 34 7.70221 34 9.696 34H22.304C24.2978 34 25.2947 34 26.0562 33.612C26.7261 33.2707 27.2707 32.7261 27.612 32.0562C28 31.2947 28 30.2978 28 28.304V10.9882C28 10.2545 28 9.88757 27.9171 9.5423C27.8436 9.2362 27.7224 8.94356 27.5579 8.67515C27.3724 8.3724 27.113 8.11297 26.5941 7.59411L22.4059 3.40589C21.887 2.88703 21.6276 2.6276 21.3249 2.44208C21.0564 2.27759 20.7638 2.15638 20.4577 2.08289C20.1124 2 19.7455 2 19.0118 2H9.696C7.70221 2 6.70532 2 5.94379 2.38802C5.27394 2.72933 4.72933 3.27394 4.38802 3.94379Z" fill="white"/>
<g filter="url(#filter1_d_6147_6745)">
<mask id="path-4-inside-1_6147_6745" fill="white">
<path d="M20.0964 6.44V2H28.0964V10H23.6564C21.6903 10 20.0964 8.40613 20.0964 6.44Z"/>
</mask>
<path d="M20.0964 6.44V2H28.0964V10H23.6564C21.6903 10 20.0964 8.40613 20.0964 6.44Z" fill="#6D778C"/>
<path d="M20.0964 6.44V2H28.0964V10H23.6564C21.6903 10 20.0964 8.40613 20.0964 6.44Z" fill="#F6F8F9" fill-opacity="0.9"/>
<path d="M20.0964 2V1.3H19.3964V2H20.0964ZM28.0964 10V10.7H28.7964V10H28.0964ZM28.0964 2H28.7964V1.3H28.0964V2ZM20.0964 2H19.3964V6.44H20.0964H20.7964V2H20.0964ZM23.6564 10V10.7H28.0964V10V9.3H23.6564V10ZM20.0964 2V2.7H28.0964V2V1.3H20.0964V2ZM28.0964 2H27.3964V10H28.0964H28.7964V2H28.0964ZM20.0964 6.44H19.3964C19.3964 8.79273 21.3037 10.7 23.6564 10.7V10V9.3C22.0769 9.3 20.7964 8.01953 20.7964 6.44H20.0964Z" fill="#6D778C" mask="url(#path-4-inside-1_6147_6745)"/>
<path d="M20.0964 2V1.3H19.3964V2H20.0964ZM28.0964 10V10.7H28.7964V10H28.0964ZM28.0964 2H28.7964V1.3H28.0964V2ZM20.0964 2H19.3964V6.44H20.0964H20.7964V2H20.0964ZM23.6564 10V10.7H28.0964V10V9.3H23.6564V10ZM20.0964 2V2.7H28.0964V2V1.3H20.0964V2ZM28.0964 2H27.3964V10H28.0964H28.7964V2H28.0964ZM20.0964 6.44H19.3964C19.3964 8.79273 21.3037 10.7 23.6564 10.7V10V9.3C22.0769 9.3 20.7964 8.01953 20.7964 6.44H20.0964Z" fill="#F6F8F9" fill-opacity="0.8" mask="url(#path-4-inside-1_6147_6745)"/>
</g>
<path d="M9.69629 2.34961H19.0117C19.7621 2.34961 20.0804 2.3519 20.376 2.42285C20.6462 2.48773 20.9046 2.59506 21.1416 2.74023C21.4008 2.89907 21.6277 3.12278 22.1582 3.65332L26.3467 7.8418C26.8772 8.37234 27.1009 8.5992 27.2598 8.8584C27.4049 9.09539 27.5123 9.35378 27.5771 9.62402C27.6481 9.91961 27.6504 10.2379 27.6504 10.9883V28.3037C27.6504 29.3061 27.6496 30.0373 27.6025 30.6133C27.5558 31.1853 27.4645 31.5743 27.2998 31.8975C26.9921 32.5013 26.5013 32.9921 25.8975 33.2998C25.5743 33.4645 25.1853 33.5558 24.6133 33.6025C24.0373 33.6496 23.3061 33.6504 22.3037 33.6504H9.69629C8.69386 33.6504 7.96274 33.6496 7.38672 33.6025C6.81473 33.5558 6.42574 33.4645 6.10254 33.2998C5.49874 32.9921 5.00791 32.5013 4.7002 31.8975C4.53552 31.5743 4.44419 31.1853 4.39746 30.6133C4.35043 30.0373 4.34961 29.3061 4.34961 28.3037V7.69629C4.34961 6.69386 4.35043 5.96274 4.39746 5.38672C4.44419 4.81473 4.53552 4.42574 4.7002 4.10254C5.00791 3.49874 5.49874 3.00791 6.10254 2.7002C6.42574 2.53552 6.81473 2.44419 7.38672 2.39746C7.96274 2.35043 8.69386 2.34961 9.69629 2.34961Z" stroke="#6D778C" stroke-width="0.7"/>
<path d="M9.69629 2.34961H19.0117C19.7621 2.34961 20.0804 2.3519 20.376 2.42285C20.6462 2.48773 20.9046 2.59506 21.1416 2.74023C21.4008 2.89907 21.6277 3.12278 22.1582 3.65332L26.3467 7.8418C26.8772 8.37234 27.1009 8.5992 27.2598 8.8584C27.4049 9.09539 27.5123 9.35378 27.5771 9.62402C27.6481 9.91961 27.6504 10.2379 27.6504 10.9883V28.3037C27.6504 29.3061 27.6496 30.0373 27.6025 30.6133C27.5558 31.1853 27.4645 31.5743 27.2998 31.8975C26.9921 32.5013 26.5013 32.9921 25.8975 33.2998C25.5743 33.4645 25.1853 33.5558 24.6133 33.6025C24.0373 33.6496 23.3061 33.6504 22.3037 33.6504H9.69629C8.69386 33.6504 7.96274 33.6496 7.38672 33.6025C6.81473 33.5558 6.42574 33.4645 6.10254 33.2998C5.49874 32.9921 5.00791 32.5013 4.7002 31.8975C4.53552 31.5743 4.44419 31.1853 4.39746 30.6133C4.35043 30.0373 4.34961 29.3061 4.34961 28.3037V7.69629C4.34961 6.69386 4.35043 5.96274 4.39746 5.38672C4.44419 4.81473 4.53552 4.42574 4.7002 4.10254C5.00791 3.49874 5.49874 3.00791 6.10254 2.7002C6.42574 2.53552 6.81473 2.44419 7.38672 2.39746C7.96274 2.35043 8.69386 2.34961 9.69629 2.34961Z" stroke="#F6F8F9" stroke-opacity="0.8" stroke-width="0.7"/>
</g>
<path d="M11.6121 23.3931C11.2829 23.3931 10.9972 23.3212 10.755 23.1774C10.5128 23.0336 10.3254 22.8406 10.193 22.5984C10.0643 22.3562 10 22.0875 10 21.7923C10 21.5047 10.0757 21.2304 10.2271 20.9693L14.6206 13.3117C14.7682 13.043 14.9669 12.8406 15.2167 12.7044C15.4664 12.5681 15.7275 12.5 16 12.5C16.2725 12.5 16.5317 12.5681 16.7777 12.7044C17.0237 12.8368 17.2242 13.0393 17.3794 13.3117L21.7729 20.9693C21.8486 21.0979 21.9054 21.2323 21.9432 21.3723C21.9811 21.5123 22 21.6523 22 21.7923C22 22.0875 21.9338 22.3562 21.8013 22.5984C21.6689 22.8406 21.4816 23.0336 21.2394 23.1774C21.0009 23.3212 20.7171 23.3931 20.3879 23.3931H11.6121ZM16.0057 19.5047C16.3425 19.5047 16.5147 19.3288 16.5222 18.9768L16.6131 16.1272C16.6206 15.9532 16.5658 15.8113 16.4484 15.7015C16.3311 15.588 16.1816 15.5312 16 15.5312C15.8146 15.5312 15.6651 15.588 15.5516 15.7015C15.438 15.8113 15.3851 15.9513 15.3926 16.1216L15.4721 18.9825C15.4834 19.3307 15.6613 19.5047 16.0057 19.5047ZM16.0057 21.4574C16.1949 21.4574 16.3576 21.3969 16.4939 21.2758C16.6301 21.1547 16.6982 20.9995 16.6982 20.8103C16.6982 20.6249 16.6301 20.4697 16.4939 20.3448C16.3576 20.22 16.1949 20.1575 16.0057 20.1575C15.8127 20.1575 15.6481 20.22 15.5118 20.3448C15.3756 20.4697 15.3075 20.6249 15.3075 20.8103C15.3075 20.9995 15.3756 21.1547 15.5118 21.2758C15.6518 21.3969 15.8165 21.4574 16.0057 21.4574Z" fill="#A75400"/>
</g>
</g>
<defs>
<filter id="filter0_d_6147_6745" x="-4" y="0" width="40" height="40" filterUnits="userSpaceOnUse" color-interpolation-filters="sRGB">
<feFlood flood-opacity="0" result="BackgroundImageFix"/>
<feColorMatrix in="SourceAlpha" type="matrix" values="0 0 0 0 0 0 0 0 0 0 0 0 0 0 0 0 0 0 127 0" result="hardAlpha"/>
<feOffset dy="2"/>
<feGaussianBlur stdDeviation="2"/>
<feComposite in2="hardAlpha" operator="out"/>
<feColorMatrix type="matrix" values="0 0 0 0 0.0941176 0 0 0 0 0.105882 0 0 0 0 0.141176 0 0 0 0.05 0"/>
<feBlend mode="normal" in2="BackgroundImageFix" result="effect1_dropShadow_6147_6745"/>
<feBlend mode="normal" in="SourceGraphic" in2="effect1_dropShadow_6147_6745" result="shape"/>
</filter>
<filter id="filter1_d_6147_6745" x="18.0964" y="0" width="12" height="12" filterUnits="userSpaceOnUse" color-interpolation-filters="sRGB">
<feFlood flood-opacity="0" result="BackgroundImageFix"/>
<feColorMatrix in="SourceAlpha" type="matrix" values="0 0 0 0 0 0 0 0 0 0 0 0 0 0 0 0 0 0 127 0" result="hardAlpha"/>
<feOffset/>
<feGaussianBlur stdDeviation="1"/>
<feComposite in2="hardAlpha" operator="out"/>
<feColorMatrix type="matrix" values="0 0 0 0 0 0 0 0 0 0 0 0 0 0 0 0 0 0 0.1 0"/>
<feBlend mode="normal" in2="BackgroundImageFix" result="effect1_dropShadow_6147_6745"/>
<feBlend mode="normal" in="SourceGraphic" in2="effect1_dropShadow_6147_6745" result="shape"/>
</filter>
<clipPath id="clip0_6147_6745">
<rect x="4" y="2" width="24" height="32" rx="3.55556" fill="white"/>
</clipPath>
</defs>
</svg>
