<svg width="24" height="32" viewBox="0 0 24 32" fill="none" xmlns="http://www.w3.org/2000/svg">
<g clip-path="url(#clip0_10511_4058)">
<mask id="mask0_10511_4058" style="mask-type:alpha" maskUnits="userSpaceOnUse" x="0" y="0" width="24" height="32">
<path d="M5.69629 0.349609H15.0117C15.7621 0.349609 16.0804 0.351904 16.376 0.422852C16.6462 0.487732 16.9046 0.595062 17.1416 0.740234C17.4008 0.899068 17.6277 1.12278 18.1582 1.65332L22.3467 5.8418C22.8772 6.37234 23.1009 6.59921 23.2598 6.8584C23.4049 7.09539 23.5123 7.35378 23.5771 7.62402C23.6481 7.91961 23.6504 8.23793 23.6504 8.98828V26.3037C23.6504 27.3061 23.6496 28.0373 23.6025 28.6133C23.5558 29.1853 23.4645 29.5743 23.2998 29.8975C22.9921 30.5013 22.5013 30.9921 21.8975 31.2998C21.5743 31.4645 21.1853 31.5558 20.6133 31.6025C20.0373 31.6496 19.3061 31.6504 18.3037 31.6504H5.69629C4.69386 31.6504 3.96274 31.6496 3.38672 31.6025C2.81473 31.5558 2.42574 31.4645 2.10254 31.2998C1.49874 30.9921 1.00791 30.5013 0.700195 29.8975C0.535517 29.5743 0.444195 29.1853 0.397461 28.6133C0.350426 28.0373 0.349609 27.3061 0.349609 26.3037V5.69629C0.349609 4.69386 0.350426 3.96274 0.397461 3.38672C0.444195 2.81473 0.535517 2.42574 0.700195 2.10254C1.00791 1.49874 1.49874 1.00791 2.10254 0.700195C2.42574 0.535517 2.81473 0.444195 3.38672 0.397461C3.96274 0.350426 4.69386 0.349609 5.69629 0.349609Z" fill="#D9D9D9"/>
<path d="M5.69629 0.349609H15.0117C15.7621 0.349609 16.0804 0.351904 16.376 0.422852C16.6462 0.487732 16.9046 0.595062 17.1416 0.740234C17.4008 0.899068 17.6277 1.12278 18.1582 1.65332L22.3467 5.8418C22.8772 6.37234 23.1009 6.59921 23.2598 6.8584C23.4049 7.09539 23.5123 7.35378 23.5771 7.62402C23.6481 7.91961 23.6504 8.23793 23.6504 8.98828V26.3037C23.6504 27.3061 23.6496 28.0373 23.6025 28.6133C23.5558 29.1853 23.4645 29.5743 23.2998 29.8975C22.9921 30.5013 22.5013 30.9921 21.8975 31.2998C21.5743 31.4645 21.1853 31.5558 20.6133 31.6025C20.0373 31.6496 19.3061 31.6504 18.3037 31.6504H5.69629C4.69386 31.6504 3.96274 31.6496 3.38672 31.6025C2.81473 31.5558 2.42574 31.4645 2.10254 31.2998C1.49874 30.9921 1.00791 30.5013 0.700195 29.8975C0.535517 29.5743 0.444195 29.1853 0.397461 28.6133C0.350426 28.0373 0.349609 27.3061 0.349609 26.3037V5.69629C0.349609 4.69386 0.350426 3.96274 0.397461 3.38672C0.444195 2.81473 0.535517 2.42574 0.700195 2.10254C1.00791 1.49874 1.49874 1.00791 2.10254 0.700195C2.42574 0.535517 2.81473 0.444195 3.38672 0.397461C3.96274 0.350426 4.69386 0.349609 5.69629 0.349609Z" fill="#F6F6F6"/>
<path d="M5.69629 0.349609H15.0117C15.7621 0.349609 16.0804 0.351904 16.376 0.422852C16.6462 0.487732 16.9046 0.595062 17.1416 0.740234C17.4008 0.899068 17.6277 1.12278 18.1582 1.65332L22.3467 5.8418C22.8772 6.37234 23.1009 6.59921 23.2598 6.8584C23.4049 7.09539 23.5123 7.35378 23.5771 7.62402C23.6481 7.91961 23.6504 8.23793 23.6504 8.98828V26.3037C23.6504 27.3061 23.6496 28.0373 23.6025 28.6133C23.5558 29.1853 23.4645 29.5743 23.2998 29.8975C22.9921 30.5013 22.5013 30.9921 21.8975 31.2998C21.5743 31.4645 21.1853 31.5558 20.6133 31.6025C20.0373 31.6496 19.3061 31.6504 18.3037 31.6504H5.69629C4.69386 31.6504 3.96274 31.6496 3.38672 31.6025C2.81473 31.5558 2.42574 31.4645 2.10254 31.2998C1.49874 30.9921 1.00791 30.5013 0.700195 29.8975C0.535517 29.5743 0.444195 29.1853 0.397461 28.6133C0.350426 28.0373 0.349609 27.3061 0.349609 26.3037V5.69629C0.349609 4.69386 0.350426 3.96274 0.397461 3.38672C0.444195 2.81473 0.535517 2.42574 0.700195 2.10254C1.00791 1.49874 1.49874 1.00791 2.10254 0.700195C2.42574 0.535517 2.81473 0.444195 3.38672 0.397461C3.96274 0.350426 4.69386 0.349609 5.69629 0.349609Z" stroke="#CECECE" stroke-width="0.7"/>
</mask>
<g mask="url(#mask0_10511_4058)">
<path d="M5.69629 0.349609H15.0117C15.7621 0.349609 16.0804 0.351904 16.376 0.422852C16.6462 0.487732 16.9046 0.595062 17.1416 0.740234C17.4008 0.899068 17.6277 1.12278 18.1582 1.65332L22.3467 5.8418C22.8772 6.37234 23.1009 6.59921 23.2598 6.8584C23.4049 7.09539 23.5123 7.35378 23.5771 7.62402C23.6481 7.91961 23.6504 8.23793 23.6504 8.98828V26.3037C23.6504 27.3061 23.6496 28.0373 23.6025 28.6133C23.5558 29.1853 23.4645 29.5743 23.2998 29.8975C22.9921 30.5013 22.5013 30.9921 21.8975 31.2998C21.5743 31.4645 21.1853 31.5558 20.6133 31.6025C20.0373 31.6496 19.3061 31.6504 18.3037 31.6504H5.69629C4.69386 31.6504 3.96274 31.6496 3.38672 31.6025C2.81473 31.5558 2.42574 31.4645 2.10254 31.2998C1.49874 30.9921 1.00791 30.5013 0.700195 29.8975C0.535517 29.5743 0.444195 29.1853 0.397461 28.6133C0.350426 28.0373 0.349609 27.3061 0.349609 26.3037V5.69629C0.349609 4.69386 0.350426 3.96274 0.397461 3.38672C0.444195 2.81473 0.535517 2.42574 0.700195 2.10254C1.00791 1.49874 1.49874 1.00791 2.10254 0.700195C2.42574 0.535517 2.81473 0.444195 3.38672 0.397461C3.96274 0.350426 4.69386 0.349609 5.69629 0.349609Z" fill="#FAFAFA"/>
<path d="M5.69629 0.349609H15.0117C15.7621 0.349609 16.0804 0.351904 16.376 0.422852C16.6462 0.487732 16.9046 0.595062 17.1416 0.740234C17.4008 0.899068 17.6277 1.12278 18.1582 1.65332L22.3467 5.8418C22.8772 6.37234 23.1009 6.59921 23.2598 6.8584C23.4049 7.09539 23.5123 7.35378 23.5771 7.62402C23.6481 7.91961 23.6504 8.23793 23.6504 8.98828V26.3037C23.6504 27.3061 23.6496 28.0373 23.6025 28.6133C23.5558 29.1853 23.4645 29.5743 23.2998 29.8975C22.9921 30.5013 22.5013 30.9921 21.8975 31.2998C21.5743 31.4645 21.1853 31.5558 20.6133 31.6025C20.0373 31.6496 19.3061 31.6504 18.3037 31.6504H5.69629C4.69386 31.6504 3.96274 31.6496 3.38672 31.6025C2.81473 31.5558 2.42574 31.4645 2.10254 31.2998C1.49874 30.9921 1.00791 30.5013 0.700195 29.8975C0.535517 29.5743 0.444195 29.1853 0.397461 28.6133C0.350426 28.0373 0.349609 27.3061 0.349609 26.3037V5.69629C0.349609 4.69386 0.350426 3.96274 0.397461 3.38672C0.444195 2.81473 0.535517 2.42574 0.700195 2.10254C1.00791 1.49874 1.49874 1.00791 2.10254 0.700195C2.42574 0.535517 2.81473 0.444195 3.38672 0.397461C3.96274 0.350426 4.69386 0.349609 5.69629 0.349609Z" fill="url(#paint0_linear_10511_4058)" fill-opacity="0.4"/>
<path d="M5.69629 0.349609H15.0117C15.7621 0.349609 16.0804 0.351904 16.376 0.422852C16.6462 0.487732 16.9046 0.595062 17.1416 0.740234C17.4008 0.899068 17.6277 1.12278 18.1582 1.65332L22.3467 5.8418C22.8772 6.37234 23.1009 6.59921 23.2598 6.8584C23.4049 7.09539 23.5123 7.35378 23.5771 7.62402C23.6481 7.91961 23.6504 8.23793 23.6504 8.98828V26.3037C23.6504 27.3061 23.6496 28.0373 23.6025 28.6133C23.5558 29.1853 23.4645 29.5743 23.2998 29.8975C22.9921 30.5013 22.5013 30.9921 21.8975 31.2998C21.5743 31.4645 21.1853 31.5558 20.6133 31.6025C20.0373 31.6496 19.3061 31.6504 18.3037 31.6504H5.69629C4.69386 31.6504 3.96274 31.6496 3.38672 31.6025C2.81473 31.5558 2.42574 31.4645 2.10254 31.2998C1.49874 30.9921 1.00791 30.5013 0.700195 29.8975C0.535517 29.5743 0.444195 29.1853 0.397461 28.6133C0.350426 28.0373 0.349609 27.3061 0.349609 26.3037V5.69629C0.349609 4.69386 0.350426 3.96274 0.397461 3.38672C0.444195 2.81473 0.535517 2.42574 0.700195 2.10254C1.00791 1.49874 1.49874 1.00791 2.10254 0.700195C2.42574 0.535517 2.81473 0.444195 3.38672 0.397461C3.96274 0.350426 4.69386 0.349609 5.69629 0.349609Z" stroke="#CECECE" stroke-width="0.7"/>
<g filter="url(#filter0_d_10511_4058)">
<mask id="path-4-inside-1_10511_4058" fill="white">
<path d="M16.0967 4.44V0H24.0967V8H19.6567C17.6905 8 16.0967 6.40613 16.0967 4.44Z"/>
</mask>
<path d="M16.0967 4.44V0H24.0967V8H19.6567C17.6905 8 16.0967 6.40613 16.0967 4.44Z" fill="#E5E5E5"/>
<path d="M16.0967 0V-0.7H15.3967V0H16.0967ZM24.0967 8V8.7H24.7967V8H24.0967ZM24.0967 0H24.7967V-0.7H24.0967V0ZM16.0967 0H15.3967V4.44H16.0967H16.7967V0H16.0967ZM19.6567 8V8.7H24.0967V8V7.3H19.6567V8ZM16.0967 0V0.7H24.0967V0V-0.7H16.0967V0ZM24.0967 0H23.3967V8H24.0967H24.7967V0H24.0967ZM16.0967 4.44H15.3967C15.3967 6.79273 17.3039 8.7 19.6567 8.7V8V7.3C18.0771 7.3 16.7967 6.01953 16.7967 4.44H16.0967Z" fill="#CECECE" mask="url(#path-4-inside-1_10511_4058)"/>
</g>
<path d="M5.69629 0.349609H15.0117C15.7621 0.349609 16.0804 0.351904 16.376 0.422852C16.6462 0.487732 16.9046 0.595062 17.1416 0.740234C17.4008 0.899068 17.6277 1.12278 18.1582 1.65332L22.3467 5.8418C22.8772 6.37234 23.1009 6.59921 23.2598 6.8584C23.4049 7.09539 23.5123 7.35378 23.5771 7.62402C23.6481 7.91961 23.6504 8.23793 23.6504 8.98828V26.3037C23.6504 27.3061 23.6496 28.0373 23.6025 28.6133C23.5558 29.1853 23.4645 29.5743 23.2998 29.8975C22.9921 30.5013 22.5013 30.9921 21.8975 31.2998C21.5743 31.4645 21.1853 31.5558 20.6133 31.6025C20.0373 31.6496 19.3061 31.6504 18.3037 31.6504H5.69629C4.69386 31.6504 3.96274 31.6496 3.38672 31.6025C2.81473 31.5558 2.42574 31.4645 2.10254 31.2998C1.49874 30.9921 1.00791 30.5013 0.700195 29.8975C0.535517 29.5743 0.444195 29.1853 0.397461 28.6133C0.350426 28.0373 0.349609 27.3061 0.349609 26.3037V5.69629C0.349609 4.69386 0.350426 3.96274 0.397461 3.38672C0.444195 2.81473 0.535517 2.42574 0.700195 2.10254C1.00791 1.49874 1.49874 1.00791 2.10254 0.700195C2.42574 0.535517 2.81473 0.444195 3.38672 0.397461C3.96274 0.350426 4.69386 0.349609 5.69629 0.349609Z" stroke="#CECECE" stroke-width="0.7"/>
<path d="M5.69629 0.349609H15.0117C15.7621 0.349609 16.0804 0.351904 16.376 0.422852C16.6462 0.487732 16.9046 0.595062 17.1416 0.740234C17.4008 0.899068 17.6277 1.12278 18.1582 1.65332L22.3467 5.8418C22.8772 6.37234 23.1009 6.59921 23.2598 6.8584C23.4049 7.09539 23.5123 7.35378 23.5771 7.62402C23.6481 7.91961 23.6504 8.23793 23.6504 8.98828V26.3037C23.6504 27.3061 23.6496 28.0373 23.6025 28.6133C23.5558 29.1853 23.4645 29.5743 23.2998 29.8975C22.9921 30.5013 22.5013 30.9921 21.8975 31.2998C21.5743 31.4645 21.1853 31.5558 20.6133 31.6025C20.0373 31.6496 19.3061 31.6504 18.3037 31.6504H5.69629C4.69386 31.6504 3.96274 31.6496 3.38672 31.6025C2.81473 31.5558 2.42574 31.4645 2.10254 31.2998C1.49874 30.9921 1.00791 30.5013 0.700195 29.8975C0.535517 29.5743 0.444195 29.1853 0.397461 28.6133C0.350426 28.0373 0.349609 27.3061 0.349609 26.3037V5.69629C0.349609 4.69386 0.350426 3.96274 0.397461 3.38672C0.444195 2.81473 0.535517 2.42574 0.700195 2.10254C1.00791 1.49874 1.49874 1.00791 2.10254 0.700195C2.42574 0.535517 2.81473 0.444195 3.38672 0.397461C3.96274 0.350426 4.69386 0.349609 5.69629 0.349609Z" stroke="url(#paint1_linear_10511_4058)" stroke-opacity="0.2" stroke-width="0.7"/>
</g>
<path d="M7.61211 21.3931C7.28288 21.3931 6.99716 21.3212 6.75497 21.1774C6.51277 21.0336 6.32545 20.8406 6.193 20.5984C6.06433 20.3562 6 20.0875 6 19.7923C6 19.5047 6.07569 19.2304 6.22706 18.9693L10.6206 11.3117C10.7682 11.043 10.9669 10.8406 11.2167 10.7044C11.4664 10.5681 11.7275 10.5 12 10.5C12.2725 10.5 12.5317 10.5681 12.7777 10.7044C13.0237 10.8368 13.2242 11.0393 13.3794 11.3117L17.7729 18.9693C17.8486 19.0979 17.9054 19.2323 17.9432 19.3723C17.9811 19.5123 18 19.6523 18 19.7923C18 20.0875 17.9338 20.3562 17.8013 20.5984C17.6689 20.8406 17.4816 21.0336 17.2394 21.1774C17.0009 21.3212 16.7171 21.3931 16.3879 21.3931H7.61211ZM12.0057 17.5047C12.3425 17.5047 12.5147 17.3288 12.5222 16.9768L12.6131 14.1272C12.6206 13.9532 12.5658 13.8113 12.4484 13.7015C12.3311 13.588 12.1816 13.5312 12 13.5312C11.8146 13.5312 11.6651 13.588 11.5516 13.7015C11.438 13.8113 11.3851 13.9513 11.3926 14.1216L11.4721 16.9825C11.4834 17.3307 11.6613 17.5047 12.0057 17.5047ZM12.0057 19.4574C12.1949 19.4574 12.3576 19.3969 12.4939 19.2758C12.6301 19.1547 12.6982 18.9995 12.6982 18.8103C12.6982 18.6249 12.6301 18.4697 12.4939 18.3448C12.3576 18.22 12.1949 18.1575 12.0057 18.1575C11.8127 18.1575 11.6481 18.22 11.5118 18.3448C11.3756 18.4697 11.3075 18.6249 11.3075 18.8103C11.3075 18.9995 11.3756 19.1547 11.5118 19.2758C11.6518 19.3969 11.8165 19.4574 12.0057 19.4574Z" fill="#B85F03"/>
</g>
<defs>
<filter id="filter0_d_10511_4058" x="14.0967" y="-2" width="12" height="12" filterUnits="userSpaceOnUse" color-interpolation-filters="sRGB">
<feFlood flood-opacity="0" result="BackgroundImageFix"/>
<feColorMatrix in="SourceAlpha" type="matrix" values="0 0 0 0 0 0 0 0 0 0 0 0 0 0 0 0 0 0 127 0" result="hardAlpha"/>
<feOffset/>
<feGaussianBlur stdDeviation="1"/>
<feComposite in2="hardAlpha" operator="out"/>
<feColorMatrix type="matrix" values="0 0 0 0 0 0 0 0 0 0 0 0 0 0 0 0 0 0 0.1 0"/>
<feBlend mode="normal" in2="BackgroundImageFix" result="effect1_dropShadow_10511_4058"/>
<feBlend mode="normal" in="SourceGraphic" in2="effect1_dropShadow_10511_4058" result="shape"/>
</filter>
<linearGradient id="paint0_linear_10511_4058" x1="12" y1="0" x2="12" y2="32" gradientUnits="userSpaceOnUse">
<stop stop-color="white" stop-opacity="0"/>
<stop offset="1" stop-color="white"/>
</linearGradient>
<linearGradient id="paint1_linear_10511_4058" x1="12" y1="0" x2="12" y2="32" gradientUnits="userSpaceOnUse">
<stop stop-color="white" stop-opacity="0"/>
<stop offset="1" stop-color="white"/>
</linearGradient>
<clipPath id="clip0_10511_4058">
<rect width="24" height="32" rx="3.55556" fill="white"/>
</clipPath>
</defs>
</svg>
