<svg width="64" height="64" viewBox="0 0 64 64" fill="none" xmlns="http://www.w3.org/2000/svg">
<path d="M55.3531 19.4525H16.8394C12.465 19.4525 8.06606 22.8947 7.01421 27.1408L4 39.3087V15.6976C4 13.1559 4.58282 11.2415 5.74845 9.95457C6.92902 8.65152 8.56539 8 10.6575 8H17.0013C17.7783 8 18.4508 8.0563 19.0187 8.16891C19.5866 8.28152 20.1096 8.47457 20.5878 8.74805C21.066 9.00544 21.5666 9.3674 22.0897 9.83392L23.3674 10.9681C23.995 11.4989 24.5853 11.877 25.1383 12.1022C25.6912 12.3274 26.3711 12.44 27.1781 12.44H48.025C50.4309 12.44 52.2541 13.1076 53.4945 14.4428C54.607 15.6262 55.2265 17.2961 55.3531 19.4525Z" fill="#FCC73B"/>
<path d="M11.3531 54.0003C8.93219 54.0003 7.27319 53.3074 6.37613 51.9216C5.47493 50.5525 5.3552 48.5322 6.01696 45.8608L10.6542 27.1412C11.2228 24.846 13.6005 22.9854 15.9651 22.9854H58.7796C61.1442 22.9854 62.6002 24.846 62.0316 27.1412L57.3944 45.8608C56.7326 48.5322 55.6344 50.5525 54.0997 51.9216C52.5609 53.3074 50.723 54.0003 48.586 54.0003H11.3531Z" fill="#000091"/>
<path d="M40.8632 46.9862C40.1474 47.1921 39.5235 47.3029 38.9946 47.3029C37.2316 47.3029 36.3126 45.9091 36.2552 43.1057H36.1817C34.1392 46.1309 31.8047 47.6356 29.2337 47.6356C27.3091 47.6356 25.9174 46.8595 25.0616 45.2914C24.2058 43.7234 24.0146 41.7594 24.4764 39.3835C25.0152 36.6117 26.1073 34.3943 27.7504 32.6679C29.3935 30.9414 31.3405 30.0703 33.5883 30.0703C34.7929 30.0703 35.8093 30.4346 36.611 31.1474C37.4096 31.8759 37.9324 32.8896 38.1764 34.2042H38.2352L40.0172 30.4029H43.7781L38.9963 38.8292C38.9671 40.7932 39.0727 42.1395 39.3455 42.8522C39.5596 43.565 39.9883 43.9293 40.6053 43.9293C40.9579 43.9293 41.2493 43.8659 41.5206 43.7551L40.8632 46.9862ZM36.218 38.6866C36.2574 36.8968 36.0288 35.503 35.5377 34.5527C35.0644 33.5865 34.3487 33.1114 33.4232 33.1114C32.2185 33.1114 31.135 33.6974 30.1903 34.8536C29.2426 36.0257 28.6393 37.467 28.3098 39.1618C28.0081 40.714 28.0379 41.9969 28.4664 43.0423C28.8802 44.0877 29.6191 44.5945 30.6622 44.5945C31.5437 44.5945 32.441 44.1352 33.3302 43.264C34.2402 42.3612 35.0981 41.0466 35.9185 39.3202L36.218 38.6866Z" fill="white"/>
</svg>
