<svg width="177" height="40" viewBox="0 0 177 40" fill="none" xmlns="http://www.w3.org/2000/svg">
<path d="M31.6765 13.7263H12.4197C10.2325 13.7263 8.03303 15.4473 7.50711 17.5704L6 23.6543V11.8488C6 10.5779 6.29141 9.62077 6.87422 8.97729C7.46451 8.32576 8.28269 8 9.32877 8H12.5006C12.8892 8 13.2254 8.02815 13.5093 8.08446C13.7933 8.14076 14.0548 8.23728 14.2939 8.37402C14.533 8.50272 14.7833 8.6837 15.0448 8.91696L15.6837 9.48403C15.9975 9.74946 16.2927 9.93848 16.5691 10.0511C16.8456 10.1637 17.1856 10.22 17.5891 10.22H28.0125C29.2155 10.22 30.1271 10.5538 30.7472 11.2214C31.3035 11.8131 31.6133 12.6481 31.6765 13.7263Z" fill="#FCC73B"/>
<path d="M9.67656 31.0001C8.46609 31.0001 7.6366 30.6537 7.18806 29.9608C6.73746 29.2762 6.6776 28.2661 7.00848 26.9304L9.32709 17.5706C9.61138 16.423 10.8003 15.4927 11.9826 15.4927H33.3898C34.5721 15.4927 35.3001 16.423 35.0158 17.5706L32.6972 26.9304C32.3663 28.2661 31.8172 29.2762 31.0499 29.9608C30.2805 30.6537 29.3615 31.0001 28.293 31.0001H9.67656Z" fill="#000091"/>
<path d="M42.266 28V12.6H51.242V15.196H45.39V18.848H50.362V21.444H45.39V28H42.266ZM54.5853 14.976C53.5953 14.976 52.7593 14.14 52.7593 13.15C52.7593 12.16 53.5953 11.324 54.5853 11.324C55.5753 11.324 56.3893 12.16 56.3893 13.15C56.3893 14.14 55.5753 14.976 54.5853 14.976ZM53.1773 28V16.912H55.9713V28H53.1773ZM64.2058 25.8C65.3058 25.8 66.1858 25.294 66.7138 24.524L68.8918 26.196C67.8578 27.56 66.2298 28.44 64.2058 28.44C60.3778 28.44 58.0898 25.69 58.0898 22.456C58.0898 19.222 60.3778 16.472 64.2058 16.472C66.2298 16.472 67.8578 17.352 68.8918 18.716L66.7138 20.388C66.1858 19.618 65.3058 19.112 64.1618 19.112C62.3358 19.112 60.9938 20.52 60.9938 22.456C60.9938 24.414 62.3358 25.8 64.2058 25.8ZM70.5375 28V11.5H73.3315V17.792C74.1015 17.044 75.1355 16.472 76.6095 16.472C79.0075 16.472 80.9215 18.122 80.9215 21.4V28H78.1055V21.51C78.1055 20.036 77.2915 19.112 75.9055 19.112C74.4975 19.112 73.7495 20.058 73.3315 20.762V28H70.5375ZM85.0622 14.976C84.0722 14.976 83.2362 14.14 83.2362 13.15C83.2362 12.16 84.0722 11.324 85.0622 11.324C86.0522 11.324 86.8662 12.16 86.8662 13.15C86.8662 14.14 86.0522 14.976 85.0622 14.976ZM83.6542 28V16.912H86.4482V28H83.6542ZM99.5667 26.196C98.5327 27.582 96.8167 28.44 94.7267 28.44C90.7887 28.44 88.5667 25.69 88.5667 22.456C88.5667 19.178 90.6347 16.472 94.2647 16.472C97.3447 16.472 99.3687 18.562 99.3687 21.466C99.3687 22.082 99.2807 22.654 99.1927 23.028H91.4267C91.6907 25.096 92.9667 25.932 94.7047 25.932C95.9147 25.932 96.9707 25.404 97.5647 24.612L99.5667 26.196ZM94.1987 18.76C92.7687 18.76 91.8227 19.552 91.5147 21.004H96.6187C96.5747 19.882 95.7607 18.76 94.1987 18.76ZM101.659 28V16.912H104.453V18.012C105.179 17.264 106.125 16.692 107.379 16.692C107.753 16.692 108.083 16.758 108.347 16.846V19.596C107.995 19.508 107.621 19.442 107.115 19.442C105.751 19.442 104.871 20.19 104.453 20.894V28H101.659ZM109.188 26.394L111.036 24.722C111.718 25.58 112.532 26.196 113.588 26.196C114.49 26.196 114.952 25.668 114.952 25.008C114.952 23.072 109.65 23.798 109.65 19.904C109.65 17.946 111.3 16.472 113.61 16.472C115.304 16.472 116.844 17.286 117.636 18.364L115.788 19.992C115.216 19.288 114.49 18.716 113.632 18.716C112.752 18.716 112.334 19.2 112.334 19.772C112.334 21.664 117.636 21.004 117.636 24.832C117.592 27.164 115.722 28.44 113.632 28.44C111.652 28.44 110.244 27.648 109.188 26.394Z" fill="#000091"/>
<rect x="123" y="12" width="50" height="16" rx="8" fill="#E0E0FF"/>
<path d="M129.165 24L132.08 16.3H134.126L137.041 24H135.38L134.643 21.998H131.563L130.826 24H129.165ZM132.047 20.667H134.159L133.103 17.774L132.047 20.667ZM138.12 24V16.3H139.682V22.581H142.608V24H138.12ZM143.873 24V16.3H146.414C148.108 16.3 149.142 17.169 149.142 18.599C149.142 20.018 148.108 20.887 146.414 20.887H145.435V24H143.873ZM146.48 17.598H145.435V19.589H146.48C147.14 19.589 147.536 19.204 147.536 18.577C147.536 17.994 147.14 17.598 146.48 17.598ZM150.324 24V16.3H151.886V19.369H155.769V16.3H157.331V24H155.769V20.788H151.886V24H150.324ZM158.406 24L161.321 16.3H163.367L166.282 24H164.621L163.884 21.998H160.804L160.067 24H158.406ZM161.288 20.667H163.4L162.344 17.774L161.288 20.667Z" fill="#5151BB"/>
</svg>
