<svg width="32" height="32" viewBox="0 0 32 32" fill="none" xmlns="http://www.w3.org/2000/svg">
<path d="M27.6765 9.72627H8.41971C6.23248 9.72627 4.03303 11.4473 3.50711 13.5704L2 19.6543V7.84882C2 6.57794 2.29141 5.62077 2.87422 4.97729C3.46451 4.32576 4.28269 4 5.32877 4H8.50063C8.88917 4 9.22541 4.02815 9.50935 4.08446C9.79328 4.14076 10.0548 4.23728 10.2939 4.37402C10.533 4.50272 10.7833 4.6837 11.0448 4.91696L11.6837 5.48403C11.9975 5.74946 12.2927 5.93848 12.5691 6.05109C12.8456 6.1637 13.1856 6.22001 13.5891 6.22001H24.0125C25.2155 6.22001 26.1271 6.55381 26.7472 7.22142C27.3035 7.81312 27.6133 8.64807 27.6765 9.72627Z" fill="#FBC63A"/>
<path d="M5.67656 27C4.46609 27 3.6366 26.6536 3.18806 25.9607C2.73746 25.2761 2.6776 24.266 3.00848 22.9303L5.32709 13.5705C5.61138 12.4229 6.80027 11.4926 7.98256 11.4926H29.3898C30.5721 11.4926 31.3001 12.4229 31.0158 13.5705L28.6972 22.9303C28.3663 24.266 27.8172 25.2761 27.0499 25.9607C26.2805 26.6536 25.3615 27 24.293 27H5.67656Z" fill="#2845C1"/>
<rect x="4" y="23" width="24" height="9" rx="4.5" fill="#ECF1F7"/>
<rect x="4" y="23" width="24" height="9" rx="4.5" fill="url(#paint0_linear_1156_814)" fill-opacity="0.1"/>
<path d="M8.34245 29.7362C8.29257 29.7362 8.26763 29.7362 8.24858 29.7265C8.23182 29.718 8.2182 29.7044 8.20966 29.6876C8.19995 29.6686 8.19995 29.6436 8.19995 29.5937V25.2425C8.19995 25.1926 8.19995 25.1677 8.20966 25.1486C8.2182 25.1318 8.23182 25.1182 8.24858 25.1097C8.26763 25.1 8.29257 25.1 8.34245 25.1H9.56434C10.5313 25.1 11.1208 25.5768 11.1208 26.3584C11.1208 26.648 11.0195 26.9064 10.8257 27.1068C10.7572 27.1777 10.7229 27.2131 10.7171 27.2364C10.7109 27.2615 10.7123 27.274 10.7237 27.2972C10.7343 27.3187 10.7739 27.3451 10.8532 27.3978C11.1981 27.6275 11.3857 27.9699 11.3857 28.3719C11.3857 29.2196 10.73 29.7362 9.66369 29.7362H8.34245ZM9.58421 25.8815H9.28295C9.23307 25.8815 9.20813 25.8815 9.18908 25.8912C9.17232 25.8998 9.1587 25.9134 9.15016 25.9301C9.14045 25.9492 9.14045 25.9741 9.14045 26.024V26.7855C9.14045 26.8354 9.14045 26.8603 9.15016 26.8794C9.1587 26.8961 9.17232 26.9097 9.18908 26.9183C9.20813 26.928 9.23307 26.928 9.28295 26.928H9.58421C9.94186 26.928 10.1538 26.7359 10.1538 26.3981C10.1538 26.0736 9.94186 25.8815 9.58421 25.8815ZM9.71667 27.7095H9.28295C9.23307 27.7095 9.20813 27.7095 9.18908 27.7192C9.17232 27.7278 9.1587 27.7414 9.15016 27.7582C9.14045 27.7772 9.14045 27.8022 9.14045 27.852V28.8122C9.14045 28.8621 9.14045 28.887 9.15016 28.9061C9.1587 28.9228 9.17232 28.9365 9.18908 28.945C9.20813 28.9547 9.23307 28.9547 9.28295 28.9547H9.71667C10.1538 28.9547 10.4187 28.7229 10.4187 28.3321C10.4187 27.9347 10.1538 27.7095 9.71667 27.7095Z" fill="#2845C1"/>
<path d="M12.4271 29.7362C12.3772 29.7362 12.3523 29.7362 12.3333 29.7265C12.3165 29.718 12.3029 29.7044 12.2943 29.6876C12.2846 29.6686 12.2846 29.6436 12.2846 29.5937V25.2425C12.2846 25.1926 12.2846 25.1677 12.2943 25.1486C12.3029 25.1318 12.3165 25.1182 12.3333 25.1097C12.3523 25.1 12.3772 25.1 12.4271 25.1H14.8444C14.8943 25.1 14.9192 25.1 14.9383 25.1097C14.955 25.1182 14.9687 25.1318 14.9772 25.1486C14.9869 25.1677 14.9869 25.1926 14.9869 25.2425V25.739C14.9869 25.7889 14.9869 25.8138 14.9772 25.8329C14.9687 25.8496 14.955 25.8633 14.9383 25.8718C14.9192 25.8815 14.8943 25.8815 14.8444 25.8815H13.3676C13.3177 25.8815 13.2928 25.8815 13.2738 25.8912C13.257 25.8998 13.2434 25.9134 13.2348 25.9301C13.2251 25.9492 13.2251 25.9741 13.2251 26.024V26.8385C13.2251 26.8884 13.2251 26.9133 13.2348 26.9323C13.2434 26.9491 13.257 26.9627 13.2738 26.9713C13.2928 26.981 13.3177 26.981 13.3676 26.981H14.5795C14.6294 26.981 14.6543 26.981 14.6733 26.9907C14.6901 26.9992 14.7037 27.0128 14.7123 27.0296C14.722 27.0487 14.722 27.0736 14.722 27.1235V27.62C14.722 27.6699 14.722 27.6948 14.7123 27.7139C14.7037 27.7306 14.6901 27.7443 14.6733 27.7528C14.6543 27.7625 14.6294 27.7625 14.5795 27.7625H13.3676C13.3177 27.7625 13.2928 27.7625 13.2738 27.7722C13.257 27.7808 13.2434 27.7944 13.2348 27.8111C13.2251 27.8302 13.2251 27.8551 13.2251 27.905V28.8122C13.2251 28.8621 13.2251 28.887 13.2348 28.9061C13.2434 28.9228 13.257 28.9365 13.2738 28.945C13.2928 28.9547 13.3177 28.9547 13.3676 28.9547H14.8444C14.8943 28.9547 14.9192 28.9547 14.9383 28.9644C14.955 28.9729 14.9687 28.9866 14.9772 29.0033C14.9869 29.0224 14.9869 29.0473 14.9869 29.0972V29.5937C14.9869 29.6436 14.9869 29.6686 14.9772 29.6876C14.9687 29.7044 14.955 29.718 14.9383 29.7265C14.9192 29.7362 14.8943 29.7362 14.8444 29.7362H12.4271Z" fill="#2845C1"/>
<path d="M15.7762 25.9544C15.7263 25.9544 15.7014 25.9544 15.6823 25.9447C15.6656 25.9361 15.652 25.9225 15.6434 25.9057C15.6337 25.8867 15.6337 25.8618 15.6337 25.8119V25.2425C15.6337 25.1926 15.6337 25.1677 15.6434 25.1486C15.652 25.1318 15.6656 25.1182 15.6823 25.1097C15.7014 25.1 15.7263 25.1 15.7762 25.1H19.2929C19.3428 25.1 19.3678 25.1 19.3868 25.1097C19.4036 25.1182 19.4172 25.1318 19.4257 25.1486C19.4354 25.1677 19.4354 25.1926 19.4354 25.2425V25.8119C19.4354 25.8618 19.4354 25.8867 19.4257 25.9057C19.4172 25.9225 19.4036 25.9361 19.3868 25.9447C19.3678 25.9544 19.3428 25.9544 19.2929 25.9544H18.1473C18.0974 25.9544 18.0725 25.9544 18.0535 25.9641C18.0367 25.9726 18.0231 25.9862 18.0145 26.003C18.0048 26.0221 18.0048 26.047 18.0048 26.0969V29.5937C18.0048 29.6436 18.0048 29.6686 17.9951 29.6876C17.9866 29.7044 17.973 29.718 17.9562 29.7265C17.9371 29.7362 17.9122 29.7362 17.8623 29.7362H17.2068C17.1569 29.7362 17.132 29.7362 17.113 29.7265C17.0962 29.718 17.0826 29.7044 17.074 29.6876C17.0643 29.6686 17.0643 29.6436 17.0643 29.5937V26.0969C17.0643 26.047 17.0643 26.0221 17.0546 26.003C17.0461 25.9862 17.0325 25.9726 17.0157 25.9641C16.9966 25.9544 16.9717 25.9544 16.9218 25.9544H15.7762Z" fill="#2845C1"/>
<path d="M19.3724 29.7362C19.3031 29.7362 19.2685 29.7362 19.2463 29.7217C19.2268 29.709 19.2131 29.6891 19.2081 29.6664C19.2024 29.6405 19.2146 29.6081 19.2392 29.5433L20.8864 25.192C20.899 25.1588 20.9053 25.1422 20.9161 25.13C20.9257 25.1192 20.9377 25.1109 20.9512 25.1058C20.9665 25.1 20.9842 25.1 21.0197 25.1H22.0548C22.0903 25.1 22.108 25.1 22.1233 25.1058C22.1368 25.1109 22.1488 25.1192 22.1584 25.13C22.1692 25.1422 22.1755 25.1588 22.188 25.192L23.8353 29.5433C23.8598 29.6081 23.8721 29.6405 23.8664 29.6664C23.8613 29.6891 23.8476 29.709 23.8282 29.7217C23.806 29.7362 23.7713 29.7362 23.702 29.7362H23.0076C22.9718 29.7362 22.9539 29.7362 22.9385 29.7304C22.925 29.7252 22.9129 29.7167 22.9033 29.7058C22.8925 29.6934 22.8863 29.6766 22.8739 29.643L22.4988 28.6241C22.4865 28.5905 22.4803 28.5737 22.4694 28.5613C22.4599 28.5503 22.4478 28.5419 22.4342 28.5367C22.4188 28.5308 22.4009 28.5308 22.3651 28.5308H20.7094C20.6736 28.5308 20.6556 28.5308 20.6403 28.5367C20.6267 28.5419 20.6146 28.5503 20.605 28.5613C20.5942 28.5737 20.588 28.5905 20.5757 28.6241L20.2006 29.643C20.1882 29.6766 20.182 29.6934 20.1712 29.7058C20.1616 29.7167 20.1495 29.7252 20.1359 29.7304C20.1206 29.7362 20.1027 29.7362 20.0668 29.7362H19.3724ZM20.9713 27.538C20.9478 27.6024 20.936 27.6346 20.9419 27.6603C20.9471 27.6828 20.9608 27.7024 20.9802 27.715C21.0023 27.7294 21.0366 27.7294 21.1051 27.7294H21.9694C22.0379 27.7294 22.0721 27.7294 22.0943 27.715C22.1136 27.7024 22.1274 27.6828 22.1325 27.6603C22.1385 27.6346 22.1267 27.6024 22.1032 27.538L21.6711 26.3542C21.6298 26.2411 21.6092 26.1846 21.579 26.1686C21.5529 26.1547 21.5216 26.1547 21.4955 26.1686C21.4653 26.1846 21.4447 26.2411 21.4034 26.3542L20.9713 27.538Z" fill="#2845C1"/>
<defs>
<linearGradient id="paint0_linear_1156_814" x1="16" y1="23" x2="16" y2="32" gradientUnits="userSpaceOnUse">
<stop stop-color="#2845C1"/>
<stop offset="1" stop-color="#ECF1F7"/>
</linearGradient>
</defs>
</svg>
