<svg width="64" height="64" viewBox="0 0 64 64" fill="none" xmlns="http://www.w3.org/2000/svg">
<path d="M55.3531 19.4525H16.8394C12.465 19.4525 8.06606 22.8947 7.01421 27.1408L4 39.3087V15.6976C4 13.1559 4.58282 11.2415 5.74845 9.95457C6.92902 8.65152 8.56539 8 10.6575 8H17.0013C17.7783 8 18.4508 8.0563 19.0187 8.16891C19.5866 8.28152 20.1096 8.47457 20.5878 8.74805C21.066 9.00544 21.5666 9.3674 22.0897 9.83392L23.3674 10.9681C23.995 11.4989 24.5853 11.877 25.1383 12.1022C25.6912 12.3274 26.3711 12.44 27.1781 12.44H48.025C50.4309 12.44 52.2541 13.1076 53.4945 14.4428C54.607 15.6262 55.2265 17.2961 55.3531 19.4525Z" fill="#C83F49"/>
<path d="M11.3531 54C8.93219 54 7.27319 53.3071 6.37613 51.9213C5.47493 50.5522 5.3552 48.532 6.01696 45.8606L10.6542 27.1409C11.2228 24.8457 13.6005 22.9851 15.9651 22.9851H58.7796C61.1442 22.9851 62.6002 24.8457 62.0316 27.1409L57.3944 45.8606C56.7326 48.532 55.6344 50.5522 54.0997 51.9213C52.5609 53.3071 50.723 54 48.586 54H11.3531Z" fill="#2845C1"/>
<rect x="8" y="46" width="48" height="18" rx="9" fill="#EEF1F4"/>
<rect x="8" y="46" width="48" height="18" rx="9" fill="url(#paint0_linear_11386_15350)" fill-opacity="0.1"/>
<path d="M16.6854 59.4725C16.5856 59.4725 16.5358 59.4725 16.4976 59.4531C16.4641 59.436 16.4369 59.4087 16.4198 59.3752C16.4004 59.3371 16.4004 59.2872 16.4004 59.1875V50.485C16.4004 50.3852 16.4004 50.3353 16.4198 50.2972C16.4369 50.2637 16.4641 50.2364 16.4976 50.2194C16.5358 50.2 16.5856 50.2 16.6854 50.2H19.1292C21.0632 50.2 22.2421 51.1537 22.2421 52.7168C22.2421 53.296 22.0394 53.8129 21.6519 54.2136C21.5149 54.3553 21.4463 54.4262 21.4348 54.4727C21.4223 54.5229 21.425 54.5479 21.4479 54.5943C21.4691 54.6373 21.5483 54.6901 21.7069 54.7957C22.3966 55.255 22.7719 55.9399 22.7719 56.7437C22.7719 58.4393 21.4605 59.4725 19.3279 59.4725H16.6854ZM19.1689 51.763H18.5664C18.4666 51.763 18.4168 51.763 18.3786 51.7825C18.3451 51.7995 18.3179 51.8268 18.3008 51.8603C18.2814 51.8984 18.2814 51.9483 18.2814 52.048V53.571C18.2814 53.6707 18.2814 53.7206 18.3008 53.7587C18.3179 53.7922 18.3451 53.8195 18.3786 53.8366C18.4168 53.856 18.4666 53.856 18.5664 53.856H19.1689C19.8842 53.856 20.3081 53.4718 20.3081 52.7963C20.3081 52.1472 19.8842 51.763 19.1689 51.763ZM19.4338 55.4191H18.5664C18.4666 55.4191 18.4168 55.4191 18.3786 55.4385C18.3451 55.4556 18.3179 55.4828 18.3008 55.5163C18.2814 55.5544 18.2814 55.6043 18.2814 55.7041V57.6244C18.2814 57.7242 18.2814 57.774 18.3008 57.8121C18.3179 57.8457 18.3451 57.8729 18.3786 57.89C18.4168 57.9094 18.4666 57.9094 18.5664 57.9094H19.4338C20.3081 57.9094 20.838 57.4458 20.838 56.6642C20.838 55.8694 20.3081 55.4191 19.4338 55.4191Z" fill="#2845C1"/>
<path d="M24.8547 59.4725C24.755 59.4725 24.7051 59.4725 24.667 59.4531C24.6335 59.436 24.6062 59.4087 24.5892 59.3752C24.5697 59.3371 24.5697 59.2872 24.5697 59.1875V50.485C24.5697 50.3852 24.5697 50.3353 24.5892 50.2972C24.6062 50.2637 24.6335 50.2364 24.667 50.2194C24.7051 50.2 24.755 50.2 24.8547 50.2H29.6893C29.7891 50.2 29.8389 50.2 29.877 50.2194C29.9106 50.2364 29.9378 50.2637 29.9549 50.2972C29.9743 50.3353 29.9743 50.3852 29.9743 50.485V51.478C29.9743 51.5778 29.9743 51.6277 29.9549 51.6658C29.9378 51.6993 29.9106 51.7265 29.877 51.7436C29.8389 51.763 29.7891 51.763 29.6893 51.763H26.7357C26.636 51.763 26.5861 51.763 26.548 51.7825C26.5145 51.7995 26.4872 51.8268 26.4702 51.8603C26.4507 51.8984 26.4507 51.9483 26.4507 52.048V53.677C26.4507 53.7767 26.4507 53.8266 26.4702 53.8647C26.4872 53.8982 26.5145 53.9255 26.548 53.9425C26.5861 53.962 26.636 53.962 26.7357 53.962H29.1594C29.2592 53.962 29.3091 53.962 29.3472 53.9814C29.3807 53.9984 29.408 54.0257 29.425 54.0592C29.4444 54.0973 29.4444 54.1472 29.4444 54.247V55.24C29.4444 55.3398 29.4444 55.3897 29.425 55.4278C29.408 55.4613 29.3807 55.4885 29.3472 55.5056C29.3091 55.525 29.2592 55.525 29.1594 55.525H26.7357C26.636 55.525 26.5861 55.525 26.548 55.5445C26.5145 55.5615 26.4872 55.5888 26.4702 55.6223C26.4507 55.6604 26.4507 55.7103 26.4507 55.81V57.6244C26.4507 57.7242 26.4507 57.774 26.4702 57.8121C26.4872 57.8457 26.5145 57.8729 26.548 57.89C26.5861 57.9094 26.636 57.9094 26.7357 57.9094H29.6893C29.7891 57.9094 29.8389 57.9094 29.877 57.9288C29.9106 57.9459 29.9378 57.9731 29.9549 58.0067C29.9743 58.0448 29.9743 58.0946 29.9743 58.1944V59.1875C29.9743 59.2872 29.9743 59.3371 29.9549 59.3752C29.9378 59.4087 29.9106 59.436 29.877 59.4531C29.8389 59.4725 29.7891 59.4725 29.6893 59.4725H24.8547Z" fill="#2845C1"/>
<path d="M31.5529 51.9087C31.4531 51.9087 31.4033 51.9087 31.3652 51.8893C31.3316 51.8723 31.3044 51.845 31.2873 51.8115C31.2679 51.7734 31.2679 51.7235 31.2679 51.6237V50.485C31.2679 50.3852 31.2679 50.3353 31.2873 50.2972C31.3044 50.2637 31.3316 50.2364 31.3652 50.2194C31.4033 50.2 31.4531 50.2 31.5529 50.2H38.5864C38.6861 50.2 38.736 50.2 38.7741 50.2194C38.8076 50.2364 38.8349 50.2637 38.852 50.2972C38.8714 50.3353 38.8714 50.3852 38.8714 50.485V51.6237C38.8714 51.7235 38.8714 51.7734 38.852 51.8115C38.8349 51.845 38.8076 51.8723 38.7741 51.8893C38.736 51.9087 38.6861 51.9087 38.5864 51.9087H36.2951C36.1954 51.9087 36.1455 51.9087 36.1074 51.9282C36.0739 51.9452 36.0466 51.9725 36.0296 52.006C36.0101 52.0441 36.0101 52.094 36.0101 52.1937V59.1875C36.0101 59.2872 36.0101 59.3371 35.9907 59.3752C35.9737 59.4087 35.9464 59.436 35.9129 59.4531C35.8748 59.4725 35.8249 59.4725 35.7251 59.4725H34.4141C34.3144 59.4725 34.2645 59.4725 34.2264 59.4531C34.1929 59.436 34.1656 59.4087 34.1486 59.3752C34.1291 59.3371 34.1291 59.2872 34.1291 59.1875V52.1937C34.1291 52.094 34.1291 52.0441 34.1097 52.006C34.0927 51.9725 34.0654 51.9452 34.0319 51.9282C33.9938 51.9087 33.9439 51.9087 33.8441 51.9087H31.5529Z" fill="#2845C1"/>
<path d="M38.7454 59.4725C38.6068 59.4725 38.5375 59.4725 38.493 59.4434C38.4541 59.4179 38.4268 59.3783 38.4167 59.3329C38.4052 59.281 38.4298 59.2162 38.4788 59.0866L41.7734 50.384C41.7985 50.3177 41.8111 50.2845 41.8327 50.26C41.8518 50.2384 41.8759 50.2218 41.9029 50.2115C41.9334 50.2 41.9689 50.2 42.0399 50.2H44.11C44.181 50.2 44.2165 50.2 44.2471 50.2115C44.274 50.2218 44.2981 50.2384 44.3172 50.26C44.3389 50.2845 44.3515 50.3177 44.3766 50.384L47.6711 59.0866C47.7202 59.2162 47.7447 59.281 47.7332 59.3329C47.7232 59.3783 47.6958 59.4179 47.6569 59.4434C47.6124 59.4725 47.5432 59.4725 47.4046 59.4725H46.0158C45.9441 59.4725 45.9083 59.4725 45.8776 59.4607C45.8504 59.4503 45.8262 59.4335 45.8071 59.4116C45.7854 59.3868 45.7731 59.3532 45.7483 59.2859L44.9981 57.2482C44.9734 57.1809 44.961 57.1473 44.9394 57.1225C44.9202 57.1007 44.896 57.0838 44.8689 57.0734C44.8382 57.0616 44.8023 57.0616 44.7307 57.0616H41.4192C41.3476 57.0616 41.3118 57.0616 41.281 57.0734C41.2539 57.0838 41.2297 57.1007 41.2106 57.1225C41.1889 57.1473 41.1765 57.1809 41.1518 57.2482L40.4016 59.2859C40.3769 59.3532 40.3645 59.3868 40.3428 59.4116C40.3237 59.4335 40.2995 59.4503 40.2724 59.4607C40.2416 59.4725 40.2058 59.4725 40.1342 59.4725H38.7454ZM41.943 55.0761C41.896 55.2048 41.8725 55.2692 41.8844 55.3206C41.8947 55.3656 41.9222 55.4049 41.9609 55.43C42.0052 55.4588 42.0737 55.4588 42.2107 55.4588H43.9392C44.0763 55.4588 44.1448 55.4588 44.189 55.43C44.2278 55.4049 44.2552 55.3656 44.2656 55.3206C44.2774 55.2692 44.2539 55.2048 44.2069 55.0761L43.3427 52.7084C43.2601 52.4823 43.2189 52.3692 43.1585 52.3372C43.1063 52.3094 43.0437 52.3094 42.9914 52.3372C42.9311 52.3692 42.8898 52.4823 42.8072 52.7084L41.943 55.0761Z" fill="#2845C1"/>
<defs>
<linearGradient id="paint0_linear_11386_15350" x1="32" y1="46" x2="32" y2="64" gradientUnits="userSpaceOnUse">
<stop stop-color="#2845C1"/>
<stop offset="1" stop-color="#EEF1F4"/>
</linearGradient>
</defs>
</svg>
