<svg width="32" height="32" viewBox="0 0 32 32" fill="none" xmlns="http://www.w3.org/2000/svg">
<path d="M27.6765 9.72627H8.41971C6.23248 9.72627 4.03303 11.4473 3.50711 13.5704L2 19.6543V7.84882C2 6.57794 2.29141 5.62077 2.87422 4.97729C3.46451 4.32576 4.28269 4 5.32877 4H8.50063C8.88917 4 9.22541 4.02815 9.50935 4.08446C9.79328 4.14076 10.0548 4.23728 10.2939 4.37402C10.533 4.50272 10.7833 4.6837 11.0448 4.91696L11.6837 5.48403C11.9975 5.74946 12.2927 5.93848 12.5691 6.05109C12.8456 6.1637 13.1856 6.22001 13.5891 6.22001H24.0125C25.2155 6.22001 26.1271 6.55381 26.7472 7.22142C27.3035 7.81312 27.6133 8.64807 27.6765 9.72627Z" fill="#C83F49"/>
<path d="M5.67656 27C4.46609 27 3.6366 26.6536 3.18806 25.9607C2.73746 25.2761 2.6776 24.266 3.00848 22.9303L5.32709 13.5705C5.61138 12.4229 6.80027 11.4926 7.98256 11.4926H29.3898C30.5721 11.4926 31.3001 12.4229 31.0158 13.5705L28.6972 22.9303C28.3663 24.266 27.8172 25.2761 27.0499 25.9607C26.2805 26.6536 25.3615 27 24.293 27H5.67656Z" fill="#2845C1"/>
<rect x="10" y="22" width="12" height="9" rx="4.5" fill="#EEF1F4"/>
<rect x="10" y="22" width="12" height="9" rx="4.5" fill="url(#paint0_linear_1156_814)" fill-opacity="0.1"/>
<path d="M18.9901 29.2782C18.7635 29.3485 18.5616 29.3864 18.3842 29.3864C17.7931 29.3864 17.3941 28.9103 17.1921 27.9527H17.1675C16.6798 28.986 15.9951 29.5 15.133 29.5C14.4877 29.5 13.9704 29.2349 13.5813 28.6993C13.1921 28.1637 13 27.4928 13 26.6812C13 25.7344 13.2217 24.977 13.6601 24.3873C14.0985 23.7976 14.6946 23.5 15.4483 23.5C15.8522 23.5 16.2167 23.6244 16.532 23.8679C16.8473 24.1168 17.0887 24.463 17.2562 24.9121H17.2759L17.6256 23.6136H18.8867L17.8325 26.4919C17.9507 27.1628 18.0739 27.6226 18.2118 27.8661C18.33 28.1096 18.4975 28.234 18.7044 28.234C18.8227 28.234 18.9163 28.2124 19 28.1745L18.9901 29.2782ZM16.8916 26.4432C16.7882 25.8318 16.6207 25.3557 16.3941 25.0311C16.1724 24.7011 15.9015 24.5388 15.5911 24.5388C15.1872 24.5388 14.8621 24.739 14.6207 25.1339C14.3793 25.5343 14.2709 26.0266 14.2709 26.6055C14.2709 27.1357 14.3645 27.5739 14.5764 27.931C14.7833 28.2881 15.064 28.4612 15.4138 28.4612C15.7094 28.4612 15.9803 28.3043 16.2217 28.0068C16.468 27.6984 16.67 27.2493 16.8325 26.6596L16.8916 26.4432Z" fill="#C83F49"/>
<defs>
<linearGradient id="paint0_linear_1156_814" x1="16" y1="22" x2="16" y2="31" gradientUnits="userSpaceOnUse">
<stop stop-color="#C83F49"/>
<stop offset="1" stop-color="#EEF1F4"/>
</linearGradient>
</defs>
</svg>
