<svg width="142" height="33" viewBox="0 0 142 33" fill="none" xmlns="http://www.w3.org/2000/svg">
<path d="M27.6765 10.4763H8.41971C6.23248 10.4763 4.03303 12.1973 3.50711 14.3204L2 20.4043V8.59882C2 7.32794 2.29141 6.37077 2.87422 5.72729C3.46451 5.07576 4.28269 4.75 5.32877 4.75H8.50063C8.88917 4.75 9.22541 4.77815 9.50935 4.83446C9.79328 4.89076 10.0548 4.98728 10.2939 5.12402C10.533 5.25272 10.7833 5.4337 11.0448 5.66696L11.6837 6.23403C11.9975 6.49946 12.2927 6.68848 12.5691 6.80109C12.8456 6.9137 13.1856 6.97001 13.5891 6.97001H24.0125C25.2155 6.97001 26.1271 7.30381 26.7472 7.97142C27.3035 8.56312 27.6133 9.39807 27.6765 10.4763Z" fill="#D3343F"/>
<path d="M5.67656 27.75C4.46609 27.75 3.6366 27.4036 3.18806 26.7107C2.73746 26.0261 2.6776 25.016 3.00848 23.6803L5.32709 14.3205C5.61138 13.1729 6.80027 12.2426 7.98256 12.2426H29.3898C30.5721 12.2426 31.3001 13.1729 31.0158 14.3205L28.6972 23.6803C28.3663 25.016 27.8172 26.0261 27.0499 26.7107C26.2805 27.4036 25.3615 27.75 24.293 27.75H5.67656Z" fill="#2020AE"/>
<path d="M38.266 24.75V9.35H47.242V11.946H41.39V15.598H46.362V18.194H41.39V24.75H38.266ZM51.0253 11.726C50.0353 11.726 49.1993 10.89 49.1993 9.9C49.1993 8.91 50.0353 8.074 51.0253 8.074C52.0153 8.074 52.8293 8.91 52.8293 9.9C52.8293 10.89 52.0153 11.726 51.0253 11.726ZM49.6173 24.75V13.662H52.4113V24.75H49.6173ZM61.0858 22.55C62.1858 22.55 63.0658 22.044 63.5938 21.274L65.7718 22.946C64.7378 24.31 63.1098 25.19 61.0858 25.19C57.2578 25.19 54.9698 22.44 54.9698 19.206C54.9698 15.972 57.2578 13.222 61.0858 13.222C63.1098 13.222 64.7378 14.102 65.7718 15.466L63.5938 17.138C63.0658 16.368 62.1858 15.862 61.0418 15.862C59.2158 15.862 57.8738 17.27 57.8738 19.206C57.8738 21.164 59.2158 22.55 61.0858 22.55ZM67.8575 24.75V8.25H70.6515V14.542C71.4215 13.794 72.4555 13.222 73.9295 13.222C76.3275 13.222 78.2415 14.872 78.2415 18.15V24.75H75.4255V18.26C75.4255 16.786 74.6115 15.862 73.2255 15.862C71.8175 15.862 71.0695 16.808 70.6515 17.512V24.75H67.8575ZM82.8222 11.726C81.8322 11.726 80.9962 10.89 80.9962 9.9C80.9962 8.91 81.8322 8.074 82.8222 8.074C83.8122 8.074 84.6262 8.91 84.6262 9.9C84.6262 10.89 83.8122 11.726 82.8222 11.726ZM81.4142 24.75V13.662H84.2082V24.75H81.4142ZM97.7667 22.946C96.7327 24.332 95.0167 25.19 92.9267 25.19C88.9887 25.19 86.7667 22.44 86.7667 19.206C86.7667 15.928 88.8347 13.222 92.4647 13.222C95.5447 13.222 97.5687 15.312 97.5687 18.216C97.5687 18.832 97.4807 19.404 97.3927 19.778H89.6267C89.8907 21.846 91.1667 22.682 92.9047 22.682C94.1147 22.682 95.1707 22.154 95.7647 21.362L97.7667 22.946ZM92.3987 15.51C90.9687 15.51 90.0227 16.302 89.7147 17.754H94.8187C94.7747 16.632 93.9607 15.51 92.3987 15.51ZM100.299 24.75V13.662H103.093V14.762C103.819 14.014 104.765 13.442 106.019 13.442C106.393 13.442 106.723 13.508 106.987 13.596V16.346C106.635 16.258 106.261 16.192 105.755 16.192C104.391 16.192 103.511 16.94 103.093 17.644V24.75H100.299ZM108.268 23.144L110.116 21.472C110.798 22.33 111.612 22.946 112.668 22.946C113.57 22.946 114.032 22.418 114.032 21.758C114.032 19.822 108.73 20.548 108.73 16.654C108.73 14.696 110.38 13.222 112.69 13.222C114.384 13.222 115.924 14.036 116.716 15.114L114.868 16.742C114.296 16.038 113.57 15.466 112.712 15.466C111.832 15.466 111.414 15.95 111.414 16.522C111.414 18.414 116.716 17.754 116.716 21.582C116.672 23.914 114.802 25.19 112.712 25.19C110.732 25.19 109.324 24.398 108.268 23.144Z" fill="#2020AE"/>
<rect x="122" y="8.75" width="20" height="16" rx="8" fill="#FBDBDD"/>
<rect x="122" y="8.75" width="20" height="16" rx="8" fill="white" fill-opacity="0.5"/>
<path d="M135.987 20.4542C135.685 20.548 135.415 20.5985 135.179 20.5985C134.391 20.5985 133.859 19.9637 133.589 18.6869H133.557C132.906 20.0647 131.993 20.75 130.844 20.75C129.984 20.75 129.294 20.3965 128.775 19.6824C128.256 18.9682 128 18.0737 128 16.9917C128 15.7293 128.296 14.7193 128.88 13.933C129.465 13.1468 130.259 12.75 131.264 12.75C131.803 12.75 132.289 12.9159 132.709 13.2405C133.13 13.5724 133.452 14.034 133.675 14.6328H133.701L134.167 12.9015H135.849L134.443 16.7392C134.601 17.6337 134.765 18.2468 134.949 18.5715C135.107 18.8961 135.33 19.062 135.606 19.062C135.764 19.062 135.888 19.0331 136 18.9826L135.987 20.4542ZM133.189 16.6743C133.051 15.8591 132.828 15.2243 132.525 14.7915C132.23 14.3514 131.869 14.135 131.455 14.135C130.916 14.135 130.483 14.4019 130.161 14.9285C129.839 15.4624 129.695 16.1188 129.695 16.8907C129.695 17.5976 129.819 18.1819 130.102 18.658C130.378 19.1341 130.752 19.365 131.218 19.365C131.612 19.365 131.974 19.1558 132.296 18.759C132.624 18.3478 132.893 17.7491 133.11 16.9628L133.189 16.6743Z" fill="#C0000D"/>
</svg>
