<svg width="102" height="40" viewBox="0 0 102 40" fill="none" xmlns="http://www.w3.org/2000/svg">
<path d="M31.6765 13.7263H12.4197C10.2325 13.7263 8.03303 15.4473 7.50711 17.5704L6 23.6543V11.8488C6 10.5779 6.29141 9.62077 6.87422 8.97729C7.46451 8.32576 8.28269 8 9.32877 8H12.5006C12.8892 8 13.2254 8.02815 13.5093 8.08446C13.7933 8.14076 14.0548 8.23728 14.2939 8.37402C14.533 8.50272 14.7833 8.6837 15.0448 8.91696L15.6837 9.48403C15.9975 9.74946 16.2927 9.93848 16.5691 10.0511C16.8456 10.1637 17.1856 10.22 17.5891 10.22H28.0125C29.2155 10.22 30.1271 10.5538 30.7472 11.2214C31.3035 11.8131 31.6133 12.6481 31.6765 13.7263Z" fill="#C83F49"/>
<path d="M9.67656 31C8.46609 31 7.6366 30.6536 7.18806 29.9607C6.73746 29.2761 6.6776 28.266 7.00848 26.9303L9.32709 17.5705C9.61138 16.4229 10.8003 15.4926 11.9826 15.4926H33.3898C34.5721 15.4926 35.3001 16.4229 35.0158 17.5705L32.6972 26.9303C32.3663 28.266 31.8172 29.2761 31.0499 29.9607C30.2805 30.6536 29.3615 31 28.293 31H9.67656Z" fill="#2845C1"/>
<rect x="8" y="27" width="24" height="9" rx="4.5" fill="#EEF1F4"/>
<rect x="8" y="27" width="24" height="9" rx="4.5" fill="url(#paint0_linear_11876_15925)" fill-opacity="0.1"/>
<path d="M12.3427 33.7362C12.2928 33.7362 12.2679 33.7362 12.2488 33.7265C12.2321 33.718 12.2184 33.7044 12.2099 33.6876C12.2002 33.6686 12.2002 33.6436 12.2002 33.5937V29.2425C12.2002 29.1926 12.2002 29.1677 12.2099 29.1486C12.2184 29.1318 12.2321 29.1182 12.2488 29.1097C12.2679 29.1 12.2928 29.1 12.3427 29.1H13.5646C14.5316 29.1 15.121 29.5768 15.121 30.3584C15.121 30.648 15.0197 30.9064 14.826 31.1068C14.7574 31.1777 14.7232 31.2131 14.7174 31.2364C14.7112 31.2615 14.7125 31.274 14.7239 31.2972C14.7345 31.3187 14.7742 31.3451 14.8534 31.3978C15.1983 31.6275 15.386 31.9699 15.386 32.3719C15.386 33.2196 14.7303 33.7362 13.6639 33.7362H12.3427ZM13.5845 29.8815H13.2832C13.2333 29.8815 13.2084 29.8815 13.1893 29.8912C13.1726 29.8998 13.1589 29.9134 13.1504 29.9301C13.1407 29.9492 13.1407 29.9741 13.1407 30.024V30.7855C13.1407 30.8354 13.1407 30.8603 13.1504 30.8794C13.1589 30.8961 13.1726 30.9097 13.1893 30.9183C13.2084 30.928 13.2333 30.928 13.2832 30.928H13.5845C13.9421 30.928 14.1541 30.7359 14.1541 30.3981C14.1541 30.0736 13.9421 29.8815 13.5845 29.8815ZM13.7169 31.7095H13.2832C13.2333 31.7095 13.2084 31.7095 13.1893 31.7192C13.1726 31.7278 13.1589 31.7414 13.1504 31.7582C13.1407 31.7772 13.1407 31.8022 13.1407 31.852V32.8122C13.1407 32.8621 13.1407 32.887 13.1504 32.9061C13.1589 32.9228 13.1726 32.9365 13.1893 32.945C13.2084 32.9547 13.2333 32.9547 13.2832 32.9547H13.7169C14.1541 32.9547 14.419 32.7229 14.419 32.3321C14.419 31.9347 14.1541 31.7095 13.7169 31.7095Z" fill="#2845C1"/>
<path d="M16.4274 33.7362C16.3775 33.7362 16.3526 33.7362 16.3335 33.7265C16.3167 33.718 16.3031 33.7044 16.2946 33.6876C16.2849 33.6686 16.2849 33.6436 16.2849 33.5937V29.2425C16.2849 29.1926 16.2849 29.1677 16.2946 29.1486C16.3031 29.1318 16.3167 29.1182 16.3335 29.1097C16.3526 29.1 16.3775 29.1 16.4274 29.1H18.8447C18.8945 29.1 18.9195 29.1 18.9385 29.1097C18.9553 29.1182 18.9689 29.1318 18.9774 29.1486C18.9872 29.1677 18.9872 29.1926 18.9872 29.2425V29.739C18.9872 29.7889 18.9872 29.8138 18.9774 29.8329C18.9689 29.8496 18.9553 29.8633 18.9385 29.8718C18.9195 29.8815 18.8945 29.8815 18.8447 29.8815H17.3679C17.318 29.8815 17.2931 29.8815 17.274 29.8912C17.2572 29.8998 17.2436 29.9134 17.2351 29.9301C17.2254 29.9492 17.2254 29.9741 17.2254 30.024V30.8385C17.2254 30.8884 17.2254 30.9133 17.2351 30.9323C17.2436 30.9491 17.2572 30.9627 17.274 30.9713C17.2931 30.981 17.318 30.981 17.3679 30.981H18.5797C18.6296 30.981 18.6545 30.981 18.6736 30.9907C18.6904 30.9992 18.704 31.0128 18.7125 31.0296C18.7222 31.0487 18.7222 31.0736 18.7222 31.1235V31.62C18.7222 31.6699 18.7222 31.6948 18.7125 31.7139C18.704 31.7306 18.6904 31.7443 18.6736 31.7528C18.6545 31.7625 18.6296 31.7625 18.5797 31.7625H17.3679C17.318 31.7625 17.2931 31.7625 17.274 31.7722C17.2572 31.7808 17.2436 31.7944 17.2351 31.8111C17.2254 31.8302 17.2254 31.8551 17.2254 31.905V32.8122C17.2254 32.8621 17.2254 32.887 17.2351 32.9061C17.2436 32.9228 17.2572 32.9365 17.274 32.945C17.2931 32.9547 17.318 32.9547 17.3679 32.9547H18.8447C18.8945 32.9547 18.9195 32.9547 18.9385 32.9644C18.9553 32.9729 18.9689 32.9866 18.9774 33.0033C18.9872 33.0224 18.9872 33.0473 18.9872 33.0972V33.5937C18.9872 33.6436 18.9872 33.6686 18.9774 33.6876C18.9689 33.7044 18.9553 33.718 18.9385 33.7265C18.9195 33.7362 18.8945 33.7362 18.8447 33.7362H16.4274Z" fill="#2845C1"/>
<path d="M19.7765 29.9544C19.7266 29.9544 19.7016 29.9544 19.6826 29.9447C19.6658 29.9361 19.6522 29.9225 19.6437 29.9057C19.634 29.8867 19.634 29.8618 19.634 29.8119V29.2425C19.634 29.1926 19.634 29.1677 19.6437 29.1486C19.6522 29.1318 19.6658 29.1182 19.6826 29.1097C19.7016 29.1 19.7266 29.1 19.7765 29.1H23.2932C23.3431 29.1 23.368 29.1 23.3871 29.1097C23.4038 29.1182 23.4174 29.1318 23.426 29.1486C23.4357 29.1677 23.4357 29.1926 23.4357 29.2425V29.8119C23.4357 29.8618 23.4357 29.8867 23.426 29.9057C23.4174 29.9225 23.4038 29.9361 23.3871 29.9447C23.368 29.9544 23.3431 29.9544 23.2932 29.9544H22.1476C22.0977 29.9544 22.0728 29.9544 22.0537 29.9641C22.0369 29.9726 22.0233 29.9862 22.0148 30.003C22.0051 30.0221 22.0051 30.047 22.0051 30.0969V33.5937C22.0051 33.6436 22.0051 33.6686 21.9954 33.6876C21.9868 33.7044 21.9732 33.718 21.9564 33.7265C21.9374 33.7362 21.9125 33.7362 21.8626 33.7362H21.2071C21.1572 33.7362 21.1323 33.7362 21.1132 33.7265C21.0964 33.718 21.0828 33.7044 21.0743 33.6876C21.0646 33.6686 21.0646 33.6436 21.0646 33.5937V30.0969C21.0646 30.047 21.0646 30.0221 21.0549 30.003C21.0463 29.9862 21.0327 29.9726 21.0159 29.9641C20.9969 29.9544 20.972 29.9544 20.9221 29.9544H19.7765Z" fill="#2845C1"/>
<path d="M23.3727 33.7362C23.3034 33.7362 23.2687 33.7362 23.2465 33.7217C23.2271 33.709 23.2134 33.6891 23.2084 33.6664C23.2026 33.6405 23.2149 33.6081 23.2394 33.5433L24.8867 29.192C24.8992 29.1588 24.9055 29.1422 24.9163 29.13C24.9259 29.1192 24.938 29.1109 24.9514 29.1058C24.9667 29.1 24.9845 29.1 25.0199 29.1H26.055C26.0905 29.1 26.1083 29.1 26.1235 29.1058C26.137 29.1109 26.1491 29.1192 26.1586 29.13C26.1694 29.1422 26.1757 29.1588 26.1883 29.192L27.8356 33.5433C27.8601 33.6081 27.8724 33.6405 27.8666 33.6664C27.8616 33.6891 27.8479 33.709 27.8285 33.7217C27.8062 33.7362 27.7716 33.7362 27.7023 33.7362H27.0079C26.9721 33.7362 26.9542 33.7362 26.9388 33.7304C26.9252 33.7252 26.9131 33.7167 26.9035 33.7058C26.8927 33.6934 26.8865 33.6766 26.8742 33.643L26.4991 32.6241C26.4867 32.5905 26.4805 32.5737 26.4697 32.5613C26.4601 32.5503 26.448 32.5419 26.4344 32.5367C26.4191 32.5308 26.4012 32.5308 26.3653 32.5308H24.7096C24.6738 32.5308 24.6559 32.5308 24.6405 32.5367C24.6269 32.5419 24.6148 32.5503 24.6053 32.5613C24.5945 32.5737 24.5883 32.5905 24.5759 32.6241L24.2008 33.643C24.1884 33.6766 24.1822 33.6934 24.1714 33.7058C24.1619 33.7167 24.1498 33.7252 24.1362 33.7304C24.1208 33.7362 24.1029 33.7362 24.0671 33.7362H23.3727ZM24.9715 31.538C24.948 31.6024 24.9363 31.6346 24.9422 31.6603C24.9474 31.6828 24.9611 31.7024 24.9804 31.715C25.0026 31.7294 25.0368 31.7294 25.1054 31.7294H25.9696C26.0381 31.7294 26.0724 31.7294 26.0945 31.715C26.1139 31.7024 26.1276 31.6828 26.1328 31.6603C26.1387 31.6346 26.127 31.6024 26.1035 31.538L25.6713 30.3542C25.6301 30.2411 25.6094 30.1846 25.5793 30.1686C25.5531 30.1547 25.5218 30.1547 25.4957 30.1686C25.4655 30.1846 25.4449 30.2411 25.4036 30.3542L24.9715 31.538Z" fill="#2845C1"/>
<path fill-rule="evenodd" clip-rule="evenodd" d="M91.3467 15.7259C92.1364 15.7259 92.8504 15.8544 93.4883 16.1126C94.1263 16.3708 94.6732 16.7282 95.1289 17.1839C95.5998 17.6396 95.9571 18.1792 96.2002 18.802C96.4431 19.4247 96.5644 20.1005 96.5645 20.8294C96.5645 21.1028 96.5489 21.369 96.5186 21.6272C96.4966 21.8142 96.4709 21.9773 96.4411 22.1164C96.4222 22.2046 96.3427 22.2649 96.2525 22.2649H88.255C88.1388 22.2649 88.0468 22.3636 88.059 22.479C88.1228 23.083 88.2681 23.6042 88.498 24.0423C88.817 24.6499 89.2655 25.1056 89.8428 25.4094C90.42 25.7132 91.0736 25.8655 91.8027 25.8655C92.4859 25.8654 93.1008 25.7285 93.6475 25.4553C94.1403 25.2156 94.546 24.9055 94.8638 24.5255C94.9367 24.4383 95.0662 24.4206 95.155 24.4915L96.6407 25.6765C96.7251 25.7438 96.7411 25.8661 96.6737 25.9503C96.1592 26.5929 95.5075 27.1117 94.7188 27.5061C93.8682 27.9162 92.9036 28.1213 91.8252 28.1214C90.4884 28.1214 89.349 27.8397 88.4072 27.2776C87.4655 26.7004 86.7435 25.9411 86.2422 24.9993C85.741 24.0575 85.4902 23.032 85.4902 21.9231C85.4902 21.0574 85.6197 20.2523 85.8779 19.5081C86.1514 18.7637 86.5388 18.1102 87.04 17.5481C87.5413 16.971 88.1567 16.5233 88.8857 16.2044C89.6149 15.8854 90.4352 15.7259 91.3467 15.7259ZM91.2783 17.7991C90.6099 17.7991 90.0247 17.9513 89.5234 18.2552C89.0376 18.5589 88.6654 19.0067 88.4072 19.5989C88.3237 19.7856 88.2544 19.9869 88.1983 20.2024C88.1664 20.3251 88.2615 20.4417 88.3882 20.4417H93.8941C94.0071 20.4417 94.0984 20.3481 94.0865 20.2357C94.0486 19.8758 93.9408 19.5346 93.7617 19.2122C93.5491 18.787 93.238 18.445 92.8281 18.1868C92.418 17.9286 91.9011 17.7991 91.2783 17.7991Z" fill="#2845C1"/>
<path fill-rule="evenodd" clip-rule="evenodd" d="M50.2207 11.7253C51.4814 11.7254 52.6283 11.9378 53.6611 12.363C54.6941 12.7884 55.5828 13.3736 56.3271 14.1179C57.0867 14.847 57.6636 15.6902 58.0586 16.6472C58.4687 17.6042 58.6738 18.6224 58.6738 19.7009C58.6738 20.7793 58.4687 21.7968 58.0586 22.7537C57.6637 23.7106 57.0866 24.5611 56.3271 25.3054C55.5828 26.0346 54.6941 26.6125 53.6611 27.0378C52.6283 27.4631 51.4814 27.6755 50.2207 27.6755H44.2C44.0895 27.6755 44 27.586 44 27.4755V11.9253C44 11.8149 44.0895 11.7253 44.2 11.7253H50.2207ZM46.8027 24.9462C46.8027 25.0567 46.8923 25.1462 47.0027 25.1462H50.2432C51.0481 25.1462 51.7848 25.0094 52.4531 24.7361C53.1366 24.4475 53.7219 24.0527 54.208 23.5515C54.7093 23.0502 55.0967 22.4723 55.3701 21.8191C55.6434 21.1661 55.7802 20.4601 55.7803 19.7009C55.7803 18.9415 55.6434 18.2349 55.3701 17.5818C55.0967 16.9134 54.7093 16.3355 54.208 15.8494C53.7219 15.3482 53.1366 14.9607 52.4531 14.6873C51.7849 14.3988 51.0481 14.2546 50.2432 14.2546H47.0027C46.8923 14.2546 46.8027 14.3442 46.8027 14.4546V24.9462Z" fill="#2845C1"/>
<path d="M66.5557 15.9636C66.7531 15.9636 66.9355 15.9791 67.1025 16.0095C67.2154 16.03 67.3215 16.0537 67.4207 16.081C67.5037 16.1038 67.5586 16.1809 67.5586 16.267V18.3276C67.5586 18.4577 67.4363 18.5532 67.3088 18.5273C67.2042 18.5061 67.0973 18.4872 66.9883 18.4705C66.8061 18.4401 66.5861 18.4246 66.3281 18.4246C65.8573 18.4246 65.4315 18.5002 65.0518 18.6521C64.6872 18.804 64.3681 19.0092 64.0947 19.2673C63.8927 19.447 63.7154 19.6433 63.5631 19.8561C63.4576 20.0035 63.4111 20.1834 63.4111 20.3647V27.4755C63.4111 27.586 63.3216 27.6755 63.2111 27.6755H61.1043C60.9938 27.6755 60.9043 27.586 60.9043 27.4755V16.3912C60.9043 16.2807 60.9938 16.1912 61.1043 16.1912H63.2111C63.3216 16.1912 63.4111 16.2807 63.4111 16.3912V17.1956C63.4111 17.2867 63.5239 17.3312 63.5879 17.2664C63.715 17.1374 63.8457 17.0146 63.9805 16.8982C64.3146 16.6096 64.6948 16.3817 65.1201 16.2146C65.5455 16.0475 66.024 15.9636 66.5557 15.9636Z" fill="#2845C1"/>
<path d="M71.8955 27.4755C71.8955 27.586 71.806 27.6755 71.6955 27.6755H69.5887C69.4782 27.6755 69.3887 27.586 69.3887 27.4755V16.3912C69.3887 16.2807 69.4782 16.1912 69.5887 16.1912H71.6955C71.806 16.1912 71.8955 16.2807 71.8955 16.3912V27.4755Z" fill="#2845C1"/>
<path d="M79.1257 24.4913C79.1586 24.577 79.2801 24.5767 79.3126 24.4908L82.4062 16.3203C82.4356 16.2426 82.5101 16.1912 82.5932 16.1912H84.8774C85.0171 16.1912 85.1137 16.3306 85.0647 16.4614L80.909 27.5457C80.8797 27.6238 80.8051 27.6755 80.7217 27.6755H77.6943C77.6109 27.6755 77.5363 27.6238 77.507 27.5457L73.3513 16.4614C73.3023 16.3306 73.3989 16.1912 73.5386 16.1912H75.801C75.8838 16.1912 75.9581 16.2422 75.9877 16.3195L79.1257 24.4913Z" fill="#2845C1"/>
<path d="M70.665 10.45C70.9688 10.45 71.2424 10.5256 71.4854 10.6775C71.7435 10.8294 71.9405 11.0346 72.0771 11.2927C72.2291 11.5358 72.3057 11.8092 72.3057 12.113C72.3056 12.4168 72.229 12.6976 72.0771 12.9558C71.9405 13.2139 71.7435 13.4192 71.4854 13.571C71.2424 13.7077 70.9688 13.7761 70.665 13.7761C70.3612 13.7761 70.0795 13.7078 69.8213 13.571C69.5632 13.4192 69.3579 13.2139 69.2061 12.9558C69.0543 12.6977 68.9786 12.4167 68.9785 12.113C68.9785 11.6574 69.1381 11.2699 69.457 10.9509C69.7912 10.6167 70.1941 10.45 70.665 10.45Z" fill="#2845C1"/>
<defs>
<linearGradient id="paint0_linear_11876_15925" x1="20" y1="27" x2="20" y2="36" gradientUnits="userSpaceOnUse">
<stop stop-color="#2845C1"/>
<stop offset="1" stop-color="#EEF1F4"/>
</linearGradient>
</defs>
</svg>
