<svg width="19" height="21" viewBox="0 0 19 21" fill="none" xmlns="http://www.w3.org/2000/svg">
<path d="M6.41992 17.7939C6.22819 17.7939 6.07357 17.7414 5.95605 17.6362C5.83854 17.5249 5.77669 17.3765 5.77051 17.1909L5.49219 7.46826C5.486 7.2889 5.54167 7.14355 5.65918 7.03223C5.77669 6.91471 5.93131 6.85596 6.12305 6.85596C6.31478 6.85596 6.4694 6.91162 6.58691 7.02295C6.70443 7.13428 6.76318 7.27962 6.76318 7.45898L7.05078 17.1816C7.05078 17.3672 6.99202 17.5156 6.87451 17.627C6.76318 17.7383 6.61165 17.7939 6.41992 17.7939ZM9.14746 17.7939C8.95573 17.7939 8.79801 17.7383 8.67432 17.627C8.5568 17.5156 8.49805 17.3703 8.49805 17.1909V7.46826C8.49805 7.2889 8.5568 7.14355 8.67432 7.03223C8.79801 6.91471 8.95573 6.85596 9.14746 6.85596C9.34538 6.85596 9.50309 6.91471 9.62061 7.03223C9.7443 7.14355 9.80615 7.2889 9.80615 7.46826V17.1909C9.80615 17.3703 9.7443 17.5156 9.62061 17.627C9.50309 17.7383 9.34538 17.7939 9.14746 17.7939ZM11.8843 17.7939C11.6864 17.7939 11.5286 17.7383 11.4111 17.627C11.2998 17.5156 11.2472 17.3672 11.2534 17.1816L11.5317 7.46826C11.5379 7.28271 11.5998 7.13428 11.7173 7.02295C11.8348 6.91162 11.9863 6.85596 12.1719 6.85596C12.3698 6.85596 12.5244 6.91471 12.6357 7.03223C12.7533 7.14355 12.8089 7.2889 12.8027 7.46826L12.5244 17.1909C12.5182 17.3765 12.4564 17.5249 12.3389 17.6362C12.2214 17.7414 12.0698 17.7939 11.8843 17.7939ZM4.93555 4.26758V2.26367C4.93555 1.55241 5.14893 0.998861 5.57568 0.603027C6.00863 0.201009 6.60856 0 7.37549 0H10.9009C11.6678 0 12.2677 0.201009 12.7007 0.603027C13.1336 0.998861 13.3501 1.55241 13.3501 2.26367V4.26758H11.6338V2.34717C11.6338 2.11214 11.5565 1.9235 11.4019 1.78125C11.2472 1.63281 11.04 1.55859 10.7803 1.55859H7.49609C7.24251 1.55859 7.03841 1.63281 6.88379 1.78125C6.72917 1.9235 6.65186 2.11214 6.65186 2.34717V4.26758H4.93555ZM0.825684 5.28809C0.596842 5.28809 0.402018 5.20768 0.241211 5.04688C0.0804036 4.88607 0 4.69124 0 4.4624C0 4.23975 0.0804036 4.05111 0.241211 3.89648C0.402018 3.73568 0.596842 3.65527 0.825684 3.65527H17.4785C17.7074 3.65527 17.8991 3.73258 18.0537 3.88721C18.2145 4.04183 18.2949 4.23356 18.2949 4.4624C18.2949 4.69124 18.2145 4.88607 18.0537 5.04688C17.8991 5.20768 17.7074 5.28809 17.4785 5.28809H0.825684ZM4.88916 20.939C4.17171 20.939 3.59652 20.738 3.16357 20.3359C2.73682 19.9339 2.50798 19.3742 2.47705 18.6567L1.82764 5.11182H3.52539L4.16553 18.3691C4.1779 18.6413 4.26758 18.8639 4.43457 19.0371C4.60156 19.2103 4.81494 19.2969 5.07471 19.2969H13.2202C13.48 19.2969 13.6934 19.2103 13.8604 19.0371C14.0273 18.8701 14.117 18.6475 14.1294 18.3691L14.7417 5.11182H16.4673L15.8271 18.6475C15.7962 19.3649 15.5643 19.9246 15.1313 20.3267C14.6984 20.7349 14.1263 20.939 13.415 20.939H4.88916Z" fill="#222631"/>
</svg>
