<svg width="250" height="250" viewBox="0 0 250 250" fill="none" xmlns="http://www.w3.org/2000/svg">
<g clip-path="url(#clip0_10627_25948)" filter="url(#filter0_n_10627_25948)">
<g clip-path="url(#clip1_10627_25948)">
<path fill-rule="evenodd" clip-rule="evenodd" d="M219.527 62.0468C199.651 23.5713 153.444 5.41728 106.835 14.1424C65.2755 21.9223 40.8514 59.0399 29.5582 97.6086C15.8692 144.359 3.43853 200.568 45.1747 224.725C92.7854 252.283 158.713 236.758 201.304 197.018C240.301 160.633 241.964 105.483 219.527 62.0468Z" fill="white"/>
<path fill-rule="evenodd" clip-rule="evenodd" d="M219.527 62.0468C199.651 23.5713 153.444 5.41728 106.835 14.1424C65.2755 21.9223 40.8514 59.0399 29.5582 97.6086C15.8692 144.359 3.43853 200.568 45.1747 224.725C92.7854 252.283 158.713 236.758 201.304 197.018C240.301 160.633 241.964 105.483 219.527 62.0468Z" fill="#F6F8F9" fill-opacity="0.8"/>
<path d="M203.185 195.221C202.568 195.825 201.942 196.424 201.305 197.019C158.714 236.758 92.7856 252.284 45.1749 224.726C32.5736 217.432 24.9114 207.216 20.7296 195.221H203.185Z" fill="#626A80"/>
<path d="M203.185 195.221C202.568 195.825 201.942 196.424 201.305 197.019C158.714 236.758 92.7856 252.284 45.1749 224.726C32.5736 217.432 24.9114 207.216 20.7296 195.221H203.185Z" fill="#F6F8F9" fill-opacity="0.9"/>
</g>
<path d="M112.23 168.955L107.373 171.339L23.7788 118.863C25.5668 111.724 27.5485 104.656 29.5581 97.793C33.1273 85.6035 38.0089 73.5593 44.3276 62.54L112.23 168.955ZM106.834 14.3262C125.286 10.872 143.675 11.6311 160.392 16.1953L125.416 144.748L217.993 59.3955C218.52 60.3281 219.032 61.2726 219.527 62.2305C231.038 84.5145 236.204 109.882 233.242 134.217L120.054 166.072L109.651 159.283L118.994 150.67H107.58L83.6938 22.4131C90.7289 18.6718 98.4314 15.8992 106.834 14.3262Z" fill="#DFE2EA"/>
<path d="M112.23 168.955L107.373 171.339L23.7788 118.863C25.5668 111.724 27.5485 104.656 29.5581 97.793C33.1273 85.6035 38.0089 73.5593 44.3276 62.54L112.23 168.955ZM106.834 14.3262C125.286 10.872 143.675 11.6311 160.392 16.1953L125.416 144.748L217.993 59.3955C218.52 60.3281 219.032 61.2726 219.527 62.2305C231.038 84.5145 236.204 109.882 233.242 134.217L120.054 166.072L109.651 159.283L118.994 150.67H107.58L83.6938 22.4131C90.7289 18.6718 98.4314 15.8992 106.834 14.3262Z" fill="#F6F8F9" fill-opacity="0.8"/>
<rect x="92.6431" y="193.991" width="18.6022" height="1.24015" fill="#626A80"/>
<rect x="92.6431" y="193.991" width="18.6022" height="1.24015" fill="#F6F8F9" fill-opacity="0.45"/>
<rect x="111.245" y="193.991" width="10.1279" height="1.24015" fill="#626A80"/>
<rect x="111.245" y="193.991" width="10.1279" height="1.24015" fill="#F6F8F9" fill-opacity="0.15"/>
<path d="M109.488 183.656H122.717L119.72 193.991H106.491L109.488 183.656Z" fill="#626A80"/>
<path d="M109.488 183.656H122.717L119.72 193.991H106.491L109.488 183.656Z" fill="#F6F8F9" fill-opacity="0.45"/>
<path d="M122.717 183.656H124.887L121.477 195.231H119.306L122.717 183.656Z" fill="#626A80"/>
<path d="M122.717 183.656H124.887L121.477 195.231H119.306L122.717 183.656Z" fill="#F6F8F9" fill-opacity="0.15"/>
<path d="M159.974 131.517L146.869 182.569C146.704 183.209 146.128 183.656 145.467 183.656H140.079L153.824 129.71H158.573C159.518 129.71 160.209 130.601 159.974 131.517Z" fill="#626A80"/>
<path d="M159.974 131.517L146.869 182.569C146.704 183.209 146.128 183.656 145.467 183.656H140.079L153.824 129.71H158.573C159.518 129.71 160.209 130.601 159.974 131.517Z" fill="#F6F8F9" fill-opacity="0.15"/>
<path d="M145.334 182.104C145.099 183.017 144.276 183.656 143.332 183.656H77.9454C76.5955 183.656 75.6081 182.384 75.9435 181.076L77.6691 174.355H147.323L145.334 182.104Z" fill="#626A80"/>
<path d="M145.334 182.104C145.099 183.017 144.276 183.656 143.332 183.656H77.9454C76.5955 183.656 75.6081 182.384 75.9435 181.076L77.6691 174.355H147.323L145.334 182.104Z" fill="#F6F8F9" fill-opacity="0.8"/>
<path d="M156.386 129.71C157.601 129.71 158.49 130.856 158.188 132.032L147.324 174.355H77.6676L88.7301 131.263C88.9648 130.349 89.7895 129.71 90.733 129.71H156.386Z" fill="#626A80"/>
<path d="M156.386 129.71C157.601 129.71 158.49 130.856 158.188 132.032L147.324 174.355H77.6676L88.7301 131.263C88.9648 130.349 89.7895 129.71 90.733 129.71H156.386Z" fill="#F6F8F9" fill-opacity="0.45"/>
<path d="M155.771 132.075L144.658 174.264H80.5674L91.6807 132.075H155.771Z" fill="#EEF1F4"/>
<path d="M155.771 132.075L144.658 174.264H80.5674L91.6807 132.075H155.771Z" fill="#F6F8F9" fill-opacity="0.15"/>
<path d="M155.771 132.075L144.658 174.264H80.5674L91.6807 132.075H155.771Z" stroke="#626A80" stroke-width="0.183824"/>
<path d="M155.771 132.075L144.658 174.264H80.5674L91.6807 132.075H155.771Z" stroke="#F6F8F9" stroke-opacity="0.8" stroke-width="0.183824"/>
<g filter="url(#filter1_d_10627_25948)">
<path d="M120.666 161.405C120.872 162.408 120.078 164.092 118.698 164.585C118.111 164.795 117.5 164.826 116.991 164.793C116.204 164.741 115.69 164.19 115.488 163.491L114.137 158.835L109.852 162.272C109.147 162.837 108.246 162.437 108.424 161.638L112.449 143.526C112.626 142.727 113.705 142.327 114.159 142.892L123.913 155.051C124.366 155.617 123.741 156.583 122.922 156.583H119.331C119.498 157.117 120.52 160.692 120.666 161.405Z" fill="#3E5DE7"/>
<path d="M120.666 161.405C120.872 162.408 120.078 164.092 118.698 164.585C118.111 164.795 117.5 164.826 116.991 164.793C116.204 164.741 115.69 164.19 115.488 163.491L114.137 158.835L109.852 162.272C109.147 162.837 108.246 162.437 108.424 161.638L112.449 143.526C112.626 142.727 113.705 142.327 114.159 142.892L123.913 155.051C124.366 155.617 123.741 156.583 122.922 156.583H119.331C119.498 157.117 120.52 160.692 120.666 161.405Z" fill="#F6F8F9" fill-opacity="0.15"/>
<path fill-rule="evenodd" clip-rule="evenodd" d="M113.826 144.886C113.736 144.773 113.52 144.853 113.484 145.013L110.121 160.151C110.085 160.311 110.265 160.391 110.406 160.278L115.012 156.583L116.808 162.778C116.896 163.081 117.116 163.319 117.452 163.361C117.727 163.395 118.063 163.393 118.312 163.251C118.818 162.964 119.387 162.384 119.291 161.918C118.841 159.717 117.358 155.249 117.358 155.249H121.696C121.859 155.249 121.984 155.056 121.894 154.943L113.826 144.886Z" fill="white"/>
</g>
<g clip-path="url(#clip2_10627_25948)">
<path d="M111.749 177.958C111.833 177.965 111.923 178.024 112.104 178.142L112.528 178.421C112.672 178.515 112.744 178.562 112.795 178.622C112.89 178.732 112.937 178.877 112.931 179.036C112.928 179.122 112.903 179.216 112.853 179.404L112.633 180.225C112.582 180.413 112.557 180.507 112.514 180.593C112.435 180.752 112.31 180.897 112.156 181.007C112.072 181.067 111.976 181.114 111.782 181.208L110.935 181.619C110.741 181.713 110.644 181.76 110.55 181.787C110.376 181.836 110.203 181.836 110.055 181.787C109.974 181.76 109.903 181.713 109.759 181.619L109.333 181.34C109.153 181.221 109.063 181.162 109.032 181.094C108.974 180.966 109.02 180.796 109.146 180.668C109.214 180.599 109.336 180.54 109.58 180.422L110.156 180.142C110.351 180.048 110.448 180.001 110.531 179.942C110.685 179.831 110.81 179.687 110.89 179.527C110.933 179.441 110.958 179.347 111.009 179.159L111.158 178.601C111.221 178.365 111.253 178.246 111.31 178.171C111.417 178.03 111.592 177.945 111.749 177.958Z" fill="#626A80"/>
<path d="M111.749 177.958C111.833 177.965 111.923 178.024 112.104 178.142L112.528 178.421C112.672 178.515 112.744 178.562 112.795 178.622C112.89 178.732 112.937 178.877 112.931 179.036C112.928 179.122 112.903 179.216 112.853 179.404L112.633 180.225C112.582 180.413 112.557 180.507 112.514 180.593C112.435 180.752 112.31 180.897 112.156 181.007C112.072 181.067 111.976 181.114 111.782 181.208L110.935 181.619C110.741 181.713 110.644 181.76 110.55 181.787C110.376 181.836 110.203 181.836 110.055 181.787C109.974 181.76 109.903 181.713 109.759 181.619L109.333 181.34C109.153 181.221 109.063 181.162 109.032 181.094C108.974 180.966 109.02 180.796 109.146 180.668C109.214 180.599 109.336 180.54 109.58 180.422L110.156 180.142C110.351 180.048 110.448 180.001 110.531 179.942C110.685 179.831 110.81 179.687 110.89 179.527C110.933 179.441 110.958 179.347 111.009 179.159L111.158 178.601C111.221 178.365 111.253 178.246 111.31 178.171C111.417 178.03 111.592 177.945 111.749 177.958Z" fill="#F6F8F9" fill-opacity="0.15"/>
<path d="M111.131 175.711C111.305 175.663 111.478 175.663 111.626 175.711C111.706 175.738 111.778 175.785 111.921 175.879L112.347 176.158C112.527 176.277 112.618 176.336 112.649 176.405C112.706 176.533 112.661 176.703 112.534 176.831C112.467 176.899 112.345 176.958 112.101 177.076L111.524 177.356C111.33 177.45 111.233 177.497 111.15 177.557C110.995 177.667 110.87 177.812 110.791 177.971C110.747 178.057 110.722 178.151 110.672 178.34L110.523 178.897C110.459 179.133 110.427 179.252 110.37 179.327C110.264 179.468 110.089 179.553 109.932 179.54C109.847 179.533 109.757 179.474 109.577 179.356L109.152 179.078C109.009 178.984 108.937 178.936 108.886 178.877C108.791 178.766 108.743 178.622 108.749 178.463C108.752 178.376 108.778 178.282 108.828 178.094L109.048 177.273C109.098 177.085 109.123 176.991 109.166 176.905C109.246 176.746 109.371 176.601 109.525 176.491C109.608 176.431 109.705 176.384 109.899 176.29L110.745 175.879C110.939 175.785 111.036 175.738 111.131 175.711Z" fill="#626A80"/>
<path d="M111.131 175.711C111.305 175.663 111.478 175.663 111.626 175.711C111.706 175.738 111.778 175.785 111.921 175.879L112.347 176.158C112.527 176.277 112.618 176.336 112.649 176.405C112.706 176.533 112.661 176.703 112.534 176.831C112.467 176.899 112.345 176.958 112.101 177.076L111.524 177.356C111.33 177.45 111.233 177.497 111.15 177.557C110.995 177.667 110.87 177.812 110.791 177.971C110.747 178.057 110.722 178.151 110.672 178.34L110.523 178.897C110.459 179.133 110.427 179.252 110.37 179.327C110.264 179.468 110.089 179.553 109.932 179.54C109.847 179.533 109.757 179.474 109.577 179.356L109.152 179.078C109.009 178.984 108.937 178.936 108.886 178.877C108.791 178.766 108.743 178.622 108.749 178.463C108.752 178.376 108.778 178.282 108.828 178.094L109.048 177.273C109.098 177.085 109.123 176.991 109.166 176.905C109.246 176.746 109.371 176.601 109.525 176.491C109.608 176.431 109.705 176.384 109.899 176.29L110.745 175.879C110.939 175.785 111.036 175.738 111.131 175.711Z" fill="#F6F8F9" fill-opacity="0.15"/>
</g>
<g filter="url(#filter2_d_10627_25948)">
<path d="M109.871 72.5303C108.833 72.4588 108.143 72.113 107.8 71.4926C107.454 70.8794 107.462 70.0101 107.825 68.8849L110.364 61.0002C110.676 60.0334 111.75 59.3063 112.763 59.3761L131.109 60.6401C132.123 60.7099 132.692 61.5502 132.38 62.5169L129.841 70.4017C129.478 71.5269 128.948 72.3602 128.25 72.9015C127.55 73.4499 126.742 73.6926 125.826 73.6295L109.871 72.5303Z" fill="#6D778C"/>
<path d="M129.746 59.0252L113.242 57.8882C111.368 57.759 109.381 59.1042 108.805 60.8927L107.154 66.0178L107.851 55.9001C107.926 54.8109 108.232 54.0078 108.77 53.4907C109.314 52.9672 110.035 52.7363 110.931 52.7981L113.649 52.9854C113.982 53.0083 114.269 53.0523 114.509 53.1173C114.749 53.1823 114.967 53.2805 115.164 53.4118C115.362 53.5362 115.565 53.7061 115.776 53.9215L116.29 54.4452C116.543 54.6912 116.785 54.8706 117.015 54.9834C117.245 55.0963 117.534 55.1646 117.879 55.1884L126.813 55.8039C127.844 55.8749 128.605 56.2148 129.097 56.8236C129.539 57.3635 129.755 58.0974 129.746 59.0252Z" fill="#6D778C"/>
</g>
<g filter="url(#filter3_d_10627_25948)">
<rect x="61.5225" y="75.4013" width="22.5933" height="18.298" rx="2.94467" transform="rotate(-26.8831 61.5225 75.4013)" fill="#6D778C"/>
<rect x="61.5225" y="75.4013" width="22.5933" height="18.298" rx="2.94467" transform="rotate(-26.8831 61.5225 75.4013)" fill="#F6F8F9" fill-opacity="0.975"/>
<rect x="61.5225" y="75.4013" width="22.5933" height="18.298" rx="2.94467" transform="rotate(-26.8831 61.5225 75.4013)" stroke="#6D778C" stroke-width="0.601343"/>
<rect x="61.5225" y="75.4013" width="22.5933" height="18.298" rx="2.94467" transform="rotate(-26.8831 61.5225 75.4013)" stroke="#F6F8F9" stroke-opacity="0.8" stroke-width="0.601343"/>
<path d="M70.9742 78.2759C71.3678 78.2964 71.7482 78.2136 72.1152 78.0275C72.4823 77.8414 72.7711 77.585 72.9816 77.2582C73.1893 76.9258 73.3062 76.5613 73.3323 76.1648C73.3584 75.7683 73.2784 75.3865 73.0923 75.0194C72.9091 74.6581 72.6499 74.3707 72.3146 74.1574C71.9793 73.9441 71.6162 73.8229 71.2253 73.7939C70.8344 73.765 70.4555 73.8435 70.0884 74.0296C69.7214 74.2157 69.4312 74.4763 69.2179 74.8116C69.0102 75.144 68.8933 75.5085 68.8672 75.905C68.8411 76.3016 68.9197 76.6805 69.1029 77.0419C69.2889 77.409 69.5496 77.6992 69.8849 77.9125C70.2202 78.1258 70.5833 78.2469 70.9742 78.2759Z" fill="#9B6F02"/>
<path d="M70.9742 78.2759C71.3678 78.2964 71.7482 78.2136 72.1152 78.0275C72.4823 77.8414 72.7711 77.585 72.9816 77.2582C73.1893 76.9258 73.3062 76.5613 73.3323 76.1648C73.3584 75.7683 73.2784 75.3865 73.0923 75.0194C72.9091 74.6581 72.6499 74.3707 72.3146 74.1574C71.9793 73.9441 71.6162 73.8229 71.2253 73.7939C70.8344 73.765 70.4555 73.8435 70.0884 74.0296C69.7214 74.2157 69.4312 74.4763 69.2179 74.8116C69.0102 75.144 68.8933 75.5085 68.8672 75.905C68.8411 76.3016 68.9197 76.6805 69.1029 77.0419C69.2889 77.409 69.5496 77.6992 69.8849 77.9125C70.2202 78.1258 70.5833 78.2469 70.9742 78.2759Z" fill="#F6F8F9" fill-opacity="0.15"/>
<path d="M70.9769 82.425C71.0895 81.6607 71.1458 81.2786 71.3388 81.0544C71.5079 80.858 71.7452 80.7377 72.0035 80.7174C72.2985 80.6942 72.64 80.8747 73.323 81.2356L75.7907 82.5398C76.7575 83.0508 77.2409 83.3062 77.4029 83.643C77.5439 83.936 77.5528 84.2732 77.4271 84.5614C77.2828 84.8927 76.8124 85.1312 75.8717 85.6081L72.9973 87.0653C72.0566 87.5422 71.5862 87.7807 71.2337 87.7013C70.9269 87.6322 70.6602 87.4257 70.5071 87.1388C70.3313 86.8091 70.4109 86.2682 70.5702 85.1864L70.9769 82.425Z" fill="#5A8228"/>
<path d="M70.9769 82.425C71.0895 81.6607 71.1458 81.2786 71.3388 81.0544C71.5079 80.858 71.7452 80.7377 72.0035 80.7174C72.2985 80.6942 72.64 80.8747 73.323 81.2356L75.7907 82.5398C76.7575 83.0508 77.2409 83.3062 77.4029 83.643C77.5439 83.936 77.5528 84.2732 77.4271 84.5614C77.2828 84.8927 76.8124 85.1312 75.8717 85.6081L72.9973 87.0653C72.0566 87.5422 71.5862 87.7807 71.2337 87.7013C70.9269 87.6322 70.6602 87.4257 70.5071 87.1388C70.3313 86.8091 70.4109 86.2682 70.5702 85.1864L70.9769 82.425Z" fill="#F6F8F9" fill-opacity="0.55"/>
<path d="M75.5557 75.7741C75.6199 74.8644 75.6521 74.4096 75.8599 74.1542C76.0413 73.9313 76.3067 73.7967 76.5938 73.7822C76.9226 73.7655 77.3084 74.0084 78.0802 74.4942L84.2869 78.4017C85.1318 78.9336 85.5543 79.1995 85.6884 79.5274C85.8054 79.8133 85.7972 80.1334 85.6659 80.4061C85.5152 80.7189 85.0803 80.9394 84.2104 81.3804L77.4867 84.7891C76.6168 85.2301 76.1818 85.4506 75.8405 85.3872C75.5429 85.3319 75.2798 85.1493 75.1184 84.886C74.9332 84.584 74.9684 84.086 75.0388 83.0901L75.5557 75.7741Z" fill="#5A8228"/>
</g>
<g filter="url(#filter4_d_10627_25948)">
<g clip-path="url(#clip3_10627_25948)">
<rect x="35.477" y="113.348" width="20.6175" height="27.49" rx="3.05444" transform="rotate(-51.6558 35.477 113.348)" fill="white"/>
<path fill-rule="evenodd" clip-rule="evenodd" d="M42.2802 114.804C41.9494 114.542 41.8934 114.062 42.155 113.731L46.4186 108.341C46.6802 108.01 47.1605 107.954 47.4912 108.216C47.822 108.478 47.878 108.958 47.6164 109.289L43.3528 114.679C43.0912 115.009 42.6109 115.065 42.2802 114.804Z" fill="#3677CC"/>
<path fill-rule="evenodd" clip-rule="evenodd" d="M42.2802 114.804C41.9494 114.542 41.8934 114.062 42.155 113.731L46.4186 108.341C46.6802 108.01 47.1605 107.954 47.4912 108.216C47.822 108.478 47.878 108.958 47.6164 109.289L43.3528 114.679C43.0912 115.009 42.6109 115.065 42.2802 114.804Z" fill="#F6F8F9" fill-opacity="0.15"/>
<path fill-rule="evenodd" clip-rule="evenodd" d="M44.3053 116.406C43.9746 116.144 43.9185 115.664 44.1802 115.333L52.2035 105.19C52.4652 104.859 52.9454 104.803 53.2762 105.065C53.6069 105.326 53.663 105.807 53.4013 106.137L45.3779 116.281C45.1163 116.611 44.6361 116.667 44.3053 116.406ZM46.102 117.827C45.7713 117.565 45.7152 117.085 45.9768 116.754L54.0002 106.611C54.2619 106.28 54.7421 106.224 55.0728 106.486C55.4036 106.748 55.4596 107.228 55.198 107.559L47.1746 117.702C46.913 118.033 46.4328 118.089 46.102 117.827ZM47.8987 119.248C47.5679 118.987 47.5119 118.506 47.7735 118.176L55.7969 108.032C56.0585 107.702 56.5388 107.646 56.8695 107.907C57.2003 108.169 57.2563 108.649 56.9947 108.98L48.9713 119.123C48.7097 119.454 48.2295 119.51 47.8987 119.248ZM49.6954 120.669C49.3646 120.408 49.3086 119.928 49.5702 119.597L57.5936 109.454C57.8552 109.123 58.3355 109.067 58.6662 109.328C58.997 109.59 59.053 110.07 58.7914 110.401L50.768 120.544C50.5064 120.875 50.0262 120.931 49.6954 120.669Z" fill="#3677CC"/>
<path fill-rule="evenodd" clip-rule="evenodd" d="M44.3053 116.406C43.9746 116.144 43.9185 115.664 44.1802 115.333L52.2035 105.19C52.4652 104.859 52.9454 104.803 53.2762 105.065C53.6069 105.326 53.663 105.807 53.4013 106.137L45.3779 116.281C45.1163 116.611 44.6361 116.667 44.3053 116.406ZM46.102 117.827C45.7713 117.565 45.7152 117.085 45.9768 116.754L54.0002 106.611C54.2619 106.28 54.7421 106.224 55.0728 106.486C55.4036 106.748 55.4596 107.228 55.198 107.559L47.1746 117.702C46.913 118.033 46.4328 118.089 46.102 117.827ZM47.8987 119.248C47.5679 118.987 47.5119 118.506 47.7735 118.176L55.7969 108.032C56.0585 107.702 56.5388 107.646 56.8695 107.907C57.2003 108.169 57.2563 108.649 56.9947 108.98L48.9713 119.123C48.7097 119.454 48.2295 119.51 47.8987 119.248ZM49.6954 120.669C49.3646 120.408 49.3086 119.928 49.5702 119.597L57.5936 109.454C57.8552 109.123 58.3355 109.067 58.6662 109.328C58.997 109.59 59.053 110.07 58.7914 110.401L50.768 120.544C50.5064 120.875 50.0262 120.931 49.6954 120.669Z" fill="#F6F8F9" fill-opacity="0.8"/>
<path fill-rule="evenodd" clip-rule="evenodd" d="M51.5133 122.107C51.1825 121.846 51.1265 121.366 51.3881 121.035L59.4115 110.892C59.6731 110.561 60.1533 110.505 60.4841 110.766C60.8149 111.028 60.8709 111.508 60.6093 111.839L52.5859 121.982C52.3243 122.313 51.844 122.369 51.5133 122.107ZM53.31 123.529C52.9792 123.267 52.9232 122.787 53.1848 122.456L61.2082 112.313C61.4698 111.982 61.95 111.926 62.2808 112.188C62.6116 112.449 62.6676 112.929 62.406 113.26L54.3826 123.403C54.121 123.734 53.6407 123.79 53.31 123.529ZM55.1067 124.95C54.7759 124.688 54.7199 124.208 54.9815 123.877L63.0049 113.734C63.2665 113.403 63.7467 113.347 64.0775 113.609C64.4083 113.87 64.4643 114.351 64.2027 114.681L56.1793 124.825C55.9177 125.155 55.4374 125.211 55.1067 124.95ZM56.9034 126.371C56.5726 126.109 56.5166 125.629 56.7782 125.298L64.8016 115.155C65.0632 114.824 65.5434 114.768 65.8742 115.03C66.2049 115.292 66.261 115.772 65.9994 116.103L57.976 126.246C57.7143 126.577 57.2341 126.633 56.9034 126.371Z" fill="#3677CC"/>
<path fill-rule="evenodd" clip-rule="evenodd" d="M51.5133 122.107C51.1825 121.846 51.1265 121.366 51.3881 121.035L59.4115 110.892C59.6731 110.561 60.1533 110.505 60.4841 110.766C60.8149 111.028 60.8709 111.508 60.6093 111.839L52.5859 121.982C52.3243 122.313 51.844 122.369 51.5133 122.107ZM53.31 123.529C52.9792 123.267 52.9232 122.787 53.1848 122.456L61.2082 112.313C61.4698 111.982 61.95 111.926 62.2808 112.188C62.6116 112.449 62.6676 112.929 62.406 113.26L54.3826 123.403C54.121 123.734 53.6407 123.79 53.31 123.529ZM55.1067 124.95C54.7759 124.688 54.7199 124.208 54.9815 123.877L63.0049 113.734C63.2665 113.403 63.7467 113.347 64.0775 113.609C64.4083 113.87 64.4643 114.351 64.2027 114.681L56.1793 124.825C55.9177 125.155 55.4374 125.211 55.1067 124.95ZM56.9034 126.371C56.5726 126.109 56.5166 125.629 56.7782 125.298L64.8016 115.155C65.0632 114.824 65.5434 114.768 65.8742 115.03C66.2049 115.292 66.261 115.772 65.9994 116.103L57.976 126.246C57.7143 126.577 57.2341 126.633 56.9034 126.371Z" fill="#F6F8F9" fill-opacity="0.8"/>
</g>
<rect x="35.8993" y="113.298" width="20.0161" height="26.8886" rx="2.75377" transform="rotate(-51.6558 35.8993 113.298)" stroke="#3677CC" stroke-width="0.601343"/>
<rect x="35.8993" y="113.298" width="20.0161" height="26.8886" rx="2.75377" transform="rotate(-51.6558 35.8993 113.298)" stroke="#F6F8F9" stroke-opacity="0.8" stroke-width="0.601343"/>
</g>
<g filter="url(#filter5_d_10627_25948)">
<g clip-path="url(#clip4_10627_25948)">
<rect x="164.595" y="57.7896" width="21.4765" height="24.0537" rx="3.24534" transform="rotate(34.6176 164.595 57.7896)" fill="white"/>
<path fill-rule="evenodd" clip-rule="evenodd" d="M164.803 62.1086C165.057 61.7399 165.563 61.6473 165.931 61.9018L168.052 63.3659C168.421 63.6205 168.514 64.1258 168.259 64.4945C168.005 64.8633 167.499 64.9559 167.131 64.7013L165.01 63.2372C164.641 62.9827 164.548 62.4774 164.803 62.1086Z" fill="#5A8228"/>
<path fill-rule="evenodd" clip-rule="evenodd" d="M164.803 62.1086C165.057 61.7399 165.563 61.6473 165.931 61.9018L168.052 63.3659C168.421 63.6205 168.514 64.1258 168.259 64.4945C168.005 64.8633 167.499 64.9559 167.131 64.7013L165.01 63.2372C164.641 62.9827 164.548 62.4774 164.803 62.1086Z" fill="#F6F8F9" fill-opacity="0.15"/>
<path fill-rule="evenodd" clip-rule="evenodd" d="M162.851 64.9367C163.105 64.568 163.611 64.4754 163.979 64.73L166.1 66.194C166.469 66.4486 166.562 66.9539 166.307 67.3227C166.052 67.6914 165.547 67.784 165.178 67.5294L163.058 66.0654C162.689 65.8108 162.596 65.3055 162.851 64.9367Z" fill="#5A8228"/>
<path fill-rule="evenodd" clip-rule="evenodd" d="M162.851 64.9367C163.105 64.568 163.611 64.4754 163.979 64.73L166.1 66.194C166.469 66.4486 166.562 66.9539 166.307 67.3227C166.052 67.6914 165.547 67.784 165.178 67.5294L163.058 66.0654C162.689 65.8108 162.596 65.3055 162.851 64.9367Z" fill="#F6F8F9" fill-opacity="0.8"/>
<path fill-rule="evenodd" clip-rule="evenodd" d="M160.898 67.7644C161.153 67.3956 161.658 67.303 162.027 67.5576L164.148 69.0217C164.517 69.2762 164.609 69.7815 164.355 70.1503C164.1 70.5191 163.595 70.6116 163.226 70.3571L161.105 68.893C160.736 68.6384 160.644 68.1331 160.898 67.7644Z" fill="#5A8228"/>
<path fill-rule="evenodd" clip-rule="evenodd" d="M160.898 67.7644C161.153 67.3956 161.658 67.303 162.027 67.5576L164.148 69.0217C164.517 69.2762 164.609 69.7815 164.355 70.1503C164.1 70.5191 163.595 70.6116 163.226 70.3571L161.105 68.893C160.736 68.6384 160.644 68.1331 160.898 67.7644Z" fill="#F6F8F9" fill-opacity="0.8"/>
<path fill-rule="evenodd" clip-rule="evenodd" d="M158.946 70.5925C159.201 70.2237 159.706 70.1312 160.075 70.3857L162.196 71.8498C162.565 72.1044 162.657 72.6097 162.403 72.9784C162.148 73.3472 161.643 73.4398 161.274 73.1852L159.153 71.7211C158.784 71.4666 158.692 70.9613 158.946 70.5925Z" fill="#5A8228"/>
<path fill-rule="evenodd" clip-rule="evenodd" d="M158.946 70.5925C159.201 70.2237 159.706 70.1312 160.075 70.3857L162.196 71.8498C162.565 72.1044 162.657 72.6097 162.403 72.9784C162.148 73.3472 161.643 73.4398 161.274 73.1852L159.153 71.7211C158.784 71.4666 158.692 70.9613 158.946 70.5925Z" fill="#F6F8F9" fill-opacity="0.8"/>
<path fill-rule="evenodd" clip-rule="evenodd" d="M156.995 73.4201C157.249 73.0514 157.754 72.9588 158.123 73.2134L160.244 74.6774C160.613 74.932 160.705 75.4373 160.451 75.8061C160.196 76.1748 159.691 76.2674 159.322 76.0128L157.201 74.5488C156.833 74.2942 156.74 73.7889 156.995 73.4201Z" fill="#5A8228"/>
<path fill-rule="evenodd" clip-rule="evenodd" d="M156.995 73.4201C157.249 73.0514 157.754 72.9588 158.123 73.2134L160.244 74.6774C160.613 74.932 160.705 75.4373 160.451 75.8061C160.196 76.1748 159.691 76.2674 159.322 76.0128L157.201 74.5488C156.833 74.2942 156.74 73.7889 156.995 73.4201Z" fill="#F6F8F9" fill-opacity="0.8"/>
<path fill-rule="evenodd" clip-rule="evenodd" d="M155.042 76.2483C155.297 75.8795 155.802 75.7869 156.171 76.0415L158.292 77.5056C158.661 77.7601 158.753 78.2654 158.499 78.6342C158.244 79.0029 157.739 79.0955 157.37 78.841L155.249 77.3769C154.88 77.1223 154.788 76.617 155.042 76.2483Z" fill="#5A8228"/>
<path fill-rule="evenodd" clip-rule="evenodd" d="M155.042 76.2483C155.297 75.8795 155.802 75.7869 156.171 76.0415L158.292 77.5056C158.661 77.7601 158.753 78.2654 158.499 78.6342C158.244 79.0029 157.739 79.0955 157.37 78.841L155.249 77.3769C154.88 77.1223 154.788 76.617 155.042 76.2483Z" fill="#F6F8F9" fill-opacity="0.8"/>
<path fill-rule="evenodd" clip-rule="evenodd" d="M169.673 65.4704C169.927 65.1017 170.433 65.0091 170.801 65.2637L172.922 66.7277C173.291 66.9823 173.384 67.4876 173.129 67.8564C172.875 68.2251 172.369 68.3177 172.001 68.0631L169.88 66.599C169.511 66.3445 169.418 65.8392 169.673 65.4704Z" fill="#5A8228"/>
<path fill-rule="evenodd" clip-rule="evenodd" d="M169.673 65.4704C169.927 65.1017 170.433 65.0091 170.801 65.2637L172.922 66.7277C173.291 66.9823 173.384 67.4876 173.129 67.8564C172.875 68.2251 172.369 68.3177 172.001 68.0631L169.88 66.599C169.511 66.3445 169.418 65.8392 169.673 65.4704Z" fill="#F6F8F9" fill-opacity="0.15"/>
<path fill-rule="evenodd" clip-rule="evenodd" d="M167.721 68.2986C167.976 67.9298 168.481 67.8372 168.85 68.0918L170.971 69.5559C171.339 69.8104 171.432 70.3157 171.177 70.6845C170.923 71.0532 170.418 71.1458 170.049 70.8913L167.928 69.4272C167.559 69.1726 167.467 68.6673 167.721 68.2986Z" fill="#5A8228"/>
<path fill-rule="evenodd" clip-rule="evenodd" d="M167.721 68.2986C167.976 67.9298 168.481 67.8372 168.85 68.0918L170.971 69.5559C171.339 69.8104 171.432 70.3157 171.177 70.6845C170.923 71.0532 170.418 71.1458 170.049 70.8913L167.928 69.4272C167.559 69.1726 167.467 68.6673 167.721 68.2986Z" fill="#F6F8F9" fill-opacity="0.8"/>
<path fill-rule="evenodd" clip-rule="evenodd" d="M165.769 71.1262C166.023 70.7574 166.529 70.6649 166.898 70.9194L169.018 72.3835C169.387 72.6381 169.48 73.1434 169.225 73.5121C168.971 73.8809 168.465 73.9735 168.097 73.7189L165.976 72.2548C165.607 72.0003 165.514 71.495 165.769 71.1262Z" fill="#5A8228"/>
<path fill-rule="evenodd" clip-rule="evenodd" d="M165.769 71.1262C166.023 70.7574 166.529 70.6649 166.898 70.9194L169.018 72.3835C169.387 72.6381 169.48 73.1434 169.225 73.5121C168.971 73.8809 168.465 73.9735 168.097 73.7189L165.976 72.2548C165.607 72.0003 165.514 71.495 165.769 71.1262Z" fill="#F6F8F9" fill-opacity="0.8"/>
<path fill-rule="evenodd" clip-rule="evenodd" d="M163.817 73.9543C164.071 73.5856 164.577 73.493 164.945 73.7475L167.066 75.2116C167.435 75.4662 167.528 75.9715 167.273 76.3402C167.018 76.709 166.513 76.8016 166.144 76.547L164.023 75.0829C163.655 74.8284 163.562 74.3231 163.817 73.9543Z" fill="#5A8228"/>
<path fill-rule="evenodd" clip-rule="evenodd" d="M163.817 73.9543C164.071 73.5856 164.577 73.493 164.945 73.7475L167.066 75.2116C167.435 75.4662 167.528 75.9715 167.273 76.3402C167.018 76.709 166.513 76.8016 166.144 76.547L164.023 75.0829C163.655 74.8284 163.562 74.3231 163.817 73.9543Z" fill="#F6F8F9" fill-opacity="0.8"/>
<path fill-rule="evenodd" clip-rule="evenodd" d="M161.865 76.782C162.119 76.4132 162.624 76.3206 162.993 76.5752L165.114 78.0393C165.483 78.2938 165.575 78.7991 165.321 79.1679C165.066 79.5366 164.561 79.6292 164.192 79.3747L162.071 77.9106C161.703 77.656 161.61 77.1507 161.865 76.782Z" fill="#5A8228"/>
<path fill-rule="evenodd" clip-rule="evenodd" d="M161.865 76.782C162.119 76.4132 162.624 76.3206 162.993 76.5752L165.114 78.0393C165.483 78.2938 165.575 78.7991 165.321 79.1679C165.066 79.5366 164.561 79.6292 164.192 79.3747L162.071 77.9106C161.703 77.656 161.61 77.1507 161.865 76.782Z" fill="#F6F8F9" fill-opacity="0.8"/>
<path fill-rule="evenodd" clip-rule="evenodd" d="M159.912 79.6101C160.167 79.2413 160.672 79.1487 161.041 79.4033L163.162 80.8674C163.531 81.1219 163.623 81.6272 163.369 81.996C163.114 82.3648 162.609 82.4573 162.24 82.2028L160.119 80.7387C159.75 80.4841 159.658 79.9788 159.912 79.6101Z" fill="#5A8228"/>
<path fill-rule="evenodd" clip-rule="evenodd" d="M159.912 79.6101C160.167 79.2413 160.672 79.1487 161.041 79.4033L163.162 80.8674C163.531 81.1219 163.623 81.6272 163.369 81.996C163.114 82.3648 162.609 82.4573 162.24 82.2028L160.119 80.7387C159.75 80.4841 159.658 79.9788 159.912 79.6101Z" fill="#F6F8F9" fill-opacity="0.8"/>
<path fill-rule="evenodd" clip-rule="evenodd" d="M174.543 68.8322C174.798 68.4635 175.303 68.3709 175.672 68.6255L177.793 70.0896C178.162 70.3441 178.254 70.8494 178 71.2182C177.745 71.5869 177.24 71.6795 176.871 71.425L174.75 69.9609C174.381 69.7063 174.289 69.201 174.543 68.8322Z" fill="#5A8228"/>
<path fill-rule="evenodd" clip-rule="evenodd" d="M174.543 68.8322C174.798 68.4635 175.303 68.3709 175.672 68.6255L177.793 70.0896C178.162 70.3441 178.254 70.8494 178 71.2182C177.745 71.5869 177.24 71.6795 176.871 71.425L174.75 69.9609C174.381 69.7063 174.289 69.201 174.543 68.8322Z" fill="#F6F8F9" fill-opacity="0.15"/>
<path fill-rule="evenodd" clip-rule="evenodd" d="M172.591 71.6604C172.846 71.2916 173.351 71.199 173.72 71.4536L175.841 72.9177C176.209 73.1722 176.302 73.6775 176.047 74.0463C175.793 74.4151 175.288 74.5076 174.919 74.2531L172.798 72.789C172.429 72.5344 172.337 72.0291 172.591 71.6604Z" fill="#5A8228"/>
<path fill-rule="evenodd" clip-rule="evenodd" d="M172.591 71.6604C172.846 71.2916 173.351 71.199 173.72 71.4536L175.841 72.9177C176.209 73.1722 176.302 73.6775 176.047 74.0463C175.793 74.4151 175.288 74.5076 174.919 74.2531L172.798 72.789C172.429 72.5344 172.337 72.0291 172.591 71.6604Z" fill="#F6F8F9" fill-opacity="0.8"/>
<path fill-rule="evenodd" clip-rule="evenodd" d="M170.639 74.4885C170.893 74.1197 171.399 74.0272 171.767 74.2817L173.888 75.7458C174.257 76.0004 174.35 76.5057 174.095 76.8744C173.841 77.2432 173.335 77.3358 172.967 77.0812L170.846 75.6171C170.477 75.3626 170.384 74.8573 170.639 74.4885Z" fill="#5A8228"/>
<path fill-rule="evenodd" clip-rule="evenodd" d="M170.639 74.4885C170.893 74.1197 171.399 74.0272 171.767 74.2817L173.888 75.7458C174.257 76.0004 174.35 76.5057 174.095 76.8744C173.841 77.2432 173.335 77.3358 172.967 77.0812L170.846 75.6171C170.477 75.3626 170.384 74.8573 170.639 74.4885Z" fill="#F6F8F9" fill-opacity="0.8"/>
<path fill-rule="evenodd" clip-rule="evenodd" d="M168.687 77.3161C168.941 76.9474 169.447 76.8548 169.815 77.1094L171.936 78.5734C172.305 78.828 172.398 79.3333 172.143 79.7021C171.888 80.0708 171.383 80.1634 171.014 79.9088L168.893 78.4448C168.525 78.1902 168.432 77.6849 168.687 77.3161Z" fill="#5A8228"/>
<path fill-rule="evenodd" clip-rule="evenodd" d="M168.687 77.3161C168.941 76.9474 169.447 76.8548 169.815 77.1094L171.936 78.5734C172.305 78.828 172.398 79.3333 172.143 79.7021C171.888 80.0708 171.383 80.1634 171.014 79.9088L168.893 78.4448C168.525 78.1902 168.432 77.6849 168.687 77.3161Z" fill="#F6F8F9" fill-opacity="0.8"/>
<path fill-rule="evenodd" clip-rule="evenodd" d="M166.735 80.1443C166.989 79.7755 167.494 79.6829 167.863 79.9375L169.984 81.4016C170.353 81.6561 170.445 82.1614 170.191 82.5302C169.936 82.8989 169.431 82.9915 169.062 82.737L166.941 81.2729C166.573 81.0183 166.48 80.513 166.735 80.1443Z" fill="#5A8228"/>
<path fill-rule="evenodd" clip-rule="evenodd" d="M166.735 80.1443C166.989 79.7755 167.494 79.6829 167.863 79.9375L169.984 81.4016C170.353 81.6561 170.445 82.1614 170.191 82.5302C169.936 82.8989 169.431 82.9915 169.062 82.737L166.941 81.2729C166.573 81.0183 166.48 80.513 166.735 80.1443Z" fill="#F6F8F9" fill-opacity="0.8"/>
<path fill-rule="evenodd" clip-rule="evenodd" d="M164.783 82.9719C165.037 82.6031 165.543 82.5106 165.911 82.7651L168.032 84.2292C168.401 84.4838 168.494 84.9891 168.239 85.3578C167.985 85.7266 167.479 85.8192 167.11 85.5646L164.99 84.1005C164.621 83.846 164.528 83.3407 164.783 82.9719Z" fill="#5A8228"/>
<path fill-rule="evenodd" clip-rule="evenodd" d="M164.783 82.9719C165.037 82.6031 165.543 82.5106 165.911 82.7651L168.032 84.2292C168.401 84.4838 168.494 84.9891 168.239 85.3578C167.985 85.7266 167.479 85.8192 167.11 85.5646L164.99 84.1005C164.621 83.846 164.528 83.3407 164.783 82.9719Z" fill="#F6F8F9" fill-opacity="0.8"/>
</g>
<rect x="164.671" y="58.2078" width="20.8752" height="23.4524" rx="2.94467" transform="rotate(34.6176 164.671 58.2078)" stroke="#5A8228" stroke-width="0.601343"/>
<rect x="164.671" y="58.2078" width="20.8752" height="23.4524" rx="2.94467" transform="rotate(34.6176 164.671 58.2078)" stroke="#F6F8F9" stroke-opacity="0.8" stroke-width="0.601343"/>
</g>
<g filter="url(#filter6_d_10627_25948)">
<g clip-path="url(#clip5_10627_25948)">
<rect x="197.429" y="103.183" width="23.1947" height="18.8994" rx="3.24534" transform="rotate(68.329 197.429 103.183)" fill="white"/>
<path fill-rule="evenodd" clip-rule="evenodd" d="M194.724 108.007C195.14 107.842 195.612 108.045 195.778 108.462L198.315 114.848C198.481 115.265 198.278 115.736 197.861 115.902C197.445 116.067 196.973 115.864 196.808 115.447L194.27 109.061C194.104 108.644 194.308 108.173 194.724 108.007Z" fill="#AE6257"/>
<path fill-rule="evenodd" clip-rule="evenodd" d="M194.724 108.007C195.14 107.842 195.612 108.045 195.778 108.462L198.315 114.848C198.481 115.265 198.278 115.736 197.861 115.902C197.445 116.067 196.973 115.864 196.808 115.447L194.27 109.061C194.104 108.644 194.308 108.173 194.724 108.007Z" fill="#F6F8F9" fill-opacity="0.15"/>
<path fill-rule="evenodd" clip-rule="evenodd" d="M191.531 109.276C191.947 109.111 192.419 109.314 192.584 109.731L197.977 123.302C198.143 123.719 197.939 124.191 197.523 124.356C197.106 124.521 196.635 124.318 196.469 123.902L191.076 110.33C190.911 109.913 191.114 109.442 191.531 109.276Z" fill="#AE6257"/>
<path fill-rule="evenodd" clip-rule="evenodd" d="M191.531 109.276C191.947 109.111 192.419 109.314 192.584 109.731L197.977 123.302C198.143 123.719 197.939 124.191 197.523 124.356C197.106 124.521 196.635 124.318 196.469 123.902L191.076 110.33C190.911 109.913 191.114 109.442 191.531 109.276Z" fill="#F6F8F9" fill-opacity="0.8"/>
</g>
<rect x="197.261" y="103.574" width="22.5933" height="18.298" rx="2.94467" transform="rotate(68.329 197.261 103.574)" stroke="#AE6257" stroke-width="0.601343"/>
<rect x="197.261" y="103.574" width="22.5933" height="18.298" rx="2.94467" transform="rotate(68.329 197.261 103.574)" stroke="#F6F8F9" stroke-opacity="0.8" stroke-width="0.601343"/>
</g>
</g>
<defs>
<filter id="filter0_n_10627_25948" x="0" y="0" width="250" height="250" filterUnits="userSpaceOnUse" color-interpolation-filters="sRGB">
<feFlood flood-opacity="0" result="BackgroundImageFix"/>
<feBlend mode="normal" in="SourceGraphic" in2="BackgroundImageFix" result="shape"/>
<feTurbulence type="fractalNoise" baseFrequency="5.440000057220459 5.440000057220459" stitchTiles="stitch" numOctaves="3" result="noise" seed="1493" />
<feColorMatrix in="noise" type="luminanceToAlpha" result="alphaNoise" />
<feComponentTransfer in="alphaNoise" result="coloredNoise1">
<feFuncA type="discrete" tableValues="0 0 0 0 0 0 1 1 1 1 1 1 1 1 1 1 1 1 1 1 1 1 1 1 1 1 1 1 1 1 1 1 1 1 1 1 1 1 1 1 1 1 1 1 0 0 0 0 0 0 0 0 0 0 0 0 0 0 0 0 0 0 0 0 0 0 0 0 0 0 0 0 0 0 0 0 0 0 0 0 0 0 0 0 0 0 0 0 0 0 0 0 0 0 0 0 0 0 0 0 "/>
</feComponentTransfer>
<feComposite operator="in" in2="shape" in="coloredNoise1" result="noise1Clipped" />
<feFlood flood-color="rgba(131, 131, 131, 0.1)" result="color1Flood" />
<feComposite operator="in" in2="noise1Clipped" in="color1Flood" result="color1" />
<feMerge result="effect1_noise_10627_25948">
<feMergeNode in="shape" />
<feMergeNode in="color1" />
</feMerge>
</filter>
<filter id="filter1_d_10627_25948" x="92.6474" y="127.609" width="47.1713" height="53.6841" filterUnits="userSpaceOnUse" color-interpolation-filters="sRGB">
<feFlood flood-opacity="0" result="BackgroundImageFix"/>
<feColorMatrix in="SourceAlpha" type="matrix" values="0 0 0 0 0 0 0 0 0 0 0 0 0 0 0 0 0 0 127 0" result="hardAlpha"/>
<feOffset dy="0.735294"/>
<feGaussianBlur stdDeviation="7.87684"/>
<feComposite in2="hardAlpha" operator="out"/>
<feColorMatrix type="matrix" values="0 0 0 0 0.784314 0 0 0 0 0.827451 0 0 0 0 1 0 0 0 1 0"/>
<feBlend mode="normal" in2="BackgroundImageFix" result="effect1_dropShadow_10627_25948"/>
<feBlend mode="normal" in="SourceGraphic" in2="effect1_dropShadow_10627_25948" result="shape"/>
</filter>
<filter id="filter2_d_10627_25948" x="103.141" y="49.0552" width="32.4535" height="32.4536" filterUnits="userSpaceOnUse" color-interpolation-filters="sRGB">
<feFlood flood-opacity="0" result="BackgroundImageFix"/>
<feColorMatrix in="SourceAlpha" type="matrix" values="0 0 0 0 0 0 0 0 0 0 0 0 0 0 0 0 0 0 127 0" result="hardAlpha"/>
<feOffset dy="1.56956"/>
<feGaussianBlur stdDeviation="0.784782"/>
<feComposite in2="hardAlpha" operator="out"/>
<feColorMatrix type="matrix" values="0 0 0 0 0 0 0 0 0 0 0 0 0 0 0 0 0 0 0.06 0"/>
<feBlend mode="normal" in2="BackgroundImageFix" result="effect1_dropShadow_10627_25948"/>
<feBlend mode="normal" in="SourceGraphic" in2="effect1_dropShadow_10627_25948" result="shape"/>
</filter>
<filter id="filter3_d_10627_25948" x="55.4968" y="59.5957" width="40.0885" height="40.0883" filterUnits="userSpaceOnUse" color-interpolation-filters="sRGB">
<feFlood flood-opacity="0" result="BackgroundImageFix"/>
<feColorMatrix in="SourceAlpha" type="matrix" values="0 0 0 0 0 0 0 0 0 0 0 0 0 0 0 0 0 0 127 0" result="hardAlpha"/>
<feOffset dy="1.56956"/>
<feGaussianBlur stdDeviation="0.784782"/>
<feComposite in2="hardAlpha" operator="out"/>
<feColorMatrix type="matrix" values="0 0 0 0 0 0 0 0 0 0 0 0 0 0 0 0 0 0 0.06 0"/>
<feBlend mode="normal" in2="BackgroundImageFix" result="effect1_dropShadow_10627_25948"/>
<feBlend mode="normal" in="SourceGraphic" in2="effect1_dropShadow_10627_25948" result="shape"/>
</filter>
<filter id="filter4_d_10627_25948" x="31.7757" y="94.4819" width="41.7538" height="41.7539" filterUnits="userSpaceOnUse" color-interpolation-filters="sRGB">
<feFlood flood-opacity="0" result="BackgroundImageFix"/>
<feColorMatrix in="SourceAlpha" type="matrix" values="0 0 0 0 0 0 0 0 0 0 0 0 0 0 0 0 0 0 127 0" result="hardAlpha"/>
<feOffset dy="1.56956"/>
<feGaussianBlur stdDeviation="0.784782"/>
<feComposite in2="hardAlpha" operator="out"/>
<feColorMatrix type="matrix" values="0 0 0 0 0 0 0 0 0 0 0 0 0 0 0 0 0 0 0.06 0"/>
<feBlend mode="normal" in2="BackgroundImageFix" result="effect1_dropShadow_10627_25948"/>
<feBlend mode="normal" in="SourceGraphic" in2="effect1_dropShadow_10627_25948" result="shape"/>
</filter>
<filter id="filter5_d_10627_25948" x="146.154" y="54.314" width="41.3792" height="41.3794" filterUnits="userSpaceOnUse" color-interpolation-filters="sRGB">
<feFlood flood-opacity="0" result="BackgroundImageFix"/>
<feColorMatrix in="SourceAlpha" type="matrix" values="0 0 0 0 0 0 0 0 0 0 0 0 0 0 0 0 0 0 127 0" result="hardAlpha"/>
<feOffset dy="1.56956"/>
<feGaussianBlur stdDeviation="0.784782"/>
<feComposite in2="hardAlpha" operator="out"/>
<feColorMatrix type="matrix" values="0 0 0 0 0 0 0 0 0 0 0 0 0 0 0 0 0 0 0.06 0"/>
<feBlend mode="normal" in2="BackgroundImageFix" result="effect1_dropShadow_10627_25948"/>
<feBlend mode="normal" in="SourceGraphic" in2="effect1_dropShadow_10627_25948" result="shape"/>
</filter>
<filter id="filter6_d_10627_25948" x="173.911" y="99.4424" width="38.8375" height="38.8374" filterUnits="userSpaceOnUse" color-interpolation-filters="sRGB">
<feFlood flood-opacity="0" result="BackgroundImageFix"/>
<feColorMatrix in="SourceAlpha" type="matrix" values="0 0 0 0 0 0 0 0 0 0 0 0 0 0 0 0 0 0 127 0" result="hardAlpha"/>
<feOffset dy="1.56956"/>
<feGaussianBlur stdDeviation="0.784782"/>
<feComposite in2="hardAlpha" operator="out"/>
<feColorMatrix type="matrix" values="0 0 0 0 0 0 0 0 0 0 0 0 0 0 0 0 0 0 0.06 0"/>
<feBlend mode="normal" in2="BackgroundImageFix" result="effect1_dropShadow_10627_25948"/>
<feBlend mode="normal" in="SourceGraphic" in2="effect1_dropShadow_10627_25948" result="shape"/>
</filter>
<clipPath id="clip0_10627_25948">
<rect width="250" height="250" fill="white"/>
</clipPath>
<clipPath id="clip1_10627_25948">
<rect width="250" height="250" fill="white"/>
</clipPath>
<clipPath id="clip2_10627_25948">
<rect width="7.00111" height="7.00111" fill="white" transform="matrix(1 0 -0.258819 0.965926 108.245 175.368)"/>
</clipPath>
<clipPath id="clip3_10627_25948">
<rect x="35.477" y="113.348" width="20.6175" height="27.49" rx="3.05444" transform="rotate(-51.6558 35.477 113.348)" fill="white"/>
</clipPath>
<clipPath id="clip4_10627_25948">
<rect x="164.595" y="57.7896" width="21.4765" height="24.0537" rx="3.24534" transform="rotate(34.6176 164.595 57.7896)" fill="white"/>
</clipPath>
<clipPath id="clip5_10627_25948">
<rect x="197.429" y="103.183" width="23.1947" height="18.8994" rx="3.24534" transform="rotate(68.329 197.429 103.183)" fill="white"/>
</clipPath>
</defs>
</svg>
