<svg width="118" height="85" viewBox="0 0 118 85" fill="none" xmlns="http://www.w3.org/2000/svg">
<g filter="url(#filter0_d_12288_53276)">
<g filter="url(#filter1_d_12288_53276)">
<g clip-path="url(#clip0_12288_53276)">
<rect x="67.0906" y="17.0918" width="37.9734" height="30.9413" rx="4.96294" transform="rotate(15.4037 67.0906 17.0918)" fill="white"/>
<path fill-rule="evenodd" clip-rule="evenodd" d="M70.7216 25.386C70.9165 24.6788 71.6478 24.2634 72.355 24.4583L83.2022 27.4469C83.9095 27.6417 84.3249 28.373 84.13 29.0803C83.9351 29.7875 83.2038 30.2029 82.4966 30.008L71.6494 27.0194C70.9422 26.8246 70.5268 26.0933 70.7216 25.386Z" fill="#AE6257"/>
<path fill-rule="evenodd" clip-rule="evenodd" d="M70.7216 25.386C70.9165 24.6788 71.6478 24.2634 72.355 24.4583L83.2022 27.4469C83.9095 27.6417 84.3249 28.373 84.13 29.0803C83.9351 29.7875 83.2038 30.2029 82.4966 30.008L71.6494 27.0194C70.9422 26.8246 70.5268 26.0933 70.7216 25.386Z" fill="#F6F8F9" fill-opacity="0.15"/>
<path fill-rule="evenodd" clip-rule="evenodd" d="M69.2274 30.8099C69.4222 30.1026 70.1535 29.6873 70.8608 29.8821L93.9111 36.2329C94.6183 36.4277 95.0337 37.159 94.8388 37.8662C94.644 38.5735 93.9127 38.9889 93.2054 38.794L70.1551 32.4433C69.4479 32.2484 69.0325 31.5171 69.2274 30.8099Z" fill="#AE6257"/>
<path fill-rule="evenodd" clip-rule="evenodd" d="M69.2274 30.8099C69.4222 30.1026 70.1535 29.6873 70.8608 29.8821L93.9111 36.2329C94.6183 36.4277 95.0337 37.159 94.8388 37.8662C94.644 38.5735 93.9127 38.9889 93.2054 38.794L70.1551 32.4433C69.4479 32.2484 69.0325 31.5171 69.2274 30.8099Z" fill="#F6F8F9" fill-opacity="0.8"/>
</g>
<rect x="67.4117" y="17.6572" width="37.0538" height="30.0217" rx="4.50314" transform="rotate(15.4037 67.4117 17.6572)" stroke="#AE6257" stroke-width="0.919604"/>
<rect x="67.4117" y="17.6572" width="37.0538" height="30.0217" rx="4.50314" transform="rotate(15.4037 67.4117 17.6572)" stroke="#F6F8F9" stroke-opacity="0.8" stroke-width="0.919604"/>
</g>
<g filter="url(#filter2_d_12288_53276)">
<g clip-path="url(#clip1_12288_53276)">
<rect x="13.6086" y="22.1348" width="30.5799" height="40.7732" rx="4.44697" transform="rotate(-15.6072 13.6086 22.1348)" fill="white"/>
<path fill-rule="evenodd" clip-rule="evenodd" d="M20.4961 29.8184C20.3278 29.2159 20.6798 28.5911 21.2822 28.4228L31.0997 25.6804C31.7022 25.5121 32.327 25.8641 32.4952 26.4665C32.6635 27.069 32.3116 27.6938 31.7091 27.8621L21.8917 30.6045C21.2892 30.7728 20.6644 30.4208 20.4961 29.8184Z" fill="#3677CC"/>
<path fill-rule="evenodd" clip-rule="evenodd" d="M20.4961 29.8184C20.3278 29.2159 20.6798 28.5911 21.2822 28.4228L31.0997 25.6804C31.7022 25.5121 32.327 25.8641 32.4952 26.4665C32.6635 27.069 32.3116 27.6938 31.7091 27.8621L21.8917 30.6045C21.2892 30.7728 20.6644 30.4208 20.4961 29.8184Z" fill="#F6F8F9" fill-opacity="0.15"/>
<path fill-rule="evenodd" clip-rule="evenodd" d="M21.5266 33.5078C21.3583 32.9054 21.7103 32.2806 22.3128 32.1123L40.7876 26.9515C41.3901 26.7832 42.0149 27.1352 42.1832 27.7376C42.3515 28.3401 41.9995 28.9649 41.397 29.1331L22.9222 34.2939C22.3197 34.4622 21.6949 34.1103 21.5266 33.5078ZM22.4408 36.7803C22.2725 36.1779 22.6244 35.5531 23.2269 35.3848L41.7018 30.224C42.3042 30.0557 42.929 30.4076 43.0973 31.0101C43.2656 31.6125 42.9136 32.2373 42.3112 32.4056L23.8363 37.5664C23.2339 37.7347 22.6091 37.3828 22.4408 36.7803ZM23.3549 40.0528C23.1866 39.4504 23.5386 38.8255 24.141 38.6573L42.6159 33.4965C43.2184 33.3282 43.8432 33.6801 44.0114 34.2826C44.1797 34.885 43.8278 35.5098 43.2253 35.6781L24.7505 40.8389C24.148 41.0072 23.5232 40.6552 23.3549 40.0528ZM24.2691 43.3253C24.1008 42.7228 24.4527 42.098 25.0552 41.9297L43.53 36.769C44.1325 36.6007 44.7573 36.9526 44.9256 37.5551C45.0939 38.1575 44.7419 38.7823 44.1395 38.9506L25.6646 44.1114C25.0622 44.2797 24.4373 43.9277 24.2691 43.3253Z" fill="#3677CC"/>
<path fill-rule="evenodd" clip-rule="evenodd" d="M21.5266 33.5078C21.3583 32.9054 21.7103 32.2806 22.3128 32.1123L40.7876 26.9515C41.3901 26.7832 42.0149 27.1352 42.1832 27.7376C42.3515 28.3401 41.9995 28.9649 41.397 29.1331L22.9222 34.2939C22.3197 34.4622 21.6949 34.1103 21.5266 33.5078ZM22.4408 36.7803C22.2725 36.1779 22.6244 35.5531 23.2269 35.3848L41.7018 30.224C42.3042 30.0557 42.929 30.4076 43.0973 31.0101C43.2656 31.6125 42.9136 32.2373 42.3112 32.4056L23.8363 37.5664C23.2339 37.7347 22.6091 37.3828 22.4408 36.7803ZM23.3549 40.0528C23.1866 39.4504 23.5386 38.8255 24.141 38.6573L42.6159 33.4965C43.2184 33.3282 43.8432 33.6801 44.0114 34.2826C44.1797 34.885 43.8278 35.5098 43.2253 35.6781L24.7505 40.8389C24.148 41.0072 23.5232 40.6552 23.3549 40.0528ZM24.2691 43.3253C24.1008 42.7228 24.4527 42.098 25.0552 41.9297L43.53 36.769C44.1325 36.6007 44.7573 36.9526 44.9256 37.5551C45.0939 38.1575 44.7419 38.7823 44.1395 38.9506L25.6646 44.1114C25.0622 44.2797 24.4373 43.9277 24.2691 43.3253Z" fill="#F6F8F9" fill-opacity="0.8"/>
<path fill-rule="evenodd" clip-rule="evenodd" d="M25.194 46.6364C25.0257 46.0339 25.3776 45.4091 25.9801 45.2408L44.455 40.08C45.0574 39.9117 45.6822 40.2637 45.8505 40.8661C46.0188 41.4686 45.6668 42.0934 45.0644 42.2617L26.5895 47.4225C25.9871 47.5908 25.3623 47.2388 25.194 46.6364ZM26.1081 49.9088C25.9398 49.3064 26.2918 48.6816 26.8942 48.5133L45.3691 43.3525C45.9716 43.1842 46.5964 43.5362 46.7646 44.1386C46.9329 44.7411 46.581 45.3659 45.9785 45.5342L27.5037 50.695C26.9012 50.8632 26.2764 50.5113 26.1081 49.9088ZM27.0223 53.1813C26.854 52.5789 27.2059 51.9541 27.8084 51.7858L46.2832 46.625C46.8857 46.4567 47.5105 46.8087 47.6788 47.4111C47.8471 48.0136 47.4951 48.6384 46.8927 48.8067L28.4178 53.9674C27.8154 54.1357 27.1905 53.7838 27.0223 53.1813ZM27.9364 56.4538C27.7681 55.8514 28.1201 55.2266 28.7225 55.0583L47.1974 49.8975C47.7998 49.7292 48.4246 50.0812 48.5929 50.6836C48.7612 51.2861 48.4093 51.9109 47.8068 52.0791L29.3319 57.2399C28.7295 57.4082 28.1047 57.0563 27.9364 56.4538Z" fill="#3677CC"/>
<path fill-rule="evenodd" clip-rule="evenodd" d="M25.194 46.6364C25.0257 46.0339 25.3776 45.4091 25.9801 45.2408L44.455 40.08C45.0574 39.9117 45.6822 40.2637 45.8505 40.8661C46.0188 41.4686 45.6668 42.0934 45.0644 42.2617L26.5895 47.4225C25.9871 47.5908 25.3623 47.2388 25.194 46.6364ZM26.1081 49.9088C25.9398 49.3064 26.2918 48.6816 26.8942 48.5133L45.3691 43.3525C45.9716 43.1842 46.5964 43.5362 46.7646 44.1386C46.9329 44.7411 46.581 45.3659 45.9785 45.5342L27.5037 50.695C26.9012 50.8632 26.2764 50.5113 26.1081 49.9088ZM27.0223 53.1813C26.854 52.5789 27.2059 51.9541 27.8084 51.7858L46.2832 46.625C46.8857 46.4567 47.5105 46.8087 47.6788 47.4111C47.8471 48.0136 47.4951 48.6384 46.8927 48.8067L28.4178 53.9674C27.8154 54.1357 27.1905 53.7838 27.0223 53.1813ZM27.9364 56.4538C27.7681 55.8514 28.1201 55.2266 28.7225 55.0583L47.1974 49.8975C47.7998 49.7292 48.4246 50.0812 48.5929 50.6836C48.7612 51.2861 48.4093 51.9109 47.8068 52.0791L29.3319 57.2399C28.7295 57.4082 28.1047 57.0563 27.9364 56.4538Z" fill="#F6F8F9" fill-opacity="0.8"/>
</g>
<rect x="14.148" y="22.4386" width="29.7044" height="39.8977" rx="4.00923" transform="rotate(-15.6072 14.148 22.4386)" stroke="#3677CC" stroke-width="0.875498"/>
<rect x="14.148" y="22.4386" width="29.7044" height="39.8977" rx="4.00923" transform="rotate(-15.6072 14.148 22.4386)" stroke="#F6F8F9" stroke-opacity="0.8" stroke-width="0.875498"/>
</g>
<g filter="url(#filter3_d_12288_53276)">
<rect x="38.3273" y="36.7196" width="39.5447" height="32.0173" rx="5.40236" fill="#6D778C"/>
<rect x="38.3273" y="36.7196" width="39.5447" height="32.0173" rx="5.40236" fill="#F6F8F9" fill-opacity="0.975"/>
<rect x="38.3273" y="36.7196" width="39.5447" height="32.0173" rx="5.40236" stroke="#6D778C" stroke-width="1.10324"/>
<rect x="38.3273" y="36.7196" width="39.5447" height="32.0173" rx="5.40236" stroke="#F6F8F9" stroke-opacity="0.8" stroke-width="1.10324"/>
<path d="M50.7982 48.6781C51.3973 49.022 52.0575 49.194 52.7786 49.194C53.4998 49.194 54.1544 49.022 54.7424 48.6781C55.3305 48.3231 55.802 47.846 56.157 47.2469C56.5121 46.6477 56.6896 45.9876 56.6896 45.2664C56.6896 44.5564 56.5121 43.9018 56.157 43.3027C55.802 42.7035 55.3305 42.2265 54.7424 41.8714C54.1544 41.5164 53.4998 41.3389 52.7786 41.3389C52.0575 41.3389 51.3973 41.5164 50.7982 41.8714C50.2102 42.2265 49.7387 42.7035 49.3836 43.3027C49.0286 43.9018 48.8511 44.5564 48.8511 45.2664C48.8511 45.9876 49.0286 46.6477 49.3836 47.2469C49.7387 47.846 50.2102 48.3231 50.7982 48.6781Z" fill="#9B6F02"/>
<path d="M50.7982 48.6781C51.3973 49.022 52.0575 49.194 52.7786 49.194C53.4998 49.194 54.1544 49.022 54.7424 48.6781C55.3305 48.3231 55.802 47.846 56.157 47.2469C56.5121 46.6477 56.6896 45.9876 56.6896 45.2664C56.6896 44.5564 56.5121 43.9018 56.157 43.3027C55.802 42.7035 55.3305 42.2265 54.7424 41.8714C54.1544 41.5164 53.4998 41.3389 52.7786 41.3389C52.0575 41.3389 51.3973 41.5164 50.7982 41.8714C50.2102 42.2265 49.7387 42.7035 49.3836 43.3027C49.0286 43.9018 48.8511 44.5564 48.8511 45.2664C48.8511 45.9876 49.0286 46.6477 49.3836 47.2469C49.7387 47.846 50.2102 48.3231 50.7982 48.6781Z" fill="#F6F8F9" fill-opacity="0.15"/>
<path d="M47.5147 55.165C48.2962 54.0596 48.687 53.5069 49.1665 53.3094C49.5864 53.1364 50.0525 53.1364 50.4725 53.3094C50.9519 53.5069 51.3427 54.0596 52.1242 55.165L54.9481 59.159C56.0544 60.7237 56.6075 61.5061 56.5939 62.1608C56.582 62.7306 56.3287 63.2646 55.9039 63.6157C55.4158 64.0191 54.4916 64.0191 52.6433 64.0191H46.9956C45.1473 64.0191 44.2231 64.0191 43.735 63.6157C43.3102 63.2646 43.0569 62.7306 43.045 62.1608C43.0314 61.5061 43.5845 60.7237 44.6909 59.159L47.5147 55.165Z" fill="#5A8228"/>
<path d="M47.5147 55.165C48.2962 54.0596 48.687 53.5069 49.1665 53.3094C49.5864 53.1364 50.0525 53.1364 50.4725 53.3094C50.9519 53.5069 51.3427 54.0596 52.1242 55.165L54.9481 59.159C56.0544 60.7237 56.6075 61.5061 56.5939 62.1608C56.582 62.7306 56.3287 63.2646 55.9039 63.6157C55.4158 64.0191 54.4916 64.0191 52.6433 64.0191H46.9956C45.1473 64.0191 44.2231 64.0191 43.735 63.6157C43.3102 63.2646 43.0569 62.7306 43.045 62.1608C43.0314 61.5061 43.5845 60.7237 44.6909 59.159L47.5147 55.165Z" fill="#F6F8F9" fill-opacity="0.55"/>
<path d="M59.9424 48.3975C60.7637 47.0266 61.1743 46.3411 61.7014 46.1067C62.1617 45.9019 62.6833 45.9019 63.1435 46.1067C63.6706 46.3411 64.0813 47.0266 64.9025 48.3975L71.5079 59.4235C72.4071 60.9244 72.8566 61.6749 72.8065 62.2937C72.7628 62.8332 72.4962 63.3271 72.0749 63.6493C71.5916 64.0189 70.737 64.0189 69.0278 64.0189H55.8171C54.1079 64.0189 53.2533 64.0189 52.77 63.6493C52.3487 63.3271 52.0821 62.8332 52.0384 62.2937C51.9883 61.6749 52.4379 60.9244 53.3371 59.4235L59.9424 48.3975Z" fill="#5A8228"/>
</g>
</g>
<defs>
<filter id="filter0_d_12288_53276" x="-4.86374e-05" y="0.000195503" width="117.844" height="89.4" filterUnits="userSpaceOnUse" color-interpolation-filters="sRGB">
<feFlood flood-opacity="0" result="BackgroundImageFix"/>
<feColorMatrix in="SourceAlpha" type="matrix" values="0 0 0 0 0 0 0 0 0 0 0 0 0 0 0 0 0 0 127 0" result="hardAlpha"/>
<feOffset/>
<feGaussianBlur stdDeviation="4.35"/>
<feComposite in2="hardAlpha" operator="out"/>
<feColorMatrix type="matrix" values="0 0 0 0 0.190223 0 0 0 0 0.190223 0 0 0 0 0.190223 0 0 0 0.08 0"/>
<feBlend mode="normal" in2="BackgroundImageFix" result="effect1_dropShadow_12288_53276"/>
<feBlend mode="normal" in="SourceGraphic" in2="effect1_dropShadow_12288_53276" result="shape"/>
</filter>
<filter id="filter1_d_12288_53276" x="48.5463" y="6.07275" width="65.8529" height="65.8525" filterUnits="userSpaceOnUse" color-interpolation-filters="sRGB">
<feFlood flood-opacity="0" result="BackgroundImageFix"/>
<feColorMatrix in="SourceAlpha" type="matrix" values="0 0 0 0 0 0 0 0 0 0 0 0 0 0 0 0 0 0 127 0" result="hardAlpha"/>
<feOffset dy="2.62744"/>
<feGaussianBlur stdDeviation="2.62744"/>
<feComposite in2="hardAlpha" operator="out"/>
<feColorMatrix type="matrix" values="0 0 0 0 0.0941176 0 0 0 0 0.105882 0 0 0 0 0.141176 0 0 0 0.05 0"/>
<feBlend mode="normal" in2="BackgroundImageFix" result="effect1_dropShadow_12288_53276"/>
<feBlend mode="normal" in="SourceGraphic" in2="effect1_dropShadow_12288_53276" result="shape"/>
</filter>
<filter id="filter2_d_12288_53276" x="3.6971" y="10.0347" width="60.2453" height="60.245" filterUnits="userSpaceOnUse" color-interpolation-filters="sRGB">
<feFlood flood-opacity="0" result="BackgroundImageFix"/>
<feColorMatrix in="SourceAlpha" type="matrix" values="0 0 0 0 0 0 0 0 0 0 0 0 0 0 0 0 0 0 127 0" result="hardAlpha"/>
<feOffset dy="2.50142"/>
<feGaussianBlur stdDeviation="2.50142"/>
<feComposite in2="hardAlpha" operator="out"/>
<feColorMatrix type="matrix" values="0 0 0 0 0.0941176 0 0 0 0 0.105882 0 0 0 0 0.141176 0 0 0 0.05 0"/>
<feBlend mode="normal" in2="BackgroundImageFix" result="effect1_dropShadow_12288_53276"/>
<feBlend mode="normal" in="SourceGraphic" in2="effect1_dropShadow_12288_53276" result="shape"/>
</filter>
<filter id="filter3_d_12288_53276" x="27.7077" y="24.7356" width="60.7837" height="60.7832" filterUnits="userSpaceOnUse" color-interpolation-filters="sRGB">
<feFlood flood-opacity="0" result="BackgroundImageFix"/>
<feColorMatrix in="SourceAlpha" type="matrix" values="0 0 0 0 0 0 0 0 0 0 0 0 0 0 0 0 0 0 127 0" result="hardAlpha"/>
<feOffset dy="3.15211"/>
<feGaussianBlur stdDeviation="3.15211"/>
<feComposite in2="hardAlpha" operator="out"/>
<feColorMatrix type="matrix" values="0 0 0 0 0.0941176 0 0 0 0 0.105882 0 0 0 0 0.141176 0 0 0 0.05 0"/>
<feBlend mode="normal" in2="BackgroundImageFix" result="effect1_dropShadow_12288_53276"/>
<feBlend mode="normal" in="SourceGraphic" in2="effect1_dropShadow_12288_53276" result="shape"/>
</filter>
<clipPath id="clip0_12288_53276">
<rect x="67.0906" y="17.0918" width="37.9734" height="30.9413" rx="4.96294" transform="rotate(15.4037 67.0906 17.0918)" fill="white"/>
</clipPath>
<clipPath id="clip1_12288_53276">
<rect x="13.6086" y="22.1348" width="30.5799" height="40.7732" rx="4.44697" transform="rotate(-15.6072 13.6086 22.1348)" fill="white"/>
</clipPath>
</defs>
</svg>
