<svg width="133" height="81" viewBox="0 0 133 81" fill="none" xmlns="http://www.w3.org/2000/svg">
<g filter="url(#filter0_d_12288_54182)">
<path d="M19.5455 47.6475C17.7232 47.6475 16.4744 47.1259 15.7991 46.0828C15.1208 45.0522 15.0306 43.5315 15.5288 41.5206L19.0194 27.4296C19.4474 25.7019 21.2372 24.3014 23.0171 24.3014H55.2453C57.0252 24.3014 58.1211 25.7019 57.6931 27.4296L54.2025 41.5206C53.7044 43.5315 52.8777 45.0522 51.7225 46.0828C50.5642 47.1259 49.1808 47.6475 47.5722 47.6475H19.5455Z" fill="#6D778C"/>
<path d="M52.6664 21.6423H23.6757C20.3829 21.6423 17.0717 24.2333 16.2799 27.4295L14.011 36.5887V18.8158C14.011 16.9025 14.4497 15.4615 15.3271 14.4928C16.2158 13.5119 17.4475 13.0215 19.0224 13.0215H23.7975C24.3825 13.0215 24.8887 13.0639 25.3161 13.1486C25.7436 13.2334 26.1373 13.3787 26.4973 13.5846C26.8572 13.7783 27.2341 14.0508 27.6278 14.4019L28.5896 15.2557C29.062 15.6553 29.5064 15.9398 29.9226 16.1094C30.3388 16.2789 30.8506 16.3637 31.458 16.3637H47.1503C48.9614 16.3637 50.3337 16.8662 51.2674 17.8713C52.1048 18.7621 52.5712 20.019 52.6664 21.6423Z" fill="#6D778C"/>
</g>
<g filter="url(#filter1_d_12288_54182)">
<g clip-path="url(#clip0_12288_54182)">
<path d="M46 39.4682C46 37.8931 47.2769 36.6162 48.8519 36.6162H114.148C115.723 36.6162 117 37.8931 117 39.4682V62.9967C117 64.5718 115.723 65.8486 114.148 65.8486H48.8519C47.2769 65.8486 46 64.5718 46 62.9967V39.4682Z" fill="white"/>
<rect width="100.531" height="0.712986" transform="translate(46 36.6162)" fill="#DFE2EA"/>
<rect width="193.932" height="28.5194" transform="translate(46 37.3291)" fill="#181B24" fill-opacity="0.05"/>
<g filter="url(#filter2_d_12288_54182)">
<path d="M56.2773 58.9859C56.1017 58.8555 55.9938 58.6799 55.9537 58.4592C55.9186 58.2434 55.9512 57.9876 56.0515 57.6916L57.6018 53.0935L53.6509 50.2564C53.3951 50.0758 53.217 49.8877 53.1166 49.692C53.0163 49.4913 53.0012 49.2856 53.0715 49.0749C53.1417 48.8692 53.2746 48.7162 53.4703 48.6159C53.666 48.5155 53.9218 48.4654 54.2379 48.4654H59.0768L60.5518 43.8748C60.6471 43.5738 60.7725 43.3456 60.928 43.19C61.0886 43.0295 61.2767 42.9492 61.4924 42.9492C61.7132 42.9492 61.9013 43.0295 62.0568 43.19C62.2174 43.3456 62.3453 43.5738 62.4406 43.8748L63.9156 48.4654H68.7545C69.0706 48.4654 69.3264 48.5155 69.5221 48.6159C69.7177 48.7162 69.8507 48.8692 69.9209 49.0749C69.9912 49.2856 69.9761 49.4913 69.8758 49.692C69.7754 49.8877 69.5973 50.0758 69.3415 50.2564L65.3906 53.0935L66.9409 57.6916C67.0412 57.9876 67.0713 58.2434 67.0312 58.4592C66.996 58.6799 66.8907 58.8555 66.7151 58.9859C66.5395 59.1264 66.3413 59.1766 66.1206 59.1364C65.8998 59.0963 65.664 58.9859 65.4132 58.8053L61.4924 55.9231L57.5792 58.8053C57.3284 58.9859 57.0926 59.0963 56.8718 59.1364C56.6511 59.1766 56.4529 59.1264 56.2773 58.9859Z" fill="#C49711"/>
</g>
<path d="M79.4786 49.2245C79.4786 49.4845 79.5523 49.7098 79.6996 49.9005C79.8556 50.0912 80.0593 50.2559 80.3107 50.3946C80.562 50.5332 80.8394 50.6676 81.1427 50.7976C81.4461 50.9276 81.7451 51.0706 82.0398 51.2266C82.3431 51.3826 82.6205 51.569 82.8718 51.7856C83.1232 52.0023 83.3268 52.2667 83.4828 52.5787C83.6388 52.882 83.7169 53.2547 83.7169 53.6967C83.7082 54.2341 83.5738 54.7021 83.3138 55.1008C83.0538 55.4995 82.7071 55.8072 82.2738 56.0239C81.8404 56.2405 81.3507 56.3489 80.8047 56.3489C80.0853 56.3489 79.4656 56.2189 78.9456 55.9589C78.4256 55.6988 77.9662 55.3218 77.5675 54.8278L78.6596 53.8267C78.9629 54.2081 79.2923 54.5028 79.6476 54.7108C80.0117 54.9101 80.3887 55.0098 80.7787 55.0098C81.082 55.0098 81.3377 54.9578 81.5457 54.8538C81.7537 54.7498 81.9141 54.6025 82.0268 54.4118C82.1394 54.2124 82.1958 53.9871 82.1958 53.7357C82.1958 53.4671 82.1178 53.2417 81.9618 53.0597C81.8144 52.869 81.6151 52.7043 81.3637 52.5657C81.1124 52.4183 80.835 52.2797 80.5317 52.1497C80.2283 52.011 79.925 51.8636 79.6216 51.7076C79.3183 51.5516 79.0409 51.3696 78.7896 51.1616C78.5382 50.9449 78.3346 50.6849 78.1785 50.3816C78.0312 50.0695 77.9575 49.6968 77.9575 49.2635C77.9575 48.9168 78.0269 48.5918 78.1655 48.2884C78.3042 47.9851 78.4949 47.7164 78.7376 47.4824C78.9889 47.2484 79.2879 47.0664 79.6346 46.9364C79.9813 46.7977 80.3583 46.7284 80.7657 46.7284C81.4244 46.7284 82.0008 46.867 82.4948 47.1444C82.9888 47.4131 83.4178 47.7771 83.7819 48.2364L82.6768 49.2245C82.4081 48.8605 82.1134 48.5745 81.7927 48.3664C81.4807 48.1584 81.1427 48.0544 80.7787 48.0544C80.5187 48.0544 80.289 48.1064 80.0897 48.2104C79.899 48.3058 79.7473 48.4401 79.6346 48.6135C79.5306 48.7868 79.4786 48.9905 79.4786 49.2245ZM84.6044 50.7456V49.5365H89.3626V50.7456H84.6044ZM85.8394 53.8137V47.8984H87.1915V53.8137C87.1915 54.1084 87.2392 54.3424 87.3345 54.5158C87.4385 54.6891 87.5772 54.8105 87.7505 54.8798C87.9325 54.9491 88.1449 54.9838 88.3876 54.9838C88.6129 54.9838 88.8036 54.9708 88.9596 54.9448C89.1156 54.9188 89.2499 54.8841 89.3626 54.8408V56.0239C89.2066 56.0932 89.0333 56.1409 88.8426 56.1669C88.6519 56.2015 88.4309 56.2189 88.1796 56.2189C87.6682 56.2189 87.2392 56.1322 86.8925 55.9589C86.5458 55.7769 86.2814 55.5082 86.0994 55.1528C85.9261 54.7888 85.8394 54.3424 85.8394 53.8137ZM93.4166 50.4596C93.0613 50.4596 92.7449 50.5376 92.4676 50.6936C92.1902 50.8496 91.9562 51.0576 91.7655 51.3176L90.7645 50.5636C91.0591 50.1649 91.4362 49.8529 91.8955 49.6275C92.3549 49.3935 92.8749 49.2765 93.4556 49.2765C94.045 49.2765 94.5433 49.3848 94.9507 49.6015C95.3667 49.8095 95.6787 50.1042 95.8867 50.4856C96.0948 50.8582 96.1988 51.2829 96.1988 51.7596V56.0889H94.8597V54.9058V51.7596C94.8597 51.3609 94.7253 51.0446 94.4567 50.8106C94.188 50.5766 93.8413 50.4596 93.4166 50.4596ZM92.7666 56.2839C92.1165 56.2839 91.5878 56.1149 91.1805 55.7769C90.7818 55.4302 90.5824 54.9665 90.5824 54.3858C90.5824 53.8917 90.7688 53.4757 91.1415 53.1377C91.5142 52.791 92.0472 52.5613 92.7406 52.4487L94.9247 52.0846L95.1847 52.9947L93.0916 53.3457C92.6842 53.4151 92.3895 53.5364 92.2075 53.7097C92.0255 53.8744 91.9345 54.0824 91.9345 54.3338C91.9345 54.5851 92.0299 54.7931 92.2205 54.9578C92.4199 55.1138 92.6842 55.1918 93.0136 55.1918C93.4209 55.1918 93.7806 55.1008 94.0926 54.9188C94.4133 54.7281 94.6733 54.4724 94.8727 54.1518L95.0937 54.9708C94.9724 55.2395 94.7903 55.4735 94.5477 55.6728C94.305 55.8635 94.0276 56.0109 93.7156 56.1149C93.4036 56.2275 93.0873 56.2839 92.7666 56.2839ZM98.2978 56.0889V49.5365H99.6368V51.0056V56.0889H98.2978ZM99.6368 51.7206L99.0258 51.1096C99.1645 50.8929 99.3118 50.6849 99.4678 50.4856C99.6325 50.2775 99.8102 50.0912 100.001 49.9265C100.2 49.7619 100.421 49.6362 100.664 49.5495C100.907 49.4542 101.175 49.4065 101.47 49.4065C101.583 49.4065 101.682 49.4152 101.769 49.4325C101.864 49.4498 101.955 49.4715 102.042 49.4975V50.8106C101.938 50.7846 101.83 50.7629 101.717 50.7456C101.613 50.7282 101.492 50.7196 101.353 50.7196C101.076 50.7196 100.829 50.7672 100.612 50.8626C100.395 50.9493 100.205 51.0663 100.04 51.2136C99.8839 51.3609 99.7495 51.5299 99.6368 51.7206Z" fill="#222631"/>
</g>
<path d="M48.8516 36.9727H114.148C115.526 36.9729 116.643 38.0899 116.644 39.4678V62.9971C116.643 64.375 115.526 65.492 114.148 65.4922H48.8516C47.4737 65.492 46.3567 64.375 46.3564 62.9971V39.4678C46.3567 38.0899 47.4737 36.9729 48.8516 36.9727Z" stroke="#DFE2EA" stroke-width="0.712986"/>
</g>
<defs>
<filter id="filter0_d_12288_54182" x="4.69578" y="3.84789" width="60.7837" height="60.7832" filterUnits="userSpaceOnUse" color-interpolation-filters="sRGB">
<feFlood flood-opacity="0" result="BackgroundImageFix"/>
<feColorMatrix in="SourceAlpha" type="matrix" values="0 0 0 0 0 0 0 0 0 0 0 0 0 0 0 0 0 0 127 0" result="hardAlpha"/>
<feOffset dy="3.15211"/>
<feGaussianBlur stdDeviation="3.15211"/>
<feComposite in2="hardAlpha" operator="out"/>
<feColorMatrix type="matrix" values="0 0 0 0 0.0941176 0 0 0 0 0.105882 0 0 0 0 0.141176 0 0 0 0.05 0"/>
<feBlend mode="normal" in2="BackgroundImageFix" result="effect1_dropShadow_12288_54182"/>
<feBlend mode="normal" in="SourceGraphic" in2="effect1_dropShadow_12288_54182" result="shape"/>
</filter>
<filter id="filter1_d_12288_54182" x="41.7221" y="32.3383" width="79.5558" height="37.7883" filterUnits="userSpaceOnUse" color-interpolation-filters="sRGB">
<feFlood flood-opacity="0" result="BackgroundImageFix"/>
<feColorMatrix in="SourceAlpha" type="matrix" values="0 0 0 0 0 0 0 0 0 0 0 0 0 0 0 0 0 0 127 0" result="hardAlpha"/>
<feOffset/>
<feGaussianBlur stdDeviation="2.13896"/>
<feComposite in2="hardAlpha" operator="out"/>
<feColorMatrix type="matrix" values="0 0 0 0 0 0 0 0 0 0 0 0 0 0 0 0 0 0 0.1 0"/>
<feBlend mode="normal" in2="BackgroundImageFix" result="effect1_dropShadow_12288_54182"/>
<feBlend mode="normal" in="SourceGraphic" in2="effect1_dropShadow_12288_54182" result="shape"/>
</filter>
<filter id="filter2_d_12288_54182" x="45.0156" y="34.6318" width="32.9688" height="32.9688" filterUnits="userSpaceOnUse" color-interpolation-filters="sRGB">
<feFlood flood-opacity="0" result="BackgroundImageFix"/>
<feColorMatrix in="SourceAlpha" type="matrix" values="0 0 0 0 0 0 0 0 0 0 0 0 0 0 0 0 0 0 127 0" result="hardAlpha"/>
<feOffset/>
<feGaussianBlur stdDeviation="3.5"/>
<feComposite in2="hardAlpha" operator="out"/>
<feColorMatrix type="matrix" values="0 0 0 0 0.768627 0 0 0 0 0.592157 0 0 0 0 0.0666667 0 0 0 0.3 0"/>
<feBlend mode="normal" in2="BackgroundImageFix" result="effect1_dropShadow_12288_54182"/>
<feBlend mode="normal" in="SourceGraphic" in2="effect1_dropShadow_12288_54182" result="shape"/>
</filter>
<clipPath id="clip0_12288_54182">
<path d="M46 39.4682C46 37.8931 47.2769 36.6162 48.8519 36.6162H114.148C115.723 36.6162 117 37.8931 117 39.4682V62.9967C117 64.5718 115.723 65.8486 114.148 65.8486H48.8519C47.2769 65.8486 46 64.5718 46 62.9967V39.4682Z" fill="white"/>
</clipPath>
</defs>
</svg>
