<svg width="33" height="33" viewBox="0 0 33 33" fill="none" xmlns="http://www.w3.org/2000/svg">
<path d="M6.17624 27.5C4.96578 27.5 4.13628 27.1536 3.68775 26.4607C3.23715 25.7761 3.17729 24.766 3.50817 23.4303L5.82678 14.0705C6.11106 12.9229 7.29995 11.9926 8.48224 11.9926H29.8895C31.0718 11.9926 31.7998 12.9229 31.5155 14.0705L29.1969 23.4303C28.866 24.766 28.3169 25.7761 27.5496 26.4607C26.7801 27.1536 25.8612 27.5 24.7927 27.5H6.17624Z" fill="#929292"/>
<path d="M6.17624 27.5C4.96578 27.5 4.13628 27.1536 3.68775 26.4607C3.23715 25.7761 3.17729 24.766 3.50817 23.4303L5.82678 14.0705C6.11106 12.9229 7.29995 11.9926 8.48224 11.9926H29.8895C31.0718 11.9926 31.7998 12.9229 31.5155 14.0705L29.1969 23.4303C28.866 24.766 28.3169 25.7761 27.5496 26.4607C26.7801 27.1536 25.8612 27.5 24.7927 27.5H6.17624Z" fill="url(#paint0_linear_9274_350)" fill-opacity="0.16"/>
<path d="M6.17624 27.5C4.96578 27.5 4.13628 27.1536 3.68775 26.4607C3.23715 25.7761 3.17729 24.766 3.50817 23.4303L5.82678 14.0705C6.11106 12.9229 7.29995 11.9926 8.48224 11.9926H29.8895C31.0718 11.9926 31.7998 12.9229 31.5155 14.0705L29.1969 23.4303C28.866 24.766 28.3169 25.7761 27.5496 26.4607C26.7801 27.1536 25.8612 27.5 24.7927 27.5H6.17624Z" fill="url(#paint1_linear_9274_350)" fill-opacity="0.07"/>
<path d="M28.1765 10.2263H8.91971C6.73248 10.2263 4.53303 11.9473 4.00711 14.0704L2.5 20.1543V8.34882C2.5 7.07794 2.79141 6.12077 3.37422 5.47729C3.96451 4.82576 4.78269 4.5 5.82877 4.5H9.00063C9.38917 4.5 9.72541 4.52815 10.0093 4.58446C10.2933 4.64076 10.5548 4.73728 10.7939 4.87402C11.033 5.00272 11.2833 5.1837 11.5448 5.41696L12.1837 5.98403C12.4975 6.24946 12.7927 6.43848 13.0691 6.55109C13.3456 6.6637 13.6856 6.72001 14.0891 6.72001H24.5125C25.7155 6.72001 26.6271 7.05381 27.2472 7.72142C27.8035 8.31312 28.1133 9.14807 28.1765 10.2263Z" fill="#929292"/>
<path d="M28.1765 10.2263H8.91971C6.73248 10.2263 4.53303 11.9473 4.00711 14.0704L2.5 20.1543V8.34882C2.5 7.07794 2.79141 6.12077 3.37422 5.47729C3.96451 4.82576 4.78269 4.5 5.82877 4.5H9.00063C9.38917 4.5 9.72541 4.52815 10.0093 4.58446C10.2933 4.64076 10.5548 4.73728 10.7939 4.87402C11.033 5.00272 11.2833 5.1837 11.5448 5.41696L12.1837 5.98403C12.4975 6.24946 12.7927 6.43848 13.0691 6.55109C13.3456 6.6637 13.6856 6.72001 14.0891 6.72001H24.5125C25.7155 6.72001 26.6271 7.05381 27.2472 7.72142C27.8035 8.31312 28.1133 9.14807 28.1765 10.2263Z" fill="url(#paint2_linear_9274_350)" fill-opacity="0.16"/>
<path d="M28.1765 10.2263H8.91971C6.73248 10.2263 4.53303 11.9473 4.00711 14.0704L2.5 20.1543V8.34882C2.5 7.07794 2.79141 6.12077 3.37422 5.47729C3.96451 4.82576 4.78269 4.5 5.82877 4.5H9.00063C9.38917 4.5 9.72541 4.52815 10.0093 4.58446C10.2933 4.64076 10.5548 4.73728 10.7939 4.87402C11.033 5.00272 11.2833 5.1837 11.5448 5.41696L12.1837 5.98403C12.4975 6.24946 12.7927 6.43848 13.0691 6.55109C13.3456 6.6637 13.6856 6.72001 14.0891 6.72001H24.5125C25.7155 6.72001 26.6271 7.05381 27.2472 7.72142C27.8035 8.31312 28.1133 9.14807 28.1765 10.2263Z" fill="url(#paint3_linear_9274_350)" fill-opacity="0.07"/>
<defs>
<linearGradient id="paint0_linear_9274_350" x1="25.2573" y1="24.1362" x2="8.45" y2="-2.27523" gradientUnits="userSpaceOnUse">
<stop stop-color="white" stop-opacity="0"/>
<stop offset="1" stop-color="white"/>
</linearGradient>
<linearGradient id="paint1_linear_9274_350" x1="17.0385" y1="16" x2="29.7678" y2="39.4819" gradientUnits="userSpaceOnUse">
<stop stop-opacity="0"/>
<stop offset="1"/>
</linearGradient>
<linearGradient id="paint2_linear_9274_350" x1="25.2573" y1="24.1362" x2="8.45" y2="-2.27523" gradientUnits="userSpaceOnUse">
<stop stop-color="white" stop-opacity="0"/>
<stop offset="1" stop-color="white"/>
</linearGradient>
<linearGradient id="paint3_linear_9274_350" x1="17.0385" y1="16" x2="29.7678" y2="39.4819" gradientUnits="userSpaceOnUse">
<stop stop-opacity="0"/>
<stop offset="1"/>
</linearGradient>
</defs>
</svg>
