<svg width="16" height="16" viewBox="0 0 16 16" fill="none" xmlns="http://www.w3.org/2000/svg">
<path fill-rule="evenodd" clip-rule="evenodd" d="M12.5842 8.28314C13.0436 8.28314 13.4744 8.36858 13.8761 8.53952C14.2779 8.71055 14.6318 8.95007 14.9367 9.2571C15.2416 9.56202 15.4797 9.91527 15.6507 10.317C15.8238 10.7188 15.91 11.1486 15.91 11.6061C15.91 12.0635 15.8238 12.4933 15.6507 12.8951C15.4797 13.2968 15.2416 13.6501 14.9367 13.955C14.6318 14.26 14.2779 14.498 13.8761 14.669C13.4744 14.8421 13.0436 14.929 12.5842 14.929C12.1268 14.929 11.6969 14.8421 11.2951 14.669C10.8934 14.498 10.5401 14.2599 10.2352 13.955C9.93035 13.6501 9.69144 13.2968 9.51837 12.8951C9.34735 12.4933 9.262 12.0635 9.26199 11.6061C9.26199 11.1486 9.34734 10.7188 9.51837 10.317C9.69143 9.91529 9.93036 9.562 10.2352 9.2571C10.5402 8.95011 10.8934 8.71054 11.2951 8.53952C11.6969 8.36851 12.1268 8.28316 12.5842 8.28314ZM11.1318 13.1701C10.9601 13.2274 10.8166 13.2953 10.7007 13.3728C10.7195 13.3928 10.7378 13.4134 10.7573 13.4329C10.9963 13.6699 11.2719 13.8555 11.583 13.9894C11.6447 14.0159 11.7079 14.0383 11.7714 14.0596C11.644 13.9358 11.5264 13.7866 11.4219 13.6091C11.3403 13.4675 11.2692 13.313 11.2063 13.1465C11.1812 13.1543 11.1563 13.1618 11.1318 13.1701ZM13.9635 13.1458C13.9007 13.3124 13.8293 13.4674 13.7465 13.6091C13.6419 13.7868 13.5239 13.9357 13.3963 14.0596C13.4602 14.0382 13.524 14.0161 13.5861 13.9894C13.8992 13.8555 14.1742 13.6698 14.4111 13.4329C14.431 13.4132 14.4499 13.3923 14.4691 13.3721C14.3535 13.2951 14.211 13.2271 14.0401 13.1701C14.0151 13.1615 13.9894 13.1539 13.9635 13.1458ZM12.3278 12.966C12.1464 12.974 11.971 12.9901 11.8022 13.0154C11.778 13.0189 11.7542 13.0232 11.7305 13.0269C11.7568 13.0934 11.7853 13.1577 11.815 13.2195C11.9201 13.4378 12.0392 13.611 12.1731 13.7387C12.2238 13.7871 12.2763 13.824 12.3278 13.854V12.966ZM12.847 13.8519C12.8976 13.8221 12.9493 13.786 12.9988 13.7387C13.1327 13.611 13.2519 13.4378 13.3569 13.2195C13.3865 13.1574 13.4138 13.0927 13.44 13.0262C13.4167 13.0225 13.3929 13.0188 13.3691 13.0154C13.2017 12.9903 13.0276 12.9741 12.847 12.966V13.8519ZM14.2191 11.8624C14.2059 12.1405 14.169 12.4041 14.111 12.6538C14.175 12.674 14.2367 12.696 14.2965 12.7189C14.4905 12.791 14.6517 12.8753 14.7813 12.9703C14.8528 12.8565 14.9161 12.7368 14.9704 12.6108C15.0717 12.3738 15.1348 12.1242 15.1594 11.8624H14.2191ZM10.0125 11.8624C10.0372 12.1242 10.1002 12.3738 10.2016 12.6108C10.2557 12.7365 10.3183 12.856 10.3892 12.9696C10.5197 12.875 10.6802 12.7908 10.8719 12.7189C10.9315 12.6963 10.9931 12.6745 11.0566 12.6545C10.9986 12.4046 10.9632 12.1407 10.9499 11.8624H10.0125ZM11.4799 11.8624C11.4924 12.0739 11.5199 12.279 11.5644 12.4776C11.5683 12.4952 11.5732 12.5125 11.5773 12.5299C11.6047 12.525 11.6324 12.5194 11.6604 12.5148C11.8746 12.4786 12.097 12.4558 12.3278 12.4461V11.8624H11.4799ZM12.847 12.4461C13.0773 12.4559 13.2988 12.4789 13.5116 12.5148C13.5392 12.5193 13.5662 12.5251 13.5932 12.5299C13.5976 12.5115 13.6034 12.4934 13.6076 12.4747C13.6519 12.2766 13.6795 12.0723 13.6921 11.8624H12.847V12.4461ZM10.3828 10.2525C10.3142 10.3639 10.2542 10.4817 10.2016 10.6049C10.1008 10.8391 10.0381 11.0861 10.0132 11.3461H10.9507C10.9644 11.0752 10.9995 10.818 11.0559 10.5741C10.9927 10.5544 10.9312 10.5338 10.8719 10.5118C10.6768 10.4369 10.5145 10.3495 10.3828 10.2525ZM11.5644 10.7467C11.5211 10.9414 11.4943 11.1413 11.4813 11.3461H12.3278V10.7811C12.0971 10.7718 11.8745 10.7506 11.6604 10.7159C11.6319 10.7111 11.6038 10.7046 11.5759 10.6994C11.5722 10.7151 11.5679 10.7308 11.5644 10.7467ZM13.5116 10.7159C13.2988 10.7504 13.0772 10.7717 12.847 10.7811V11.3461H13.6906C13.6777 11.1413 13.6508 10.9414 13.6076 10.7467C13.604 10.7307 13.5991 10.7152 13.5954 10.6994C13.5677 10.7045 13.5399 10.7111 13.5116 10.7159ZM14.7871 10.2518C14.6564 10.349 14.4936 10.4368 14.2965 10.5118C14.237 10.5341 14.1753 10.555 14.1117 10.5748C14.1681 10.8185 14.2047 11.0753 14.2184 11.3461H15.1587C15.1338 11.0862 15.0712 10.8391 14.9704 10.6049C14.9175 10.4813 14.8563 10.3635 14.7871 10.2518ZM12.3278 9.36094C12.2763 9.39098 12.2238 9.42791 12.1731 9.47624C12.0392 9.60399 11.9201 9.77854 11.815 9.99902C11.784 10.0643 11.755 10.1321 11.7277 10.2024C11.7523 10.2065 11.777 10.2115 11.8022 10.2153C11.9711 10.2392 12.1464 10.2543 12.3278 10.2618V9.36094ZM12.847 10.2611C13.0276 10.2535 13.2017 10.239 13.3691 10.2153C13.3941 10.2116 13.4191 10.2064 13.4436 10.2024C13.4163 10.1322 13.388 10.0642 13.3569 9.99902C13.2518 9.77859 13.1327 9.60399 12.9988 9.47624C12.9493 9.42901 12.8977 9.39286 12.847 9.36309V10.2611ZM13.3891 9.14896C13.521 9.27495 13.6408 9.42876 13.7465 9.61231C13.8303 9.75581 13.9023 9.91309 13.9656 10.0828C13.9907 10.0752 14.0158 10.0687 14.0401 10.0606C14.2155 10.0003 14.3606 9.92839 14.4777 9.84863C14.4558 9.8253 14.4339 9.8018 14.4111 9.77917C14.1742 9.54227 13.8992 9.35664 13.5861 9.22272C13.5216 9.19496 13.4556 9.17097 13.3891 9.14896ZM11.7807 9.14824C11.7139 9.17033 11.6479 9.19482 11.583 9.22272C11.2719 9.35666 10.9963 9.5422 10.7573 9.77917C10.7349 9.80155 10.7136 9.82485 10.6921 9.84792C10.8095 9.92815 10.9556 10 11.1318 10.0606C11.1555 10.0684 11.1799 10.0747 11.2042 10.0821C11.2676 9.91259 11.3393 9.75565 11.4219 9.61231C11.5292 9.4286 11.6493 9.2743 11.7807 9.14824Z" fill="#626A80"/>
<path fill-rule="evenodd" clip-rule="evenodd" d="M4.32703 1.65234C4.55046 1.65234 4.74382 1.66738 4.9071 1.69746C5.07039 1.72754 5.22078 1.7791 5.35828 1.85215C5.49578 1.9209 5.63972 2.01758 5.79011 2.14219L6.1575 2.44512C6.33796 2.58691 6.50769 2.68789 6.66667 2.74805C6.82566 2.8082 7.02117 2.83828 7.2532 2.83828H13.2473C13.9391 2.83828 14.4634 3.0166 14.82 3.37324C15.1809 3.72988 15.3614 4.25195 15.3614 4.93945V7.55912C15.3614 7.61875 15.2935 7.65392 15.244 7.6207C14.9951 7.4538 14.731 7.30941 14.4512 7.1903C14.3514 7.14784 14.25 7.11049 14.1483 7.07572C14.1184 7.06551 14.0981 7.03712 14.0981 7.00553V6.53789H1.85847V11.4557C1.85847 11.7693 1.93582 12.0035 2.0905 12.1582C2.24949 12.3129 2.47937 12.3902 2.78015 12.3902H7.79604C7.83196 12.3903 7.86216 12.4164 7.86837 12.4518C7.92935 12.7999 8.02896 13.14 8.16915 13.4695L8.1713 13.4752C8.18268 13.5016 8.19462 13.5278 8.20639 13.554C8.22851 13.6032 8.19234 13.66 8.13835 13.66H2.70281C2.00671 13.66 1.48035 13.4816 1.12371 13.125C0.767065 12.7727 0.588745 12.2527 0.588745 11.5652V3.7084C0.588745 3.02949 0.756323 2.51816 1.09148 2.17441C1.43093 1.82637 1.90144 1.65234 2.503 1.65234H4.32703ZM2.75437 2.91563C2.46648 2.91563 2.24519 2.99297 2.0905 3.14766C1.93582 3.29805 1.85847 3.52148 1.85847 3.81797V5.42285H14.0981V5.04902C14.0981 4.73535 14.0165 4.50117 13.8532 4.34648C13.6899 4.1875 13.46 4.10801 13.1636 4.10801H6.91804C6.6946 4.10801 6.4991 4.09297 6.33152 4.06289C6.16824 4.03281 6.0157 3.9834 5.8739 3.91465C5.7364 3.8416 5.5946 3.74492 5.44851 3.62461L5.08113 3.32168C4.90066 3.17559 4.73093 3.07246 4.57195 3.0123C4.41726 2.94785 4.22605 2.91563 3.99832 2.91563H2.75437Z" fill="#626A80"/>
</svg>
