<svg width="16" height="16" viewBox="0 0 16 16" fill="none" xmlns="http://www.w3.org/2000/svg">
<path d="M12.8935 12.0821C13.2952 12.0821 13.6579 12.1408 13.9813 12.2582C14.3048 12.3757 14.5835 12.5291 14.8163 12.7187C15.0491 12.9061 15.227 13.1083 15.3506 13.3246C15.4742 13.5409 15.5361 13.7476 15.5361 13.9433C15.536 14.108 15.4795 14.2367 15.3663 14.3293C15.2551 14.422 15.0984 14.4682 14.8965 14.4683H10.8904C10.6886 14.4682 10.5311 14.422 10.4178 14.3293C10.3045 14.2367 10.2481 14.108 10.248 13.9433C10.248 13.7476 10.3099 13.5409 10.4335 13.3246C10.5592 13.1084 10.7371 12.9061 10.9678 12.7187C11.2006 12.5292 11.4801 12.3757 11.8057 12.2582C12.1312 12.1408 12.4938 12.0821 12.8935 12.0821Z" fill="#626A80"/>
<path fill-rule="evenodd" clip-rule="evenodd" d="M4.34485 1.67432C4.56829 1.67432 4.76165 1.68936 4.92493 1.71943C5.08821 1.74951 5.2386 1.80107 5.3761 1.87412C5.5136 1.94287 5.65754 2.03955 5.80793 2.16416L6.17532 2.46709C6.35579 2.60889 6.52551 2.70986 6.6845 2.77002C6.84348 2.83018 7.03899 2.86025 7.27102 2.86025H13.2652C13.957 2.86025 14.4812 3.03857 14.8378 3.39521C15.1988 3.75186 15.3792 4.27393 15.3792 4.96143V8.78206C15.379 8.82096 15.3243 8.83304 15.3062 8.79854C15.2988 8.78453 15.291 8.77018 15.2833 8.75628C15.0536 8.33832 14.7284 7.98844 14.3193 7.73005C14.2784 7.70407 14.2367 7.67961 14.1947 7.65628C14.1469 7.62977 14.1161 7.57986 14.1159 7.52523V6.55986H1.87629V11.4776C1.87629 11.7913 1.95364 12.0255 2.10833 12.1802C2.26731 12.3349 2.49719 12.4122 2.79797 12.4122H9.06855C9.15688 12.4124 9.20965 12.5112 9.16523 12.5877L9.16236 12.5927L9.16021 12.597C9.00078 12.876 8.87221 13.1973 8.81503 13.5516C8.80306 13.6255 8.74022 13.6819 8.66536 13.6819H2.72063C2.02454 13.6819 1.49817 13.5036 1.14153 13.147C0.784888 12.7946 0.606567 12.2747 0.606567 11.5872V3.73037C0.606567 3.05146 0.774146 2.54014 1.1093 2.19639C1.44875 1.84834 1.91926 1.67432 2.52083 1.67432H4.34485ZM2.77219 2.9376C2.4843 2.9376 2.26301 3.01494 2.10833 3.16963C1.95364 3.32002 1.87629 3.54346 1.87629 3.83994V5.44482H14.1159V5.071C14.1159 4.75732 14.0343 4.52314 13.871 4.36846C13.7077 4.20947 13.4779 4.12998 13.1814 4.12998H6.93586C6.71243 4.12998 6.51692 4.11494 6.34934 4.08486C6.18606 4.05479 6.03352 4.00537 5.89172 3.93662C5.75422 3.86357 5.61243 3.76689 5.46633 3.64658L5.09895 3.34365C4.91848 3.19756 4.74875 3.09443 4.58977 3.03428C4.43508 2.96982 4.24387 2.9376 4.01614 2.9376H2.77219Z" fill="#626A80"/>
<path d="M12.8935 8.78421C13.1284 8.78421 13.3429 8.84606 13.5366 8.96969C13.7323 9.09331 13.8866 9.25936 13.9999 9.46742C14.1153 9.67549 14.1732 9.90422 14.1732 10.1535C14.1732 10.4131 14.1153 10.6495 13.9999 10.8618C13.8866 11.0718 13.7331 11.2396 13.5394 11.3652C13.3458 11.4888 13.1304 11.5507 12.8935 11.5507C12.6545 11.5507 12.4383 11.4888 12.2447 11.3652C12.0531 11.2396 11.8995 11.0718 11.7842 10.8618C11.6709 10.6496 11.6138 10.4145 11.6137 10.1571C11.6137 9.90773 11.6716 9.6784 11.787 9.47028C11.9024 9.26025 12.0568 9.09328 12.2504 8.96969C12.4441 8.84606 12.6586 8.78422 12.8935 8.78421Z" fill="#626A80"/>
</svg>
