<svg width="32" height="32" viewBox="0 0 32 32" fill="none" xmlns="http://www.w3.org/2000/svg">
<path d="M5.67624 27C4.46578 27 3.63628 26.6536 3.18775 25.9607C2.73715 25.2761 2.67729 24.266 3.00817 22.9303L5.32678 13.5705C5.61106 12.4229 6.79995 11.4926 7.98224 11.4926H29.3895C30.5718 11.4926 31.2998 12.4229 31.0155 13.5705L28.6969 22.9303C28.366 24.266 27.8169 25.2761 27.0496 25.9607C26.2801 26.6536 25.3612 27 24.2927 27H5.67624Z" fill="#6D778C"/>
<path d="M27.6765 9.72627H8.41971C6.23248 9.72627 4.03303 11.4473 3.50711 13.5704L2 19.6543V7.84882C2 6.57794 2.29141 5.62077 2.87422 4.97729C3.46451 4.32576 4.28269 4 5.32877 4H8.50063C8.88917 4 9.22541 4.02815 9.50935 4.08446C9.79328 4.14076 10.0548 4.23728 10.2939 4.37402C10.533 4.50272 10.7833 4.6837 11.0448 4.91696L11.6837 5.48403C11.9975 5.74946 12.2927 5.93848 12.5691 6.05109C12.8456 6.1637 13.1856 6.22001 13.5891 6.22001H24.0125C25.2155 6.22001 26.1271 6.55381 26.7472 7.22142C27.3035 7.81312 27.6133 8.64807 27.6765 9.72627Z" fill="#6D778C"/>
</svg>
