<svg width="16" height="16" viewBox="0 0 16 16" fill="none" xmlns="http://www.w3.org/2000/svg">
<path d="M9.59875 12.0761C9.8521 12.0761 10.0871 12.1082 10.3034 12.1721C10.5197 12.2359 10.7093 12.3151 10.8721 12.4098C10.6742 12.5726 10.5106 12.748 10.3808 12.9355C10.251 13.1209 10.1547 13.3081 10.0929 13.4976C10.0331 13.6872 10.0096 13.8657 10.022 14.0326C10.0364 14.2015 10.0866 14.348 10.1731 14.4716H7.95448C7.70732 14.4716 7.53581 14.4159 7.441 14.3047C7.34621 14.1955 7.2992 14.0437 7.2992 13.85C7.29922 13.6543 7.35561 13.4522 7.46893 13.2441C7.58226 13.0361 7.74201 12.8442 7.94803 12.6691C8.15396 12.4941 8.39706 12.3521 8.67707 12.243C8.9573 12.1317 9.26493 12.0761 9.59875 12.0761Z" fill="#626A80"/>
<path d="M13.2181 12.0818C13.6178 12.0818 13.9797 12.1406 14.3031 12.258C14.6285 12.3754 14.9075 12.529 15.1403 12.7185C15.3731 12.9059 15.5516 13.108 15.6752 13.3243C15.7989 13.5407 15.8607 13.7473 15.8607 13.9431C15.8607 14.1037 15.805 14.2315 15.6939 14.3262C15.5847 14.421 15.3857 14.468 15.0973 14.468H11.339C11.0485 14.468 10.8473 14.4209 10.736 14.3262C10.6268 14.2315 10.5721 14.1037 10.572 13.9431C10.572 13.7473 10.6338 13.5407 10.7575 13.3243C10.8832 13.108 11.0617 12.9059 11.2924 12.7185C11.5252 12.529 11.8042 12.3754 12.1296 12.258C12.4552 12.1405 12.8184 12.0818 13.2181 12.0818Z" fill="#626A80"/>
<path fill-rule="evenodd" clip-rule="evenodd" d="M4.32935 1.67407C4.55278 1.67407 4.74614 1.68911 4.90942 1.71919C5.0727 1.74927 5.2231 1.80083 5.3606 1.87388C5.4981 1.94263 5.64204 2.03931 5.79243 2.16392L6.15981 2.46685C6.34028 2.60864 6.51001 2.70962 6.66899 2.76978C6.82798 2.82993 7.02349 2.86001 7.25552 2.86001H13.2497C13.9415 2.86001 14.4657 3.03833 14.8223 3.39497C15.1833 3.75161 15.3637 4.27368 15.3637 4.96118V8.1731C15.3637 8.24296 15.273 8.27499 15.2262 8.22323C15.0607 8.03913 14.8707 7.8747 14.6562 7.73696C14.4943 7.63256 14.3239 7.54844 14.1491 7.48345C14.12 7.47255 14.1004 7.44438 14.1004 7.41327V6.55962H1.86079V11.4774C1.86079 11.7911 1.93813 12.0252 2.09282 12.1799C2.25181 12.3346 2.48169 12.412 2.78247 12.412H6.12616C6.18321 12.412 6.21872 12.4744 6.19132 12.5244C6.18807 12.5303 6.18452 12.5364 6.1813 12.5423C6.01089 12.8552 5.88681 13.2228 5.84829 13.6137C5.84452 13.6519 5.81226 13.6817 5.77381 13.6817H2.70513C2.00903 13.6817 1.48267 13.5034 1.12603 13.1467C0.769385 12.7944 0.591064 12.2745 0.591064 11.587V3.73013C0.591064 3.05122 0.758643 2.53989 1.0938 2.19614C1.43325 1.8481 1.90376 1.67407 2.50532 1.67407H4.32935ZM2.75669 2.93735C2.4688 2.93735 2.24751 3.0147 2.09282 3.16938C1.93813 3.31978 1.86079 3.54321 1.86079 3.8397V5.44458H14.1004V5.07075C14.1004 4.75708 14.0188 4.5229 13.8555 4.36821C13.6922 4.20923 13.4624 4.12974 13.1659 4.12974H6.92036C6.69692 4.12974 6.50142 4.1147 6.33384 4.08462C6.17056 4.05454 6.01802 4.00513 5.87622 3.93638C5.73872 3.86333 5.59692 3.76665 5.45083 3.64634L5.08345 3.34341C4.90298 3.19731 4.73325 3.09419 4.57427 3.03403C4.41958 2.96958 4.22837 2.93735 4.00063 2.93735H2.75669Z" fill="#626A80"/>
<path d="M9.59875 9.20435C9.80468 9.20439 9.99204 9.25921 10.1609 9.36834C10.3299 9.47755 10.4653 9.62315 10.5663 9.80448C10.667 9.9856 10.7173 10.1842 10.7174 10.4003C10.7174 10.6268 10.6671 10.8322 10.5663 11.0155C10.4674 11.1989 10.3328 11.3453 10.1638 11.4545C9.99493 11.5636 9.8067 11.6184 9.59875 11.6185C9.39475 11.6185 9.20769 11.5637 9.03872 11.4545C8.8699 11.3453 8.735 11.1988 8.6341 11.0155C8.53529 10.8322 8.48588 10.6283 8.48586 10.4039C8.48586 10.1856 8.53613 9.98571 8.63696 9.80448C8.73793 9.62315 8.87333 9.47755 9.0423 9.36834C9.21124 9.25918 9.39685 9.20435 9.59875 9.20435Z" fill="#626A80"/>
<path d="M13.2181 8.78397C13.4549 8.78401 13.669 8.84597 13.8605 8.96945C14.0542 9.09308 14.2092 9.25905 14.3246 9.46717C14.4399 9.67524 14.4972 9.90399 14.4972 10.1532C14.4972 10.4129 14.44 10.6493 14.3246 10.8615C14.2113 11.0715 14.0577 11.2393 13.8641 11.365C13.6705 11.4885 13.455 11.5504 13.2181 11.5504C12.9791 11.5504 12.7623 11.4886 12.5686 11.365C12.3771 11.2393 12.2235 11.0715 12.1081 10.8615C11.9928 10.6494 11.9356 10.4143 11.9355 10.1568C11.9355 9.90749 11.9927 9.67815 12.1081 9.47004C12.2256 9.25993 12.3814 9.09305 12.575 8.96945C12.7687 8.84586 12.9833 8.78397 13.2181 8.78397Z" fill="#626A80"/>
</svg>
