<svg width="21" height="18" viewBox="0 0 21 18" fill="none" xmlns="http://www.w3.org/2000/svg">
<path fill-rule="evenodd" clip-rule="evenodd" d="M14.7598 8.58594C15.3006 8.81684 15.8778 8.93229 16.4915 8.93229C17.0931 8.93229 17.6643 8.81684 18.2051 8.58594C18.7459 8.34896 19.2198 8.02387 19.627 7.61068C20.0401 7.19748 20.3622 6.72353 20.5931 6.1888C20.8301 5.648 20.9486 5.07378 20.9486 4.46615C20.9486 3.64583 20.748 2.89844 20.347 2.22396C19.946 1.54948 19.4052 1.01172 18.7246 0.610677C18.0501 0.203559 17.3058 0 16.4915 0C15.6712 0 14.9238 0.203559 14.2493 0.610677C13.5749 1.01172 13.0341 1.54948 12.627 2.22396C12.2259 2.89844 12.0254 3.64583 12.0254 4.46615C12.0254 5.07378 12.1408 5.648 12.3717 6.1888C12.6087 6.7296 12.9308 7.2066 13.3379 7.61979C13.7511 8.02691 14.225 8.34896 14.7598 8.58594ZM16.9382 7.14583C16.8288 7.25521 16.6829 7.3099 16.5007 7.3099C16.3123 7.3099 16.1604 7.25521 16.0449 7.14583C15.9355 7.03038 15.8809 6.88151 15.8809 6.69922V5.07682H14.2676C14.0853 5.07682 13.9364 5.02214 13.821 4.91276C13.7116 4.79731 13.6569 4.64844 13.6569 4.46615C13.6569 4.27778 13.7116 4.12891 13.821 4.01953C13.9364 3.91016 14.0853 3.85547 14.2676 3.85547H15.8809V2.24219C15.8809 2.0599 15.9355 1.91406 16.0449 1.80469C16.1604 1.68924 16.3123 1.63151 16.5007 1.63151C16.6829 1.63151 16.8288 1.68924 16.9382 1.80469C17.0536 1.91406 17.1113 2.0599 17.1113 2.24219V3.85547H18.7246C18.9069 3.85547 19.0527 3.91016 19.1621 4.01953C19.2776 4.12891 19.3353 4.27778 19.3353 4.46615C19.3353 4.64844 19.2776 4.79731 19.1621 4.91276C19.0527 5.02214 18.9069 5.07682 18.7246 5.07682H17.1113V6.69922C17.1113 6.88151 17.0536 7.03038 16.9382 7.14583Z" fill="#3E5DE7"/>
<path d="M9.08789 2.44019H11.2801C11.0694 2.98145 10.9406 3.56368 10.909 4.17163H8.63086C8.32617 4.17163 8.05957 4.15112 7.83105 4.11011C7.6084 4.06909 7.40039 4.00171 7.20703 3.90796C7.01953 3.80835 6.82617 3.67651 6.62695 3.51245L6.12598 3.09937C5.87988 2.90015 5.64844 2.75952 5.43164 2.67749C5.2207 2.5896 4.95996 2.54565 4.64941 2.54565H2.95312C2.56055 2.54565 2.25879 2.65112 2.04785 2.86206C1.83691 3.06714 1.73145 3.37183 1.73145 3.77612V5.9646H11.1046C11.256 6.50949 11.4879 7.02087 11.7867 7.48511H1.73145V14.1912C1.73145 14.6189 1.83691 14.9382 2.04785 15.1492C2.26465 15.3601 2.57812 15.4656 2.98828 15.4656H17.1475C17.5518 15.4656 17.8652 15.3601 18.0879 15.1492C18.3105 14.9382 18.4219 14.6218 18.4219 14.2V9.70752C19.0588 9.4723 19.6411 9.1243 20.1445 8.68775V14.3406C20.1445 15.2781 19.9102 15.9871 19.4414 16.4675C18.9727 16.9539 18.3193 17.197 17.4814 17.197H2.88281C1.93359 17.197 1.21582 16.9539 0.729492 16.4675C0.243164 15.9871 0 15.2781 0 14.3406V3.62671C0 2.70093 0.228516 2.00366 0.685547 1.53491C1.14844 1.0603 1.79004 0.822998 2.61035 0.822998H5.09766C5.40234 0.822998 5.66602 0.843506 5.88867 0.884521C6.11133 0.925537 6.31641 0.99585 6.50391 1.09546C6.69141 1.18921 6.8877 1.32104 7.09277 1.49097L7.59375 1.90405C7.83984 2.09741 8.07129 2.23511 8.28809 2.31714C8.50488 2.39917 8.77148 2.44019 9.08789 2.44019Z" fill="#3E5DE7"/>
</svg>
