<svg width="16" height="20" viewBox="0 0 16 20" fill="none" xmlns="http://www.w3.org/2000/svg">
<path d="M7.95367 9.87517C8.06446 9.87517 8.16597 9.89701 8.2583 9.94007C8.35068 9.98318 8.44922 10.0542 8.55392 10.1528L11.0486 12.4348C11.1285 12.5086 11.1903 12.5884 11.2334 12.6745C11.2765 12.7607 11.2983 12.8593 11.2983 12.9701C11.2983 13.1734 11.2272 13.3401 11.0856 13.4694C10.9501 13.5987 10.7833 13.6632 10.5863 13.6632C10.4878 13.6632 10.3891 13.6414 10.2907 13.5983C10.1984 13.5552 10.1186 13.4964 10.0509 13.4226L9.37677 12.7205L8.65756 11.9661L8.73868 13.4045V16.3697C8.73868 16.579 8.65891 16.7544 8.49894 16.896C8.34497 17.0438 8.16307 17.1178 7.95367 17.1178C7.73812 17.1178 7.55336 17.0438 7.3994 16.896C7.2455 16.7544 7.16867 16.579 7.16867 16.3697V13.4045L7.25609 11.9589L6.54049 12.7205L5.84742 13.4226C5.78591 13.4964 5.70604 13.5552 5.60768 13.5983C5.50922 13.6414 5.41339 13.6632 5.32108 13.6632C5.11186 13.6632 4.93919 13.5985 4.80375 13.4694C4.67442 13.3401 4.60998 13.1734 4.60998 12.9701C4.60998 12.8593 4.63089 12.7607 4.67397 12.6745C4.71708 12.5883 4.78242 12.5087 4.86864 12.4348L7.36244 10.1528C7.46098 10.0542 7.55667 9.98318 7.64905 9.94007C7.74138 9.89701 7.84289 9.87517 7.95367 9.87517Z" fill="#3E5DE7"/>
<path fill-rule="evenodd" clip-rule="evenodd" d="M7.45527 0C7.84306 2.14504e-05 8.18167 0.0275154 8.471 0.0829165C8.76046 0.132186 9.02859 0.22787 9.27493 0.369519C9.52115 0.504969 9.77347 0.705115 10.032 0.969763L14.8727 5.89428C15.1436 6.16522 15.3474 6.42681 15.4829 6.67928C15.6244 6.92556 15.7202 7.19957 15.7695 7.50124C15.8187 7.79684 15.8434 8.1607 15.8434 8.59177V16.9699C15.8434 17.9614 15.5903 18.7128 15.0854 19.224C14.5804 19.7413 13.8319 20 12.8403 20H3.00212C2.01065 20 1.26207 19.745 0.757064 19.2339C0.252054 18.7228 0 17.9676 0 16.9699V3.03006C0 2.03859 0.252128 1.28716 0.757064 0.77599C1.26207 0.258663 2.01057 0 3.00212 0H7.45527ZM3.15894 1.81064C2.70947 1.81068 2.3739 1.92815 2.15222 2.16214C1.9307 2.39611 1.8197 2.72523 1.81966 3.14993V16.8591C1.81966 17.284 1.93051 17.6109 2.15222 17.8388C2.37394 18.0666 2.70658 18.1803 3.14993 18.1803H12.6925C13.1421 18.1803 13.4784 18.0666 13.7001 17.8388C13.9218 17.6109 14.0327 17.284 14.0327 16.8591V8.84052H9.05322C8.39432 8.84052 7.90155 8.67747 7.57514 8.35113C7.25489 8.02472 7.09477 7.53203 7.09477 6.87306V1.81064H3.15894ZM8.69271 6.69731C8.69271 6.88823 8.73252 7.02747 8.81258 7.11369C8.89881 7.19984 9.03813 7.24258 9.22897 7.24258H13.7831L8.69271 2.06029V6.69731Z" fill="#3E5DE7"/>
</svg>
