<svg width="24" height="24" viewBox="0 0 24 24" fill="none" xmlns="http://www.w3.org/2000/svg">
<path d="M5.38062 22.057C5.1412 21.8743 4.99629 21.6318 4.94588 21.3293C4.89548 21.0332 4.93643 20.6898 5.06874 20.2992L6.98724 14.6004L2.09176 11.0942C1.75154 10.8485 1.51212 10.5933 1.37351 10.3287C1.2412 10.0578 1.22545 9.77739 1.32625 9.48757C1.42076 9.20404 1.60032 8.99298 1.86494 8.85437C2.12957 8.71576 2.46979 8.6496 2.88562 8.6559L5.69249 8.66535L7.54483 10.5177L4.43554 10.4421C4.38514 10.4421 4.35994 10.4515 4.35994 10.4704C4.34734 10.4956 4.35994 10.5177 4.39774 10.5366L8.64112 13.4191C8.88684 13.5829 9.03175 13.7498 9.07585 13.92C9.11996 14.0901 9.0916 14.3043 8.9908 14.5626L7.26131 19.3919C7.25501 19.4297 7.25816 19.4549 7.27076 19.4675C7.27706 19.4801 7.29912 19.4738 7.33692 19.4486L11.3157 16.3582C11.4984 16.207 11.678 16.1283 11.8544 16.122C12.0371 16.1157 12.2166 16.1913 12.3931 16.3488L18.8196 21.7924C18.6998 21.9562 18.6022 22.0633 18.5266 22.1137C18.2872 22.2587 18.0257 22.2996 17.7422 22.2366C17.465 22.1799 17.1688 22.0381 16.8538 21.8113L11.9961 18.2484L7.1479 21.8113C6.81398 22.057 6.4958 22.2051 6.19338 22.2555C5.89726 22.3059 5.62634 22.2398 5.38062 22.057ZM17.1846 14.4776L15.8048 13.1166L19.604 10.5366C19.6418 10.5114 19.6575 10.4893 19.6512 10.4704C19.6449 10.4515 19.6197 10.4421 19.5756 10.4421L14.4533 10.5839C14.1698 10.5965 13.9524 10.5555 13.8012 10.461C13.6563 10.3602 13.5492 10.1712 13.4799 9.89395L12.0434 4.97957C12.0371 4.93546 12.0213 4.91341 11.9961 4.91341C11.9772 4.91341 11.9646 4.93546 11.9583 4.97957L10.9849 8.29677L9.49168 6.81301L10.7203 2.95711C10.8463 2.56018 11.0164 2.25776 11.2306 2.04984C11.4448 1.83562 11.7 1.72852 11.9961 1.72852C12.2986 1.72852 12.5569 1.83562 12.7711 2.04984C12.9853 2.25776 13.1554 2.56018 13.2814 2.95711L15.1054 8.6937L21.1066 8.6559C21.5288 8.6496 21.8721 8.71576 22.1368 8.85437C22.4014 8.99298 22.5809 9.20404 22.6755 9.48757C22.7763 9.77739 22.7574 10.0578 22.6187 10.3287C22.4864 10.5933 22.2502 10.8485 21.9099 11.0942L17.1846 14.4776ZM20.2088 21.4144L4.44499 5.69782C4.30008 5.55291 4.22763 5.37335 4.22763 5.15913C4.22763 4.93861 4.30008 4.7559 4.44499 4.61099C4.60251 4.45348 4.78522 4.37472 4.99314 4.37472C5.20735 4.37472 5.39322 4.45348 5.55073 4.61099L21.2956 20.3276C21.4532 20.4725 21.5288 20.652 21.5225 20.8662C21.5225 21.0805 21.4469 21.2632 21.2956 21.4144C21.1507 21.5593 20.9712 21.6318 20.757 21.6318C20.5427 21.6318 20.36 21.5593 20.2088 21.4144Z" fill="#222631"/>
</svg>
