<svg width="24" height="24" viewBox="0 0 24 24" fill="none" xmlns="http://www.w3.org/2000/svg">
<path d="M5.38062 22.057C5.1412 21.8743 4.99629 21.6318 4.94588 21.3293C4.89548 21.0332 4.93643 20.6898 5.06874 20.2992L6.98724 14.6004L2.09176 11.0942C1.75154 10.8485 1.51212 10.5933 1.37351 10.3287C1.2412 10.0578 1.22545 9.77739 1.32625 9.48757C1.42076 9.20404 1.60032 8.99298 1.86494 8.85437C2.12957 8.71576 2.46979 8.6496 2.88562 8.6559L8.89629 8.6937L10.7203 2.95711C10.8463 2.56018 11.0164 2.25776 11.2306 2.04984C11.4448 1.83562 11.7 1.72852 11.9961 1.72852C12.2986 1.72852 12.5569 1.83562 12.7711 2.04984C12.9853 2.25776 13.1554 2.56018 13.2814 2.95711L15.1054 8.6937L21.1066 8.6559C21.5288 8.6496 21.8721 8.71576 22.1368 8.85437C22.4014 8.99298 22.5809 9.20404 22.6755 9.48757C22.7763 9.77739 22.7574 10.0578 22.6187 10.3287C22.4864 10.5933 22.2502 10.8485 21.9099 11.0942L17.0145 14.6004L18.933 20.2992C19.0653 20.6898 19.1062 21.0332 19.0558 21.3293C19.0054 21.6318 18.8605 21.8743 18.6211 22.057C18.3754 22.2398 18.1013 22.3059 17.7989 22.2555C17.5028 22.2051 17.1877 22.057 16.8538 21.8113L11.9961 18.2484L7.1479 21.8113C6.81398 22.057 6.4958 22.2051 6.19338 22.2555C5.89726 22.3059 5.62634 22.2398 5.38062 22.057ZM7.27076 19.4675C7.27706 19.4801 7.29912 19.4738 7.33692 19.4486L11.3913 16.3015C11.6118 16.1314 11.8134 16.0464 11.9961 16.0464C12.1851 16.0464 12.3899 16.1314 12.6104 16.3015L16.6648 19.4486C16.7026 19.4738 16.7246 19.4801 16.7309 19.4675C16.7435 19.4549 16.7467 19.4297 16.7404 19.3919L15.0109 14.5626C14.9416 14.3862 14.9038 14.235 14.8975 14.109C14.8975 13.9767 14.9322 13.857 15.0015 13.7498C15.0771 13.6427 15.1968 13.5325 15.3606 13.4191L19.604 10.5366C19.6418 10.5114 19.6575 10.4893 19.6512 10.4704C19.6449 10.4515 19.6197 10.4421 19.5756 10.4421L14.4533 10.5839C14.1698 10.5965 13.9524 10.5555 13.8012 10.461C13.6563 10.3602 13.5492 10.1712 13.4799 9.89395L12.0434 4.97957C12.0371 4.93546 12.0213 4.91341 11.9961 4.91341C11.9772 4.91341 11.9646 4.93546 11.9583 4.97957L10.5218 9.89395C10.4525 10.1712 10.3423 10.3602 10.191 10.461C10.0461 10.5555 9.83506 10.5965 9.55784 10.5839L4.43554 10.4421C4.38514 10.4421 4.35994 10.4515 4.35994 10.4704C4.34734 10.4956 4.35994 10.5177 4.39774 10.5366L8.64112 13.4191C8.80493 13.5262 8.92149 13.6364 8.9908 13.7498C9.0664 13.857 9.10105 13.9767 9.09475 14.109C9.09475 14.235 9.0601 14.3862 8.9908 14.5626L7.26131 19.3919C7.25501 19.4297 7.25816 19.4549 7.27076 19.4675Z" fill="#222631"/>
</svg>
